STARTFONT 2.1
FONT -Adobe-Utopia-Bold-I-Normal--25-240-75-75-P-140-ISO10646-1
SIZE 24 75 75
FONTBOUNDINGBOX 37 40 -5 -12
COMMENT $Xorg: $
COMMENT ISO10646-1 extension by Markus Kuhn <mkuhn@acm.org>, 2001-03-20
STARTPROPERTIES 28
FOUNDRY "Adobe"
FAMILY_NAME "Utopia"
WEIGHT_NAME "Bold"
SLANT "I"
SETWIDTH_NAME "Normal"
ADD_STYLE_NAME ""
PIXEL_SIZE 25
POINT_SIZE 240
RESOLUTION_X 75
RESOLUTION_Y 75
SPACING "P"
AVERAGE_WIDTH 140
CHARSET_REGISTRY "ISO10646"
CHARSET_ENCODING "1"
CAP_HEIGHT 17
X_HEIGHT 12
RELATIVE_SETWIDTH 50
RELATIVE_WEIGHT 70
WEIGHT 208
FACE_NAME "Utopia Bold Italic"
COPYRIGHT "Copyright (c) 1989, 1991 Adobe Systems Incorporated.  All rights reserved."
NOTICE "Utopia is a registered trademark of Adobe Systems Incorporated."
DESTINATION 0
FONT_ASCENT 21
FONT_DESCENT 5
DEFAULT_CHAR 0
_ADOBE_PSFONT "Utopia-BoldItalic"
_DEC_DEVICE_FONTNAMES "PS=Utopia-BoldItalic"
ENDPROPERTIES
CHARS 723
STARTCHAR char0
ENCODING 0
SWIDTH 800 0
DWIDTH 20 0
BBX 21 17 -1 0
BITMAP
AAAAA8
000000
800008
000000
800008
000000
800008
000000
800008
000000
800008
000000
800008
000000
800008
000000
AAAAA8
ENDCHAR
STARTCHAR space
ENCODING 32
SWIDTH 210 0
DWIDTH 5 0
BBX 0 0 0 0
BITMAP
ENDCHAR
STARTCHAR exclam
ENCODING 33
SWIDTH 285 0
DWIDTH 7 0
BBX 7 17 0 0
BITMAP
1C
3E
3E
3C
3C
3C
38
38
38
30
30
00
00
60
F0
F0
60
ENDCHAR
STARTCHAR quotedbl
ENCODING 34
SWIDTH 455 0
DWIDTH 11 0
BBX 8 9 2 8
BITMAP
77
77
66
66
EE
CC
CC
CC
88
ENDCHAR
STARTCHAR numbersign
ENCODING 35
SWIDTH 560 0
DWIDTH 14 0
BBX 14 16 0 0
BITMAP
0318
0318
0638
0630
1FFC
3FF8
0C60
0C60
18C0
18C0
7FF0
FFE0
3180
3180
6300
6300
ENDCHAR
STARTCHAR dollar
ENCODING 36
SWIDTH 560 0
DWIDTH 14 0
BBX 14 21 0 -2
BITMAP
0040
0040
03F8
0EBC
1C9C
3D8C
3D00
3F00
3F80
3FC0
1FE0
0FF0
07F0
05F0
04F0
CCF0
E8E0
F9C0
7F00
1000
1000
ENDCHAR
STARTCHAR percent
ENCODING 37
SWIDTH 896 0
DWIDTH 22 0
BBX 20 17 1 0
BITMAP
1F0080
39FF80
71C300
71C200
E1C400
E38C00
E39800
671000
3E27C0
006E60
00DC70
019C70
013870
0238E0
0638E0
0C19C0
080F80
ENDCHAR
STARTCHAR ampersand
ENCODING 38
SWIDTH 752 0
DWIDTH 20 0
BBX 19 17 0 0
BITMAP
01F800
073C00
0F1C00
0F1C00
0F1C00
0F1860
07B0E0
07E1E0
0FC1E0
3FE1C0
79E3C0
F8F380
F8FB00
F87E00
F83E00
7C7F80
1FC7E0
ENDCHAR
STARTCHAR quotesingle
ENCODING 39
SWIDTH 246 0
DWIDTH 6 0
BBX 4 9 1 8
BITMAP
70
70
60
60
E0
C0
C0
C0
80
ENDCHAR
STARTCHAR parenleft
ENCODING 40
SWIDTH 350 0
DWIDTH 9 0
BBX 8 20 1 -3
BITMAP
07
0E
1C
1C
38
38
70
70
70
E0
E0
E0
E0
E0
E0
E0
E0
70
70
38
ENDCHAR
STARTCHAR parenright
ENCODING 41
SWIDTH 350 0
DWIDTH 9 0
BBX 8 20 -1 -3
BITMAP
1C
0E
0E
07
07
07
07
07
07
07
07
0E
0E
0E
1C
1C
38
38
70
E0
ENDCHAR
STARTCHAR asterisk
ENCODING 42
SWIDTH 500 0
DWIDTH 12 0
BBX 10 10 1 7
BITMAP
0600
0600
64C0
75C0
1E00
1E00
EB80
C980
1800
1800
ENDCHAR
STARTCHAR plus
ENCODING 43
SWIDTH 600 0
DWIDTH 15 0
BBX 13 12 1 0
BITMAP
0700
0700
0700
0700
0700
FFF8
FFF8
0700
0700
0700
0700
0700
ENDCHAR
STARTCHAR comma
ENCODING 44
SWIDTH 280 0
DWIDTH 7 0
BBX 5 9 -1 -5
BITMAP
30
78
78
38
30
30
60
C0
80
ENDCHAR
STARTCHAR hyphen
ENCODING 45
SWIDTH 392 0
DWIDTH 10 0
BBX 8 2 1 5
BITMAP
7F
FE
ENDCHAR
STARTCHAR period
ENCODING 46
SWIDTH 280 0
DWIDTH 7 0
BBX 4 4 0 0
BITMAP
60
F0
F0
60
ENDCHAR
STARTCHAR slash
ENCODING 47
SWIDTH 260 0
DWIDTH 10 0
BBX 7 17 1 0
BITMAP
06
06
0C
0C
0C
18
18
18
30
30
30
60
60
60
C0
C0
C0
ENDCHAR
STARTCHAR zero
ENCODING 48
SWIDTH 560 0
DWIDTH 14 0
BBX 14 17 0 0
BITMAP
03E0
0F38
1E38
3C3C
3C3C
7C3C
783C
783C
F87C
F078
F078
F0F8
F0F0
F0F0
71E0
73C0
1F00
ENDCHAR
STARTCHAR one
ENCODING 49
SWIDTH 560 0
DWIDTH 14 0
BBX 11 17 1 0
BITMAP
03E0
1FE0
07C0
07C0
07C0
07C0
0F80
0F80
0F80
0F80
0F80
1F00
1F00
1F00
1F00
3F00
FFC0
ENDCHAR
STARTCHAR two
ENCODING 50
SWIDTH 560 0
DWIDTH 14 0
BBX 14 17 0 0
BITMAP
07E0
1E78
3C78
187C
007C
00FC
00F8
01F0
03E0
0780
0E00
1C00
3810
7030
FFF0
FFE0
FFE0
ENDCHAR
STARTCHAR three
ENCODING 51
SWIDTH 560 0
DWIDTH 14 0
BBX 14 17 0 0
BITMAP
07F0
1E78
3C7C
187C
007C
00F8
01F0
1FC0
03E0
01F0
01F0
01F0
01F0
C1E0
E1E0
F3C0
7F00
ENDCHAR
STARTCHAR four
ENCODING 52
SWIDTH 560 0
DWIDTH 14 0
BBX 13 17 0 0
BITMAP
0180
03C0
03C0
0790
0730
0E70
1CF0
39F0
31E0
63E0
C3E0
FFF8
7FF0
07C0
07C0
0FC0
3FF0
ENDCHAR
STARTCHAR five
ENCODING 53
SWIDTH 560 0
DWIDTH 14 0
BBX 14 17 0 0
BITMAP
0FFC
0FF8
0FF0
0C00
1800
1800
1800
3FC0
33E0
01F0
01F0
01F0
01F0
C1E0
E1E0
F3C0
7F00
ENDCHAR
STARTCHAR six
ENCODING 54
SWIDTH 560 0
DWIDTH 14 0
BBX 13 17 1 0
BITMAP
01F0
0778
1E38
1E18
3C00
3C00
7C00
7BC0
7DE0
F8F0
F0F0
F0F0
F0F0
F0F0
71E0
73C0
1F00
ENDCHAR
STARTCHAR seven
ENCODING 55
SWIDTH 560 0
DWIDTH 14 0
BBX 13 17 1 0
BITMAP
7FF8
7FF8
FFF0
8070
0060
00C0
0180
0380
0700
0F00
1E00
3E00
3C00
7C00
7C00
7C00
3800
ENDCHAR
STARTCHAR eight
ENCODING 56
SWIDTH 560 0
DWIDTH 14 0
BBX 14 17 0 0
BITMAP
03F0
0F38
1E3C
1E3C
1E3C
1E3C
0F78
0FF0
1FE0
3DF0
78F8
F8F8
F0F8
F0F8
F0F0
71E0
3F80
ENDCHAR
STARTCHAR nine
ENCODING 57
SWIDTH 560 0
DWIDTH 14 0
BBX 13 17 0 0
BITMAP
07C0
1E70
3C70
7878
7878
7878
7878
78F8
3DF0
1EF0
01F0
01E0
01E0
C3C0
E3C0
F700
7C00
ENDCHAR
STARTCHAR colon
ENCODING 58
SWIDTH 280 0
DWIDTH 7 0
BBX 6 12 0 0
BITMAP
18
3C
3C
18
00
00
00
00
60
F0
F0
60
ENDCHAR
STARTCHAR semicolon
ENCODING 59
SWIDTH 280 0
DWIDTH 7 0
BBX 7 17 -1 -5
BITMAP
0C
1E
1E
0C
00
00
00
00
30
78
78
38
30
30
60
C0
80
ENDCHAR
STARTCHAR less
ENCODING 60
SWIDTH 600 0
DWIDTH 15 0
BBX 12 12 1 0
BITMAP
0030
00F0
03C0
0F00
3C00
F000
F000
3C00
0F00
03C0
00F0
0030
ENDCHAR
STARTCHAR equal
ENCODING 61
SWIDTH 600 0
DWIDTH 15 0
BBX 13 8 1 2
BITMAP
FFF8
FFF8
0000
0000
0000
0000
FFF8
FFF8
ENDCHAR
STARTCHAR greater
ENCODING 62
SWIDTH 600 0
DWIDTH 15 0
BBX 12 12 1 0
BITMAP
C000
F000
3C00
0F00
03C0
00F0
00F0
03C0
0F00
3C00
F000
C000
ENDCHAR
STARTCHAR question
ENCODING 63
SWIDTH 454 0
DWIDTH 12 0
BBX 10 17 1 0
BITMAP
1F00
7B80
F3C0
63C0
03C0
0780
0E00
3800
7000
F000
FC00
7800
0000
6000
F000
F000
6000
ENDCHAR
STARTCHAR at
ENCODING 64
SWIDTH 828 0
DWIDTH 23 0
BBX 19 17 2 0
BITMAP
03FE00
0F0380
1C00C0
386F60
71DE60
738E60
E38E60
E70E60
E71C60
E71C60
E73CC0
E75D80
738F00
700000
380000
1E0600
07FC00
ENDCHAR
STARTCHAR A
ENCODING 65
SWIDTH 634 0
DWIDTH 16 0
BBX 18 17 -2 0
BITMAP
007C00
007C00
00FC00
00FC00
01FC00
013E00
033E00
023E00
063E00
043E00
0FFE00
081F00
181F00
101F00
301F00
701F80
F83FC0
ENDCHAR
STARTCHAR B
ENCODING 66
SWIDTH 680 0
DWIDTH 17 0
BBX 17 17 -1 0
BITMAP
1FFE00
0FCF00
0F8F80
0F8F80
0F8F80
0F8F00
1F1E00
1FF800
1F3E00
1F1F00
1F1F00
3E1F00
3E1F00
3E1F00
3E1E00
7E3C00
FFF000
ENDCHAR
STARTCHAR C
ENCODING 67
SWIDTH 672 0
DWIDTH 17 0
BBX 16 17 0 0
BITMAP
03FF
0F87
1F02
3E02
3E00
7C00
7C00
7C00
F800
F800
F800
F800
F804
780C
781C
3C38
0FE0
ENDCHAR
STARTCHAR D
ENCODING 68
SWIDTH 774 0
DWIDTH 20 0
BBX 20 17 -1 0
BITMAP
1FFF00
0FC3C0
0F81E0
0F81E0
0F81F0
0F81F0
1F01F0
1F01F0
1F01F0
1F03E0
1F03E0
3E03E0
3E07C0
3E07C0
3E0F80
7E1F00
FFFC00
ENDCHAR
STARTCHAR E
ENCODING 69
SWIDTH 622 0
DWIDTH 16 0
BBX 16 17 -1 0
BITMAP
1FFF
0FC7
0F82
0F82
0F80
0F84
1F0C
1FFC
1F08
1F08
1F00
3E00
3E02
3E06
3E0E
7E1C
FFFC
ENDCHAR
STARTCHAR F
ENCODING 70
SWIDTH 585 0
DWIDTH 15 0
BBX 16 17 -1 0
BITMAP
1FFF
0FC7
0F82
0F82
0F80
1F00
1F04
1F0C
1FFC
1F08
1F08
3E00
3E00
3E00
3E00
7E00
FF00
ENDCHAR
STARTCHAR G
ENCODING 71
SWIDTH 726 0
DWIDTH 18 0
BBX 17 17 0 0
BITMAP
03FF00
0F8700
1F0200
3E0200
3E0000
7C0000
7C0000
7C0000
F80000
F80000
F8FF80
F83E00
F83E00
783E00
783E00
3C7C00
0FF000
ENDCHAR
STARTCHAR H
ENCODING 72
SWIDTH 800 0
DWIDTH 20 0
BBX 21 17 -1 0
BITMAP
1FE7F8
0FC3F0
0F83E0
0F83E0
0F83E0
1F07C0
1F07C0
1F07C0
1FFFC0
1F07C0
1F07C0
3E0F80
3E0F80
3E0F80
3E0F80
7E1F80
FF3FC0
ENDCHAR
STARTCHAR I
ENCODING 73
SWIDTH 386 0
DWIDTH 10 0
BBX 11 17 -1 0
BITMAP
1FE0
0FC0
0F80
0F80
0F80
1F00
1F00
1F00
1F00
1F00
1F00
3E00
3E00
3E00
3E00
7E00
FF00
ENDCHAR
STARTCHAR J
ENCODING 74
SWIDTH 388 0
DWIDTH 10 0
BBX 13 20 -3 -3
BITMAP
07F8
03F0
03E0
03E0
03E0
07C0
07C0
07C0
07C0
07C0
0F80
0F80
0F80
0F80
0F80
1F00
1F00
1E00
3C00
F000
ENDCHAR
STARTCHAR K
ENCODING 75
SWIDTH 688 0
DWIDTH 17 0
BBX 19 17 -1 0
BITMAP
1FE3E0
0FC380
0F8300
0F8600
0F8C00
0F9800
1F3000
1F7800
1FF800
1FFC00
1F7C00
3E7E00
3E3E00
3E3F00
3E1F00
7E1F80
FF0FC0
ENDCHAR
STARTCHAR L
ENCODING 76
SWIDTH 586 0
DWIDTH 15 0
BBX 15 17 -1 0
BITMAP
1FE0
0FC0
0F80
0F80
0F80
0F80
1F00
1F00
1F00
1F00
1F00
3E00
3E02
3E06
3E0E
7E1C
FFFC
ENDCHAR
STARTCHAR M
ENCODING 77
SWIDTH 921 0
DWIDTH 23 0
BBX 25 17 -1 0
BITMAP
1FE07F80
0FE07F00
0FE0FE00
0FE0BE00
0FE1BE00
1BE17C00
19F37C00
19F27C00
19F67C00
19F47C00
19FC7C00
30F8F800
30F8F800
30F0F800
30F0F800
70E1F800
F8E3FC00
ENDCHAR
STARTCHAR N
ENCODING 78
SWIDTH 741 0
DWIDTH 19 0
BBX 20 17 -1 0
BITMAP
1F81F0
0F80E0
0FC0C0
0FC0C0
0FE0C0
1BE180
1BF180
19F180
19F980
18F980
18FD80
307D00
307F00
303F00
303F00
701F00
F81F00
ENDCHAR
STARTCHAR O
ENCODING 79
SWIDTH 761 0
DWIDTH 19 0
BBX 18 17 0 0
BITMAP
03FC00
0F8F00
1F0780
3E0780
3E07C0
7C07C0
7C07C0
7C07C0
F807C0
F80F80
F80F80
F80F80
F81F00
781F00
783E00
3C7C00
0FF000
ENDCHAR
STARTCHAR P
ENCODING 80
SWIDTH 660 0
DWIDTH 17 0
BBX 17 17 -1 0
BITMAP
1FFE00
0FCF00
0F8F80
0F8F80
0F8F80
1F0F80
1F0F80
1F1F00
1F1E00
1FF800
1F0000
3E0000
3E0000
3E0000
3E0000
7E0000
FF0000
ENDCHAR
STARTCHAR Q
ENCODING 81
SWIDTH 761 0
DWIDTH 19 0
BBX 18 22 0 -5
BITMAP
03FC00
0F8F00
1F0780
3E0780
3E07C0
7C07C0
7C07C0
7C07C0
F807C0
F80F80
F80F80
F80F80
F81F00
781F00
783E00
3C7C00
0FF000
01E000
01F000
00F800
00FC00
003F00
ENDCHAR
STARTCHAR R
ENCODING 82
SWIDTH 681 0
DWIDTH 17 0
BBX 18 17 -1 0
BITMAP
1FFE00
0FCF00
0F8F80
0F8F80
0F8F80
1F0F80
1F0F00
1F1E00
1FFC00
1F3E00
1F3E00
3E3E00
3E1F00
3E1F00
3E1F00
7E1F80
FF0FC0
ENDCHAR
STARTCHAR S
ENCODING 83
SWIDTH 551 0
DWIDTH 14 0
BBX 13 17 0 0
BITMAP
03F8
0F38
1E10
3E10
3E00
3F00
3F80
1FC0
0FE0
07F0
03F0
01F0
41F0
41F0
E1E0
F3C0
7F00
ENDCHAR
STARTCHAR T
ENCODING 84
SWIDTH 616 0
DWIDTH 16 0
BBX 16 17 1 0
BITMAP
FFFF
E7E7
C7C2
87C2
07C0
0F80
0F80
0F80
0F80
0F80
0F80
1F00
1F00
1F00
1F00
3F00
7F80
ENDCHAR
STARTCHAR U
ENCODING 85
SWIDTH 776 0
DWIDTH 19 0
BBX 19 17 1 0
BITMAP
7F9FE0
3F0FC0
3E0F80
3E0F80
3E0F80
7C1F00
7C1F00
7C1F00
7C1F00
7C1F00
F83E00
F83E00
F83E00
F83E00
F83C00
7C7800
1FE000
ENDCHAR
STARTCHAR V
ENCODING 86
SWIDTH 630 0
DWIDTH 16 0
BBX 18 17 0 0
BITMAP
FF07C0
7E0380
3E0300
3E0200
3E0600
3E0400
1F0C00
1F0800
1F1800
1F1000
1F3000
1F2000
0FE000
0FC000
0FC000
0F8000
0F8000
ENDCHAR
STARTCHAR W
ENCODING 87
SWIDTH 920 0
DWIDTH 23 0
BBX 25 17 0 0
BITMAP
FF1F0F80
7E1F0700
3E1F0600
3E1F0400
3E1F0C00
3E1F0800
3E3F1800
3E3F1000
1F6FB000
1F4FA000
1FCFE000
1F8FC000
1F8FC000
1F0F8000
1F0F8000
1E0F0000
1E0F0000
ENDCHAR
STARTCHAR X
ENCODING 88
SWIDTH 630 0
DWIDTH 16 0
BBX 18 17 -1 0
BITMAP
1FE7C0
0FC380
07C300
07C200
03E400
03F800
03F800
01F000
01F000
03F000
03F800
04F800
08F800
187C00
307C00
707E00
F8FF00
ENDCHAR
STARTCHAR Y
ENCODING 89
SWIDTH 622 0
DWIDTH 16 0
BBX 16 17 1 0
BITMAP
FE1F
7C0E
7C0C
7C18
3E30
3E20
3E40
3EC0
1F80
1F00
1F00
1F00
3E00
3E00
3E00
7E00
FF00
ENDCHAR
STARTCHAR Z
ENCODING 90
SWIDTH 618 0
DWIDTH 16 0
BBX 15 17 0 0
BITMAP
1FFE
1C3E
187C
30F8
20F8
01F0
03E0
07C0
07C0
0F80
1F00
3E00
3E04
7C0C
F818
F838
FFF8
ENDCHAR
STARTCHAR bracketleft
ENCODING 91
SWIDTH 350 0
DWIDTH 9 0
BBX 8 20 1 -3
BITMAP
1F
1C
1C
1C
1C
38
38
38
38
38
70
70
70
70
70
E0
E0
E0
E0
F8
ENDCHAR
STARTCHAR backslash
ENCODING 92
SWIDTH 460 0
DWIDTH 11 0
BBX 7 17 2 0
BITMAP
C0
C0
60
60
60
30
30
30
18
18
18
0C
0C
0C
06
06
06
ENDCHAR
STARTCHAR bracketright
ENCODING 93
SWIDTH 350 0
DWIDTH 9 0
BBX 8 20 -1 -3
BITMAP
1F
07
07
07
07
0E
0E
0E
0E
0E
1C
1C
1C
1C
1C
38
38
38
38
F8
ENDCHAR
STARTCHAR asciicircum
ENCODING 94
SWIDTH 600 0
DWIDTH 15 0
BBX 10 10 2 7
BITMAP
0C00
0C00
1E00
1E00
3300
3300
6180
6180
C0C0
C0C0
ENDCHAR
STARTCHAR underscore
ENCODING 95
SWIDTH 500 0
DWIDTH 12 0
BBX 12 1 0 -4
BITMAP
FFF0
ENDCHAR
STARTCHAR grave
ENCODING 96
SWIDTH 400 0
DWIDTH 10 0
BBX 6 5 2 14
BITMAP
40
E0
F0
38
0C
ENDCHAR
STARTCHAR a
ENCODING 97
SWIDTH 596 0
DWIDTH 15 0
BBX 15 13 0 0
BITMAP
07FC
1E7C
3C7C
3C7C
7CF8
78F8
F8F8
F8F8
F9F0
F9F2
FBF4
7DF8
38F0
ENDCHAR
STARTCHAR b
ENCODING 98
SWIDTH 586 0
DWIDTH 15 0
BBX 14 19 0 0
BITMAP
0F00
7F00
1F00
1F00
1F00
3E00
3E70
3EF8
3D7C
7E7C
7C7C
7C7C
7C7C
7C78
F8F8
F8F0
F8F0
FDE0
E780
ENDCHAR
STARTCHAR c
ENCODING 99
SWIDTH 456 0
DWIDTH 12 0
BBX 12 13 0 0
BITMAP
07E0
1E70
3C70
7C20
7C00
F800
F800
F800
F800
F820
F860
7CC0
3F00
ENDCHAR
STARTCHAR d
ENCODING 100
SWIDTH 609 0
DWIDTH 15 0
BBX 15 19 0 0
BITMAP
001E
00FE
003E
003E
003E
007C
07FC
1E7C
3C7C
3C7C
7CF8
78F8
F8F8
F8F8
F9F0
F9F2
FBF4
7DF8
38F0
ENDCHAR
STARTCHAR e
ENCODING 101
SWIDTH 476 0
DWIDTH 12 0
BBX 12 13 0 0
BITMAP
07E0
1EF0
3CF0
7CF0
7DE0
F9C0
FB80
FE00
F800
F820
F860
7CC0
3F00
ENDCHAR
STARTCHAR f
ENCODING 102
SWIDTH 348 0
DWIDTH 9 0
BBX 16 24 -4 -5
BITMAP
003E
0077
00F3
01F0
01F0
01F0
0FFC
03E0
03E0
03E0
03E0
07C0
07C0
07C0
07C0
07C0
0F80
0F80
0F80
0F80
0F80
CF00
EE00
7C00
ENDCHAR
STARTCHAR g
ENCODING 103
SWIDTH 522 0
DWIDTH 13 0
BBX 16 18 -2 -5
BITMAP
03F9
0F3F
1E3C
3E3C
3E3C
3E3C
1E78
07E0
1E00
3F80
1FE0
0FF8
1FFC
78FC
F03C
F038
7870
1FC0
ENDCHAR
STARTCHAR h
ENCODING 104
SWIDTH 629 0
DWIDTH 16 0
BBX 16 19 0 0
BITMAP
0F00
7F00
1F00
1F00
1F00
3E00
3E3C
3E7E
3EBE
3D3E
7E7C
7E7C
7C7C
7C7C
7C7C
F8F9
F8FA
F8FC
F878
ENDCHAR
STARTCHAR i
ENCODING 105
SWIDTH 339 0
DWIDTH 8 0
BBX 8 18 0 0
BITMAP
0E
1F
1F
0E
00
1E
FE
3E
3E
3C
7C
7C
7C
78
F9
FA
FC
78
ENDCHAR
STARTCHAR j
ENCODING 106
SWIDTH 333 0
DWIDTH 8 0
BBX 12 23 -4 -5
BITMAP
00E0
01F0
01F0
00E0
0000
01E0
0FE0
03E0
03E0
03E0
03E0
07C0
07C0
07C0
07C0
07C0
07C0
0F80
0F80
0F80
CF80
EF00
7C00
ENDCHAR
STARTCHAR k
ENCODING 107
SWIDTH 570 0
DWIDTH 15 0
BBX 15 19 0 0
BITMAP
0F80
7F80
0F80
1F00
1F00
1F00
1F06
3E1E
3E3E
3E64
3EE0
3DE0
7FE0
7DF0
7DF0
7CF2
F8FC
F8FC
F878
ENDCHAR
STARTCHAR l
ENCODING 108
SWIDTH 327 0
DWIDTH 8 0
BBX 8 19 0 0
BITMAP
0F
7F
1F
1F
1F
3E
3E
3E
3E
7C
7C
7C
7C
7C
F8
F9
FA
FC
78
ENDCHAR
STARTCHAR m
ENCODING 109
SWIDTH 914 0
DWIDTH 23 0
BBX 24 13 0 0
BITMAP
1E3C3C
FE7E7E
3EBEBE
3D3F3E
3E3E3E
7E7E7C
7C7C7C
7C7C7C
7C7C7C
F8F8F9
F8F8FA
F8F8FC
F8F878
ENDCHAR
STARTCHAR n
ENCODING 110
SWIDTH 635 0
DWIDTH 16 0
BBX 16 13 0 0
BITMAP
1E3C
FE7E
3EBE
3D3E
3E3E
7E7C
7C7C
7C7C
7C7C
F8F9
F8FA
F8FC
F878
ENDCHAR
STARTCHAR o
ENCODING 111
SWIDTH 562 0
DWIDTH 14 0
BBX 14 13 0 0
BITMAP
07F0
1EF8
3C7C
7C7C
7C7C
F87C
F87C
F87C
F8F8
F8F8
F8F0
7DE0
3F80
ENDCHAR
STARTCHAR p
ENCODING 112
SWIDTH 606 0
DWIDTH 15 0
BBX 15 18 -1 -5
BITMAP
1F38
7F7C
1FBE
1F3E
3E3E
3E3E
3E3E
3E3C
3E7C
7C78
7C78
7EF0
7FC0
7C00
F800
F800
F800
F800
ENDCHAR
STARTCHAR q
ENCODING 113
SWIDTH 584 0
DWIDTH 15 0
BBX 14 18 0 -5
BITMAP
07FC
1E7C
3C7C
3C7C
7CF8
78F8
F8F8
F8F8
F8F8
F9F0
FBF0
7DF0
39F0
01F0
03E0
03E0
03E0
03E0
ENDCHAR
STARTCHAR r
ENCODING 114
SWIDTH 440 0
DWIDTH 11 0
BBX 13 13 0 0
BITMAP
1E70
FEF8
3F78
3E30
3E00
7C00
7C00
7C00
7C00
F800
F800
F800
F800
ENDCHAR
STARTCHAR s
ENCODING 115
SWIDTH 417 0
DWIDTH 10 0
BBX 12 13 -1 0
BITMAP
07E0
1CF0
3C70
3E20
3F00
1F00
1F80
0FC0
07C0
43C0
E3C0
F380
7E00
ENDCHAR
STARTCHAR t
ENCODING 116
SWIDTH 359 0
DWIDTH 9 0
BBX 10 17 0 0
BITMAP
0200
0600
1E00
3E00
FFC0
3E00
3E00
7C00
7C00
7C00
7C00
7C00
F800
F900
FA00
FC00
7800
ENDCHAR
STARTCHAR u
ENCODING 117
SWIDTH 634 0
DWIDTH 16 0
BBX 16 13 0 0
BITMAP
1E3E
FE3E
3E3E
3E3E
7C7C
7C7C
7C7C
7CFC
7CFC
F979
FAFA
FCFC
7878
ENDCHAR
STARTCHAR v
ENCODING 118
SWIDTH 518 0
DWIDTH 13 0
BBX 13 13 0 0
BITMAP
1E38
7E78
3E38
3C38
7C30
7C30
7C30
7C60
F840
F8C0
F880
F900
7E00
ENDCHAR
STARTCHAR w
ENCODING 119
SWIDTH 795 0
DWIDTH 20 0
BBX 20 13 0 0
BITMAP
1E3E70
7E3C70
3E3C70
3C7C70
7C7C60
7C7860
7C7860
7CF8C0
F8F880
F8F980
F9F900
FAFE00
7C7C00
ENDCHAR
STARTCHAR x
ENCODING 120
SWIDTH 516 0
DWIDTH 13 0
BBX 14 13 -1 0
BITMAP
0F1C
3F3C
1F38
0F40
0F80
0F80
0780
07C0
07C4
6BC8
F3F0
F3E0
61C0
ENDCHAR
STARTCHAR y
ENCODING 121
SWIDTH 489 0
DWIDTH 12 0
BBX 15 18 -3 -5
BITMAP
078E
3F9E
0F8E
0F8E
0F8E
0F8C
07CC
07C8
07D0
07D0
07E0
07C0
0780
0780
6700
F600
F400
7800
ENDCHAR
STARTCHAR z
ENCODING 122
SWIDTH 466 0
DWIDTH 12 0
BBX 13 13 -1 0
BITMAP
1FF8
1FF0
3FE0
31C0
2180
0300
0600
0C10
1C30
3FF0
7FE0
FFC0
C780
ENDCHAR
STARTCHAR braceleft
ENCODING 123
SWIDTH 340 0
DWIDTH 8 0
BBX 9 20 -1 -3
BITMAP
0780
0E00
0E00
0E00
0E00
1C00
1C00
1C00
1800
E000
3000
3800
3800
3800
7000
7000
7000
7000
7000
3C00
ENDCHAR
STARTCHAR bar
ENCODING 124
SWIDTH 265 0
DWIDTH 7 0
BBX 3 17 2 0
BITMAP
E0
E0
E0
E0
E0
E0
E0
E0
E0
E0
E0
E0
E0
E0
E0
E0
E0
ENDCHAR
STARTCHAR braceright
ENCODING 125
SWIDTH 340 0
DWIDTH 8 0
BBX 9 20 -1 -3
BITMAP
1E00
0700
0700
0700
0700
0E00
0E00
0E00
0600
0380
0C00
1C00
1C00
1C00
1C00
3800
3800
3800
3800
F000
ENDCHAR
STARTCHAR asciitilde
ENCODING 126
SWIDTH 600 0
DWIDTH 15 0
BBX 13 3 1 5
BITMAP
3E18
7FF0
C3E0
ENDCHAR
STARTCHAR space
ENCODING 160
SWIDTH 210 0
DWIDTH 5 0
BBX 0 0 0 0
BITMAP
ENDCHAR
STARTCHAR exclamdown
ENCODING 161
SWIDTH 285 0
DWIDTH 7 0
BBX 7 17 0 -4
BITMAP
0C
1E
1E
0C
00
00
18
18
38
38
38
78
78
78
F8
F8
70
ENDCHAR
STARTCHAR cent
ENCODING 162
SWIDTH 560 0
DWIDTH 14 0
BBX 14 17 0 0
BITMAP
0040
0040
07F8
1EBC
3C9C
798C
7900
F900
F100
F100
F300
F210
7A30
3E60
0F80
0400
0400
ENDCHAR
STARTCHAR sterling
ENCODING 163
SWIDTH 560 0
DWIDTH 14 0
BBX 14 17 0 0
BITMAP
03F8
0F3C
1E1C
1E0C
1E00
1F00
0F00
0F80
0780
3FF0
0780
0780
0708
0E18
1FF8
7FF0
FFF0
ENDCHAR
STARTCHAR currency
ENCODING 164
SWIDTH 560 0
DWIDTH 14 0
BBX 12 12 1 3
BITMAP
CF30
FFF0
70E0
6060
C030
C030
C030
C030
6060
70E0
FFF0
CF30
ENDCHAR
STARTCHAR yen
ENCODING 165
SWIDTH 560 0
DWIDTH 14 0
BBX 14 17 0 0
BITMAP
FE3C
7C18
3C30
3C30
3C60
1E60
1EC0
1EC0
7FF0
0F00
0F00
7FC0
1E00
1E00
1E00
1E00
7F80
ENDCHAR
STARTCHAR brokenbar
ENCODING 166
SWIDTH 265 0
DWIDTH 7 0
BBX 3 17 2 0
BITMAP
E0
E0
E0
E0
E0
E0
E0
00
00
00
E0
E0
E0
E0
E0
E0
E0
ENDCHAR
STARTCHAR section
ENCODING 167
SWIDTH 568 0
DWIDTH 14 0
BBX 12 20 1 -3
BITMAP
03E0
0670
0C30
0C00
1E00
2F00
4780
C3C0
E1E0
F0E0
7860
3C60
1E60
0F40
0780
0300
0300
C300
E600
7C00
ENDCHAR
STARTCHAR dieresis
ENCODING 168
SWIDTH 400 0
DWIDTH 10 0
BBX 10 4 0 14
BITMAP
6180
F3C0
F3C0
6180
ENDCHAR
STARTCHAR copyright
ENCODING 169
SWIDTH 824 0
DWIDTH 20 0
BBX 18 17 1 0
BITMAP
03F000
0E1C00
180600
300300
63F180
671980
CE08C0
CE00C0
CE00C0
CE00C0
CE08C0
671980
63F180
300300
180600
0E1C00
03F000
ENDCHAR
STARTCHAR ordfeminine
ENCODING 170
SWIDTH 444 0
DWIDTH 11 0
BBX 10 8 1 8
BITMAP
1F80
7380
7380
E380
E700
E740
EF80
7300
ENDCHAR
STARTCHAR guillemotleft
ENCODING 171
SWIDTH 560 0
DWIDTH 14 0
BBX 11 9 1 2
BITMAP
0420
0840
18C0
3180
7380
E700
6300
3180
1080
ENDCHAR
STARTCHAR logicalnot
ENCODING 172
SWIDTH 600 0
DWIDTH 15 0
BBX 13 7 1 3
BITMAP
FFF8
FFF8
0038
0038
0038
0038
0038
ENDCHAR
STARTCHAR hyphen
ENCODING 173
SWIDTH 392 0
DWIDTH 10 0
BBX 8 2 1 5
BITMAP
7F
FE
ENDCHAR
STARTCHAR registered
ENCODING 174
SWIDTH 824 0
DWIDTH 20 0
BBX 18 17 1 0
BITMAP
03F000
0E1C00
180600
300300
67F180
631980
C318C0
C330C0
C3F0C0
C338C0
C318C0
631980
679D80
300300
180600
0E1C00
03F000
ENDCHAR
STARTCHAR macron
ENCODING 175
SWIDTH 400 0
DWIDTH 10 0
BBX 8 2 1 14
BITMAP
FF
FF
ENDCHAR
STARTCHAR degree
ENCODING 176
SWIDTH 375 0
DWIDTH 10 0
BBX 8 8 1 9
BITMAP
18
7E
66
C3
C3
66
7E
18
ENDCHAR
STARTCHAR plusminus
ENCODING 177
SWIDTH 600 0
DWIDTH 15 0
BBX 13 13 1 0
BITMAP
0700
0700
0700
0700
FFF8
FFF8
0700
0700
0700
0700
0000
FFF8
FFF8
ENDCHAR
STARTCHAR twosuperior
ENCODING 178
SWIDTH 402 0
DWIDTH 10 0
BBX 9 10 0 7
BITMAP
1F00
3B80
3380
0380
0700
0C00
3000
6100
FF00
FE00
ENDCHAR
STARTCHAR threesuperior
ENCODING 179
SWIDTH 402 0
DWIDTH 10 0
BBX 9 10 0 7
BITMAP
1F00
3B80
3380
0300
1E00
0600
0700
C700
EE00
7C00
ENDCHAR
STARTCHAR acute
ENCODING 180
SWIDTH 400 0
DWIDTH 10 0
BBX 6 5 2 14
BITMAP
08
1C
3C
70
C0
ENDCHAR
STARTCHAR mu
ENCODING 181
SWIDTH 634 0
DWIDTH 16 0
BBX 17 18 -1 -5
BITMAP
0F1F00
7F1F00
1F1F00
1F1F00
3E3E00
3E3E00
3E3E00
3E7E00
3E7E00
7CBC80
7D7D00
7E7E00
7C3C00
600000
E00000
E00000
E00000
400000
ENDCHAR
STARTCHAR paragraph
ENCODING 182
SWIDTH 580 0
DWIDTH 14 0
BBX 12 20 1 -3
BITMAP
0EF0
3CE0
7CC0
7CC0
FCC0
F980
F980
F980
7980
3980
0300
0300
0300
0300
0300
0600
0600
0600
0E00
1E00
ENDCHAR
STARTCHAR periodcentered
ENCODING 183
SWIDTH 280 0
DWIDTH 7 0
BBX 4 4 1 4
BITMAP
60
F0
F0
60
ENDCHAR
STARTCHAR cedilla
ENCODING 184
SWIDTH 400 0
DWIDTH 10 0
BBX 5 5 2 -5
BITMAP
20
70
18
18
F0
ENDCHAR
STARTCHAR onesuperior
ENCODING 185
SWIDTH 402 0
DWIDTH 10 0
BBX 7 10 1 7
BITMAP
0E
3E
0E
1C
1C
1C
38
38
38
FE
ENDCHAR
STARTCHAR ordmasculine
ENCODING 186
SWIDTH 412 0
DWIDTH 10 0
BBX 9 8 1 8
BITMAP
1F00
7380
7380
E380
E380
E700
E700
7C00
ENDCHAR
STARTCHAR guillemotright
ENCODING 187
SWIDTH 560 0
DWIDTH 14 0
BBX 11 9 1 2
BITMAP
2100
3180
18C0
1CE0
39C0
3180
6300
4200
8400
ENDCHAR
STARTCHAR onequarter
ENCODING 188
SWIDTH 940 0
DWIDTH 23 0
BBX 18 17 2 0
BITMAP
0E0100
3E0300
0E0600
1C0400
1C0800
1C1800
383000
382300
384700
FEC680
018D80
031B80
021380
042700
0C3FC0
180700
101FC0
ENDCHAR
STARTCHAR onehalf
ENCODING 189
SWIDTH 940 0
DWIDTH 23 0
BBX 19 17 2 0
BITMAP
0E0100
3E0300
0E0600
1C0400
1C0800
1C1800
383000
3827C0
384EE0
FECCE0
0180E0
0301C0
020300
040C00
0C1840
183FC0
103F80
ENDCHAR
STARTCHAR threequarters
ENCODING 190
SWIDTH 940 0
DWIDTH 23 0
BBX 19 17 1 0
BITMAP
1F0080
3B8180
338300
030200
1E0400
060C00
071800
C71180
EE2380
7C6340
00C6C0
018DC0
0109C0
021380
061FE0
0C0380
080FE0
ENDCHAR
STARTCHAR questiondown
ENCODING 191
SWIDTH 454 0
DWIDTH 11 0
BBX 10 17 0 -4
BITMAP
0180
03C0
03C0
0180
0000
0780
0FC0
03C0
0380
0700
1C00
7800
F000
F180
F3C0
7780
3E00
ENDCHAR
STARTCHAR Agrave
ENCODING 192
SWIDTH 634 0
DWIDTH 16 0
BBX 18 21 -2 0
BITMAP
002000
007000
007800
001C00
000600
000000
003C00
007C00
007C00
00BC00
01BE00
013E00
023E00
063E00
07FE00
081F00
181F00
101F00
201F00
601F80
F83FC0
ENDCHAR
STARTCHAR Aacute
ENCODING 193
SWIDTH 634 0
DWIDTH 16 0
BBX 18 21 -2 0
BITMAP
000400
000E00
001E00
003800
006000
000000
003C00
007C00
007C00
00BC00
01BE00
013E00
023E00
063E00
07FE00
081F00
181F00
101F00
201F00
601F80
F83FC0
ENDCHAR
STARTCHAR Acircumflex
ENCODING 194
SWIDTH 634 0
DWIDTH 16 0
BBX 18 20 -2 0
BITMAP
001800
003C00
006600
00C300
000000
003C00
007C00
007C00
00BC00
01BE00
013E00
023E00
063E00
07FE00
081F00
181F00
101F00
201F00
601F80
F83FC0
ENDCHAR
STARTCHAR Atilde
ENCODING 195
SWIDTH 634 0
DWIDTH 16 0
BBX 18 19 -2 0
BITMAP
007180
00FF00
018E00
000000
003C00
007C00
007C00
00BC00
01BE00
013E00
023E00
063E00
07FE00
081F00
181F00
101F00
201F00
601F80
F83FC0
ENDCHAR
STARTCHAR Adieresis
ENCODING 196
SWIDTH 634 0
DWIDTH 16 0
BBX 18 20 -2 0
BITMAP
00C300
01E780
01E780
00C300
000000
003C00
007C00
007C00
00BC00
01BE00
013E00
023E00
063E00
07FE00
081F00
181F00
101F00
201F00
601F80
F83FC0
ENDCHAR
STARTCHAR Aring
ENCODING 197
SWIDTH 634 0
DWIDTH 16 0
BBX 18 21 -2 0
BITMAP
003C00
006600
006600
006600
003C00
000000
003C00
007C00
007C00
00BC00
01BE00
013E00
023E00
063E00
07FE00
081F00
181F00
101F00
201F00
601F80
F83FC0
ENDCHAR
STARTCHAR AE
ENCODING 198
SWIDTH 890 0
DWIDTH 22 0
BBX 24 17 -2 0
BITMAP
007FFF
001FC7
002F82
006F82
004F80
008F84
019F0C
011FFC
021F08
061F08
07FF00
083E00
183E02
103E06
203E0E
607E1C
F0FFFC
ENDCHAR
STARTCHAR Ccedilla
ENCODING 199
SWIDTH 672 0
DWIDTH 17 0
BBX 16 22 0 -5
BITMAP
03FF
0F87
1F02
3E02
3E00
7C00
7C00
7C00
F800
F800
F800
F800
F804
780C
781C
3C38
0FE0
0100
0380
00C0
00C0
0780
ENDCHAR
STARTCHAR Egrave
ENCODING 200
SWIDTH 622 0
DWIDTH 16 0
BBX 16 21 -1 0
BITMAP
0080
01C0
01E0
0070
0018
0000
1FFF
0FC7
0F82
0F82
0F80
1F04
1F0C
1FFC
1F08
1F08
3E02
3E06
3E0E
7E1C
FFFC
ENDCHAR
STARTCHAR Eacute
ENCODING 201
SWIDTH 622 0
DWIDTH 16 0
BBX 16 21 -1 0
BITMAP
0010
0038
0078
00E0
0180
0000
1FFF
0FC7
0F82
0F82
0F80
1F04
1F0C
1FFC
1F08
1F08
3E02
3E06
3E0E
7E1C
FFFC
ENDCHAR
STARTCHAR Ecircumflex
ENCODING 202
SWIDTH 622 0
DWIDTH 16 0
BBX 16 20 -1 0
BITMAP
0060
00F0
0198
030C
0000
1FFF
0FC7
0F82
0F82
0F80
1F04
1F0C
1FFC
1F08
1F08
3E02
3E06
3E0E
7E1C
FFFC
ENDCHAR
STARTCHAR Edieresis
ENCODING 203
SWIDTH 622 0
DWIDTH 16 0
BBX 16 20 -1 0
BITMAP
030C
079E
079E
030C
0000
1FFF
0FC7
0F82
0F82
0F80
1F04
1F0C
1FFC
1F08
1F08
3E02
3E06
3E0E
7E1C
FFFC
ENDCHAR
STARTCHAR Igrave
ENCODING 204
SWIDTH 386 0
DWIDTH 10 0
BBX 11 21 -1 0
BITMAP
0400
0E00
0F00
0380
00C0
0000
1FE0
0FC0
0F80
0F80
0F80
1F00
1F00
1F00
1F00
1F00
3E00
3E00
3E00
7E00
FF00
ENDCHAR
STARTCHAR Iacute
ENCODING 205
SWIDTH 386 0
DWIDTH 10 0
BBX 11 21 -1 0
BITMAP
0040
00E0
01E0
0380
0600
0000
1FE0
0FC0
0F80
0F80
0F80
1F00
1F00
1F00
1F00
1F00
3E00
3E00
3E00
7E00
FF00
ENDCHAR
STARTCHAR Icircumflex
ENCODING 206
SWIDTH 386 0
DWIDTH 10 0
BBX 11 20 -1 0
BITMAP
0300
0780
0CC0
1860
0000
1FE0
0FC0
0F80
0F80
0F80
1F00
1F00
1F00
1F00
1F00
3E00
3E00
3E00
7E00
FF00
ENDCHAR
STARTCHAR Idieresis
ENCODING 207
SWIDTH 386 0
DWIDTH 10 0
BBX 12 20 -1 0
BITMAP
1860
3CF0
3CF0
1860
0000
1FE0
0FC0
0F80
0F80
0F80
1F00
1F00
1F00
1F00
1F00
3E00
3E00
3E00
7E00
FF00
ENDCHAR
STARTCHAR Eth
ENCODING 208
SWIDTH 780 0
DWIDTH 20 0
BBX 20 17 -1 0
BITMAP
1FFF00
0FC3C0
0F81E0
0F81E0
0F81F0
0F81F0
1F01F0
7FC1F0
1F01F0
1F03E0
1F03E0
3E03E0
3E07C0
3E07C0
3E0F80
7E1F00
FFFC00
ENDCHAR
STARTCHAR Ntilde
ENCODING 209
SWIDTH 741 0
DWIDTH 19 0
BBX 20 19 -1 0
BITMAP
007180
00FF00
018E00
000000
3FC1F0
0FC0E0
0FE0C0
0FE0C0
0FF0C0
19F180
19F980
18F980
18FD80
187D80
307F00
303F00
303F00
701F00
F81F00
ENDCHAR
STARTCHAR Ograve
ENCODING 210
SWIDTH 761 0
DWIDTH 19 0
BBX 18 21 0 0
BITMAP
008000
01C000
01E000
007000
001800
000000
03FC00
0F8F00
1F0780
3E0780
3E07C0
7C07C0
7C07C0
F807C0
F80F80
F80F80
F81F00
781F00
783E00
3C7C00
0FF000
ENDCHAR
STARTCHAR Oacute
ENCODING 211
SWIDTH 761 0
DWIDTH 19 0
BBX 18 21 0 0
BITMAP
000800
001C00
003C00
007000
00C000
000000
03FC00
0F8F00
1F0780
3E0780
3E07C0
7C07C0
7C07C0
F807C0
F80F80
F80F80
F81F00
781F00
783E00
3C7C00
0FF000
ENDCHAR
STARTCHAR Ocircumflex
ENCODING 212
SWIDTH 761 0
DWIDTH 19 0
BBX 18 20 0 0
BITMAP
006000
00F000
019800
030C00
000000
03FC00
0F8F00
1F0780
3E0780
3E07C0
7C07C0
7C07C0
F807C0
F80F80
F80F80
F81F00
781F00
783E00
3C7C00
0FF000
ENDCHAR
STARTCHAR Otilde
ENCODING 213
SWIDTH 761 0
DWIDTH 19 0
BBX 18 19 0 0
BITMAP
01C600
03FC00
063800
000000
03FC00
0F8F00
1F0780
3E0780
3E07C0
7C07C0
7C07C0
F807C0
F80F80
F80F80
F81F00
781F00
783E00
3C7C00
0FF000
ENDCHAR
STARTCHAR Odieresis
ENCODING 214
SWIDTH 761 0
DWIDTH 19 0
BBX 18 20 0 0
BITMAP
018600
03CF00
03CF00
018600
000000
03FC00
0F8F00
1F0780
3E0780
3E07C0
7C07C0
7C07C0
F807C0
F80F80
F80F80
F81F00
781F00
783E00
3C7C00
0FF000
ENDCHAR
STARTCHAR multiply
ENCODING 215
SWIDTH 600 0
DWIDTH 15 0
BBX 11 11 2 1
BITMAP
4040
E0E0
71C0
3B80
1F00
0E00
1F00
3B80
71C0
E0E0
4040
ENDCHAR
STARTCHAR Oslash
ENCODING 216
SWIDTH 761 0
DWIDTH 19 0
BBX 18 19 0 -1
BITMAP
000080
03FD80
0F8F00
1F0780
3E0F80
3E1FC0
7C37C0
7C27C0
7C47C0
F8C7C0
F98F80
F90F80
FA0F80
FE1F00
7C1F00
783E00
3C7C00
6FF000
400000
ENDCHAR
STARTCHAR Ugrave
ENCODING 217
SWIDTH 776 0
DWIDTH 20 0
BBX 19 21 1 0
BITMAP
010000
038000
03C000
00E000
003000
000000
7F9FE0
3F0FC0
3E0F80
3E0F80
3E0F80
7C1F00
7C1F00
7C1F00
7C1F00
F83E00
F83E00
F83E00
F83C00
7C7800
1FE000
ENDCHAR
STARTCHAR Uacute
ENCODING 218
SWIDTH 776 0
DWIDTH 20 0
BBX 19 21 1 0
BITMAP
000800
001C00
003C00
007000
00C000
000000
7F9FE0
3F0FC0
3E0F80
3E0F80
3E0F80
7C1F00
7C1F00
7C1F00
7C1F00
F83E00
F83E00
F83E00
F83C00
7C7800
1FE000
ENDCHAR
STARTCHAR Ucircumflex
ENCODING 219
SWIDTH 776 0
DWIDTH 20 0
BBX 19 20 1 0
BITMAP
006000
00F000
019800
030C00
000000
7F9FE0
3F0FC0
3E0F80
3E0F80
3E0F80
7C1F00
7C1F00
7C1F00
7C1F00
F83E00
F83E00
F83E00
F83C00
7C7800
1FE000
ENDCHAR
STARTCHAR Udieresis
ENCODING 220
SWIDTH 776 0
DWIDTH 20 0
BBX 19 20 1 0
BITMAP
030C00
079E00
079E00
030C00
000000
7F9FE0
3F0FC0
3E0F80
3E0F80
3E0F80
7C1F00
7C1F00
7C1F00
7C1F00
F83E00
F83E00
F83E00
F83C00
7C7800
1FE000
ENDCHAR
STARTCHAR Yacute
ENCODING 221
SWIDTH 622 0
DWIDTH 16 0
BBX 16 21 1 0
BITMAP
0008
001C
003C
0070
00C0
0000
FE1F
7C0E
7C0C
7C18
3E30
3E60
3EC0
1F80
1F00
1F00
3E00
3E00
3E00
7E00
FF00
ENDCHAR
STARTCHAR Thorn
ENCODING 222
SWIDTH 629 0
DWIDTH 16 0
BBX 16 17 -1 0
BITMAP
1FE0
0FC0
0F80
0FFC
0F9E
1F1F
1F1F
1F1F
1F1F
1F1F
1F3E
3E3C
3FF0
3E00
3E00
7E00
FF00
ENDCHAR
STARTCHAR germandbls
ENCODING 223
SWIDTH 628 0
DWIDTH 16 0
BBX 21 24 -4 -5
BITMAP
000FE0
003C70
007838
00F038
01F038
01F030
0FE0E0
03E380
03E700
03EF00
03EF80
07CFC0
07C7E0
07C3F0
07C1F0
07C0F0
0F98F0
0F9CE0
0F8F80
0F8000
0F8000
CF0000
EE0000
7C0000
ENDCHAR
STARTCHAR agrave
ENCODING 224
SWIDTH 596 0
DWIDTH 15 0
BBX 15 19 0 0
BITMAP
0200
0700
0780
01C0
0060
0000
07FC
1E7C
3C7C
3C7C
7CF8
78F8
F8F8
F8F8
F9F0
F9F2
FBF4
7DF8
38F0
ENDCHAR
STARTCHAR aacute
ENCODING 225
SWIDTH 596 0
DWIDTH 15 0
BBX 15 19 0 0
BITMAP
0008
001C
003C
0070
00C0
0000
07FC
1E7C
3C7C
3C7C
7CF8
78F8
F8F8
F8F8
F9F0
F9F2
FBF4
7DF8
38F0
ENDCHAR
STARTCHAR acircumflex
ENCODING 226
SWIDTH 596 0
DWIDTH 15 0
BBX 15 18 0 0
BITMAP
00C0
01E0
0330
0618
0000
07FC
1E7C
3C7C
3C7C
7CF8
78F8
F8F8
F8F8
F9F0
F9F2
FBF4
7DF8
38F0
ENDCHAR
STARTCHAR atilde
ENCODING 227
SWIDTH 596 0
DWIDTH 15 0
BBX 15 17 0 0
BITMAP
038C
07F8
0C70
0000
07FC
1E7C
3C7C
3C7C
7CF8
78F8
F8F8
F8F8
F9F0
F9F2
FBF4
7DF8
38F0
ENDCHAR
STARTCHAR adieresis
ENCODING 228
SWIDTH 596 0
DWIDTH 15 0
BBX 15 18 0 0
BITMAP
0618
0F3C
0F3C
0618
0000
07FC
1E7C
3C7C
3C7C
7CF8
78F8
F8F8
F8F8
F9F0
F9F2
FBF4
7DF8
38F0
ENDCHAR
STARTCHAR aring
ENCODING 229
SWIDTH 596 0
DWIDTH 15 0
BBX 15 19 0 0
BITMAP
00F0
0198
0198
0198
00F0
0000
07FC
1E7C
3C7C
3C7C
7CF8
78F8
F8F8
F8F8
F9F0
F9F2
FBF4
7DF8
38F0
ENDCHAR
STARTCHAR ae
ENCODING 230
SWIDTH 789 0
DWIDTH 20 0
BBX 20 14 0 0
BITMAP
000400
07FDE0
1E7EF0
3C7CF0
3C7CF0
7CFDE0
78F9C0
F8FB80
F8FE00
F9F800
F9F820
FAF860
7C7CC0
383F00
ENDCHAR
STARTCHAR ccedilla
ENCODING 231
SWIDTH 456 0
DWIDTH 12 0
BBX 11 18 1 -5
BITMAP
07C0
1EE0
3CE0
7C40
7800
F800
F800
F000
F000
F040
F0C0
7180
3E00
0400
0E00
0300
0300
1E00
ENDCHAR
STARTCHAR egrave
ENCODING 232
SWIDTH 476 0
DWIDTH 12 0
BBX 12 19 0 0
BITMAP
0800
1C00
1E00
0700
0180
0000
07E0
1EF0
3CF0
7CF0
7DE0
F9C0
FB80
FE00
F800
F820
F860
7CC0
3F00
ENDCHAR
STARTCHAR eacute
ENCODING 233
SWIDTH 476 0
DWIDTH 12 0
BBX 12 19 0 0
BITMAP
0040
00E0
01E0
0380
0600
0000
07E0
1EF0
3CF0
7CF0
7DE0
F9C0
FB80
FE00
F800
F820
F860
7CC0
3F00
ENDCHAR
STARTCHAR ecircumflex
ENCODING 234
SWIDTH 476 0
DWIDTH 12 0
BBX 12 18 0 0
BITMAP
0300
0780
0CC0
1860
0000
07E0
1EF0
3CF0
7CF0
7DE0
F9C0
FB80
FE00
F800
F820
F860
7CC0
3F00
ENDCHAR
STARTCHAR edieresis
ENCODING 235
SWIDTH 476 0
DWIDTH 12 0
BBX 12 18 0 0
BITMAP
1860
3CF0
3CF0
1860
0000
07E0
1EF0
3CF0
7CF0
7DE0
F9C0
FB80
FE00
F800
F820
F860
7CC0
3F00
ENDCHAR
STARTCHAR igrave
ENCODING 236
SWIDTH 339 0
DWIDTH 8 0
BBX 8 19 0 0
BITMAP
20
70
78
1C
06
00
1E
FE
3E
3E
3C
7C
7C
7C
78
F9
FA
FC
78
ENDCHAR
STARTCHAR iacute
ENCODING 237
SWIDTH 339 0
DWIDTH 8 0
BBX 9 19 0 0
BITMAP
0100
0380
0780
0E00
1800
0000
1E00
FE00
3E00
3E00
3C00
7C00
7C00
7C00
7800
F900
FA00
FC00
7800
ENDCHAR
STARTCHAR icircumflex
ENCODING 238
SWIDTH 339 0
DWIDTH 9 0
BBX 8 18 1 0
BITMAP
18
3C
66
C3
00
1C
FC
3C
3C
78
78
78
78
F0
F2
F4
F8
70
ENDCHAR
STARTCHAR idieresis
ENCODING 239
SWIDTH 339 0
DWIDTH 8 0
BBX 10 18 0 0
BITMAP
6180
F3C0
F3C0
6180
0000
1E00
FE00
3E00
3E00
3C00
7C00
7C00
7C00
7800
F900
FA00
FC00
7800
ENDCHAR
STARTCHAR eth
ENCODING 240
SWIDTH 562 0
DWIDTH 14 0
BBX 14 19 0 0
BITMAP
0730
03E0
01C0
03E0
06F0
0078
07F8
1EFC
3C7C
7C7C
7C7C
F87C
F87C
F87C
F8F8
F8F8
F8F0
7DE0
3F80
ENDCHAR
STARTCHAR ntilde
ENCODING 241
SWIDTH 635 0
DWIDTH 16 0
BBX 16 17 0 0
BITMAP
038C
07F8
0C70
0000
1E3C
FE7E
3EBE
3D3E
3E3E
7E7C
7C7C
7C7C
7C7C
F8F9
F8FA
F8FC
F878
ENDCHAR
STARTCHAR ograve
ENCODING 242
SWIDTH 562 0
DWIDTH 14 0
BBX 14 19 0 0
BITMAP
0200
0700
0780
01C0
0060
0000
07F0
1EF8
3C7C
7C7C
7C7C
F87C
F87C
F87C
F8F8
F8F8
F8F0
7DE0
3F80
ENDCHAR
STARTCHAR oacute
ENCODING 243
SWIDTH 562 0
DWIDTH 14 0
BBX 14 19 0 0
BITMAP
0020
0070
00F0
01C0
0300
0000
07F0
1EF8
3C7C
7C7C
7C7C
F87C
F87C
F87C
F8F8
F8F8
F8F0
7DE0
3F80
ENDCHAR
STARTCHAR ocircumflex
ENCODING 244
SWIDTH 562 0
DWIDTH 14 0
BBX 14 18 0 0
BITMAP
0180
03C0
0660
0C30
0000
07F0
1EF8
3C7C
7C7C
7C7C
F87C
F87C
F87C
F8F8
F8F8
F8F0
7DE0
3F80
ENDCHAR
STARTCHAR otilde
ENCODING 245
SWIDTH 562 0
DWIDTH 14 0
BBX 14 17 0 0
BITMAP
038C
07F8
0C70
0000
07F0
1EF8
3C7C
7C7C
7C7C
F87C
F87C
F87C
F8F8
F8F8
F8F0
7DE0
3F80
ENDCHAR
STARTCHAR odieresis
ENCODING 246
SWIDTH 562 0
DWIDTH 14 0
BBX 14 18 0 0
BITMAP
0C30
1E78
1E78
0C30
0000
07F0
1EF8
3C7C
7C7C
7C7C
F87C
F87C
F87C
F8F8
F8F8
F8F0
7DE0
3F80
ENDCHAR
STARTCHAR divide
ENCODING 247
SWIDTH 600 0
DWIDTH 15 0
BBX 13 12 1 0
BITMAP
0700
0700
0700
0000
0000
FFF8
FFF8
0000
0000
0700
0700
0700
ENDCHAR
STARTCHAR oslash
ENCODING 248
SWIDTH 562 0
DWIDTH 14 0
BBX 14 13 0 0
BITMAP
07F4
1EF8
3C7C
7C7C
7CFC
F97C
F97C
FA7C
FCF8
F8F8
F8F0
7DE0
BF80
ENDCHAR
STARTCHAR ugrave
ENCODING 249
SWIDTH 634 0
DWIDTH 16 0
BBX 16 19 0 0
BITMAP
0200
0700
0780
01C0
0060
0000
1E3E
FE3E
3E3E
3E3E
7C7C
7C7C
7C7C
7CFC
7CFC
F979
FAFA
FCFC
7878
ENDCHAR
STARTCHAR uacute
ENCODING 250
SWIDTH 634 0
DWIDTH 16 0
BBX 16 19 0 0
BITMAP
0010
0038
0078
00E0
0180
0000
1E3E
FE3E
3E3E
3E3E
7C7C
7C7C
7C7C
7CFC
7CFC
F979
FAFA
FCFC
7878
ENDCHAR
STARTCHAR ucircumflex
ENCODING 251
SWIDTH 634 0
DWIDTH 16 0
BBX 16 18 0 0
BITMAP
00C0
01E0
0330
0618
0000
1E3E
FE3E
3E3E
3E3E
7C7C
7C7C
7C7C
7CFC
7CFC
F979
FAFA
FCFC
7878
ENDCHAR
STARTCHAR udieresis
ENCODING 252
SWIDTH 634 0
DWIDTH 16 0
BBX 16 18 0 0
BITMAP
0618
0F3C
0F3C
0618
0000
1E3E
FE3E
3E3E
3E3E
7C7C
7C7C
7C7C
7CFC
7CFC
F979
FAFA
FCFC
7878
ENDCHAR
STARTCHAR yacute
ENCODING 253
SWIDTH 489 0
DWIDTH 12 0
BBX 15 24 -3 -5
BITMAP
0008
001C
003C
0070
00C0
0000
078E
3F9E
0F8E
0F8E
0F8E
0F8C
07CC
07C8
07D0
07D0
07E0
07C0
0780
0780
6700
F600
F400
7800
ENDCHAR
STARTCHAR thorn
ENCODING 254
SWIDTH 600 0
DWIDTH 15 0
BBX 15 24 -1 -5
BITMAP
0780
3F80
0F80
0F80
0F80
1F00
1F38
1F7C
1FBE
1F3E
3E3E
3E3E
3E3E
3E3C
3E7C
7C78
7C78
7EF0
7FC0
7C00
F800
F800
F800
F800
ENDCHAR
STARTCHAR ydieresis
ENCODING 255
SWIDTH 489 0
DWIDTH 12 0
BBX 15 23 -3 -5
BITMAP
030C
079E
079E
030C
0000
078E
3F9E
0F8E
0F8E
0F8E
0F8C
07CC
07C8
07D0
07D0
07E0
07C0
0780
0780
6700
F600
F400
7800
ENDCHAR
STARTCHAR Amacron
ENCODING 256
SWIDTH 634 0
DWIDTH 16 0
BBX 18 20 -2 0
BITMAP
03FC00
03FC00
000000
007C00
007C00
00FC00
00FC00
01FC00
013E00
033E00
023E00
063E00
043E00
0FFE00
081F00
181F00
101F00
301F00
701F80
F83FC0
ENDCHAR
STARTCHAR amacron
ENCODING 257
SWIDTH 596 0
DWIDTH 15 0
BBX 15 16 0 0
BITMAP
0FF0
0FF0
0000
07FC
1E7C
3C7C
3C7C
7CF8
78F8
F8F8
F8F8
F9F0
F9F2
FBF4
7DF8
38F0
ENDCHAR
STARTCHAR Abreve
ENCODING 258
SWIDTH 634 0
DWIDTH 16 0
BBX 18 22 -2 0
BITMAP
020400
030C00
01F800
00F000
000000
007C00
007C00
00FC00
00FC00
01FC00
013E00
033E00
023E00
063E00
043E00
0FFE00
081F00
181F00
101F00
301F00
701F80
F83FC0
ENDCHAR
STARTCHAR abreve
ENCODING 259
SWIDTH 596 0
DWIDTH 15 0
BBX 15 18 0 0
BITMAP
0810
0C30
07E0
03C0
0000
07FC
1E7C
3C7C
3C7C
7CF8
78F8
F8F8
F8F8
F9F0
F9F2
FBF4
7DF8
38F0
ENDCHAR
STARTCHAR Aogonek
ENCODING 260
SWIDTH 634 0
DWIDTH 16 0
BBX 18 22 -2 -5
BITMAP
007C00
007C00
00FC00
00FC00
01FC00
013E00
033E00
023E00
063E00
043E00
0FFE00
081F00
181F00
101F00
301F00
701F80
F83FC0
006000
00C000
018000
019000
00E000
ENDCHAR
STARTCHAR aogonek
ENCODING 261
SWIDTH 596 0
DWIDTH 15 0
BBX 15 18 0 -5
BITMAP
07FC
1E7C
3C7C
3C7C
7CF8
78F8
F8F8
F8F8
F9F0
F9F2
FBF4
7DF8
38F0
0180
0300
0600
0640
0380
ENDCHAR
STARTCHAR Cacute
ENCODING 262
SWIDTH 672 0
DWIDTH 17 0
BBX 16 23 0 0
BITMAP
0020
0070
00F0
01C0
0300
0000
03FF
0F87
1F02
3E02
3E00
7C00
7C00
7C00
F800
F800
F800
F800
F804
780C
781C
3C38
0FE0
ENDCHAR
STARTCHAR cacute
ENCODING 263
SWIDTH 456 0
DWIDTH 12 0
BBX 12 19 0 0
BITMAP
0080
01C0
03C0
0700
0C00
0000
07E0
1E70
3C70
7C20
7C00
F800
F800
F800
F800
F820
F860
7CC0
3F00
ENDCHAR
STARTCHAR Ccircumflex
ENCODING 264
SWIDTH 672 0
DWIDTH 17 0
BBX 16 22 0 0
BITMAP
0180
03C0
0660
0C30
0000
03FF
0F87
1F02
3E02
3E00
7C00
7C00
7C00
F800
F800
F800
F800
F804
780C
781C
3C38
0FE0
ENDCHAR
STARTCHAR ccircumflex
ENCODING 265
SWIDTH 456 0
DWIDTH 12 0
BBX 12 18 0 0
BITMAP
0600
0F00
1980
30C0
0000
07E0
1E70
3C70
7C20
7C00
F800
F800
F800
F800
F820
F860
7CC0
3F00
ENDCHAR
STARTCHAR Cdotaccent
ENCODING 266
SWIDTH 672 0
DWIDTH 17 0
BBX 16 22 0 0
BITMAP
0180
03C0
03C0
0180
0000
03FF
0F87
1F02
3E02
3E00
7C00
7C00
7C00
F800
F800
F800
F800
F804
780C
781C
3C38
0FE0
ENDCHAR
STARTCHAR cdotaccent
ENCODING 267
SWIDTH 456 0
DWIDTH 12 0
BBX 12 18 0 0
BITMAP
0600
0F00
0F00
0600
0000
07E0
1E70
3C70
7C20
7C00
F800
F800
F800
F800
F820
F860
7CC0
3F00
ENDCHAR
STARTCHAR Ccaron
ENCODING 268
SWIDTH 672 0
DWIDTH 17 0
BBX 16 22 0 0
BITMAP
0C30
0660
03C0
0180
0000
03FF
0F87
1F02
3E02
3E00
7C00
7C00
7C00
F800
F800
F800
F800
F804
780C
781C
3C38
0FE0
ENDCHAR
STARTCHAR ccaron
ENCODING 269
SWIDTH 456 0
DWIDTH 12 0
BBX 12 18 0 0
BITMAP
30C0
1980
0F00
0600
0000
07E0
1E70
3C70
7C20
7C00
F800
F800
F800
F800
F820
F860
7CC0
3F00
ENDCHAR
STARTCHAR Dcaron
ENCODING 270
SWIDTH 774 0
DWIDTH 20 0
BBX 20 22 -1 0
BITMAP
018600
00CC00
007800
003000
000000
1FFF00
0FC3C0
0F81E0
0F81E0
0F81F0
0F81F0
1F01F0
1F01F0
1F01F0
1F03E0
1F03E0
3E03E0
3E07C0
3E07C0
3E0F80
7E1F00
FFFC00
ENDCHAR
STARTCHAR dcaron
ENCODING 271
SWIDTH 825 0
DWIDTH 20 0
BBX 19 19 0 0
BITMAP
001E00
00FE00
003EC0
003FE0
003FE0
007CE0
07FCC0
1E7CC0
3C7D80
3C7F00
7CFA00
78F800
F8F800
F8F800
F9F000
F9F200
FBF400
7DF800
38F000
ENDCHAR
STARTCHAR Dcroat
ENCODING 272
SWIDTH 780 0
DWIDTH 20 0
BBX 20 17 -1 0
BITMAP
1FFF00
0FC3C0
0F81E0
0F81E0
0F81F0
0F81F0
1F01F0
7FC1F0
1F01F0
1F03E0
1F03E0
3E03E0
3E07C0
3E07C0
3E0F80
7E1F00
FFFC00
ENDCHAR
STARTCHAR dcroat
ENCODING 273
SWIDTH 609 0
DWIDTH 15 0
BBX 17 19 0 0
BITMAP
001E00
00FE00
003E00
003E00
003E00
03FF80
07FC00
1E7C00
3C7C00
3C7C00
7CF800
78F800
F8F800
F8F800
F9F000
F9F200
FBF400
7DF800
38F000
ENDCHAR
STARTCHAR Emacron
ENCODING 274
SWIDTH 622 0
DWIDTH 16 0
BBX 16 20 -1 0
BITMAP
0FF0
0FF0
0000
1FFF
0FC7
0F82
0F82
0F80
0F84
1F0C
1FFC
1F08
1F08
1F00
3E00
3E02
3E06
3E0E
7E1C
FFFC
ENDCHAR
STARTCHAR emacron
ENCODING 275
SWIDTH 476 0
DWIDTH 12 0
BBX 12 16 0 0
BITMAP
1FE0
1FE0
0000
07E0
1EF0
3CF0
7CF0
7DE0
F9C0
FB80
FE00
F800
F820
F860
7CC0
3F00
ENDCHAR
STARTCHAR Ebreve
ENCODING 276
SWIDTH 622 0
DWIDTH 16 0
BBX 16 22 -1 0
BITMAP
0810
0C30
07E0
03C0
0000
1FFF
0FC7
0F82
0F82
0F80
0F84
1F0C
1FFC
1F08
1F08
1F00
3E00
3E02
3E06
3E0E
7E1C
FFFC
ENDCHAR
STARTCHAR ebreve
ENCODING 277
SWIDTH 476 0
DWIDTH 12 0
BBX 12 18 0 0
BITMAP
1020
1860
0FC0
0780
0000
07E0
1EF0
3CF0
7CF0
7DE0
F9C0
FB80
FE00
F800
F820
F860
7CC0
3F00
ENDCHAR
STARTCHAR Edotaccent
ENCODING 278
SWIDTH 622 0
DWIDTH 16 0
BBX 16 22 -1 0
BITMAP
0180
03C0
03C0
0180
0000
1FFF
0FC7
0F82
0F82
0F80
0F84
1F0C
1FFC
1F08
1F08
1F00
3E00
3E02
3E06
3E0E
7E1C
FFFC
ENDCHAR
STARTCHAR edotaccent
ENCODING 279
SWIDTH 476 0
DWIDTH 12 0
BBX 12 18 0 0
BITMAP
0300
0780
0780
0300
0000
07E0
1EF0
3CF0
7CF0
7DE0
F9C0
FB80
FE00
F800
F820
F860
7CC0
3F00
ENDCHAR
STARTCHAR Eogonek
ENCODING 280
SWIDTH 622 0
DWIDTH 16 0
BBX 16 22 -1 -5
BITMAP
1FFF
0FC7
0F82
0F82
0F80
0F84
1F0C
1FFC
1F08
1F08
1F00
3E00
3E02
3E06
3E0E
7E1C
FFFC
0180
0300
0600
0640
0380
ENDCHAR
STARTCHAR eogonek
ENCODING 281
SWIDTH 476 0
DWIDTH 12 0
BBX 12 18 0 -5
BITMAP
07E0
1EF0
3CF0
7CF0
7DE0
F9C0
FB80
FE00
F800
F820
F860
7CC0
3F00
0600
0C00
1800
1900
0E00
ENDCHAR
STARTCHAR Ecaron
ENCODING 282
SWIDTH 622 0
DWIDTH 16 0
BBX 16 22 -1 0
BITMAP
0C30
0660
03C0
0180
0000
1FFF
0FC7
0F82
0F82
0F80
0F84
1F0C
1FFC
1F08
1F08
1F00
3E00
3E02
3E06
3E0E
7E1C
FFFC
ENDCHAR
STARTCHAR ecaron
ENCODING 283
SWIDTH 476 0
DWIDTH 12 0
BBX 12 18 0 0
BITMAP
1860
0CC0
0780
0300
0000
07E0
1EF0
3CF0
7CF0
7DE0
F9C0
FB80
FE00
F800
F820
F860
7CC0
3F00
ENDCHAR
STARTCHAR Gcircumflex
ENCODING 284
SWIDTH 726 0
DWIDTH 18 0
BBX 17 22 0 0
BITMAP
018000
03C000
066000
0C3000
000000
03FF00
0F8700
1F0200
3E0200
3E0000
7C0000
7C0000
7C0000
F80000
F80000
F8FF80
F83E00
F83E00
783E00
783E00
3C7C00
0FF000
ENDCHAR
STARTCHAR gcircumflex
ENCODING 285
SWIDTH 522 0
DWIDTH 13 0
BBX 16 23 -2 -5
BITMAP
00C0
01E0
0330
0618
0000
03F9
0F3F
1E3C
3E3C
3E3C
3E3C
1E78
07E0
1E00
3F80
1FE0
0FF8
1FFC
78FC
F03C
F038
7870
1FC0
ENDCHAR
STARTCHAR Gbreve
ENCODING 286
SWIDTH 726 0
DWIDTH 18 0
BBX 17 22 0 0
BITMAP
081000
0C3000
07E000
03C000
000000
03FF00
0F8700
1F0200
3E0200
3E0000
7C0000
7C0000
7C0000
F80000
F80000
F8FF80
F83E00
F83E00
783E00
783E00
3C7C00
0FF000
ENDCHAR
STARTCHAR gbreve
ENCODING 287
SWIDTH 522 0
DWIDTH 13 0
BBX 16 23 -2 -5
BITMAP
0408
0618
03F0
01E0
0000
03F9
0F3F
1E3C
3E3C
3E3C
3E3C
1E78
07E0
1E00
3F80
1FE0
0FF8
1FFC
78FC
F03C
F038
7870
1FC0
ENDCHAR
STARTCHAR Gdotaccent
ENCODING 288
SWIDTH 726 0
DWIDTH 18 0
BBX 17 22 0 0
BITMAP
018000
03C000
03C000
018000
000000
03FF00
0F8700
1F0200
3E0200
3E0000
7C0000
7C0000
7C0000
F80000
F80000
F8FF80
F83E00
F83E00
783E00
783E00
3C7C00
0FF000
ENDCHAR
STARTCHAR gdotaccent
ENCODING 289
SWIDTH 522 0
DWIDTH 13 0
BBX 16 23 -2 -5
BITMAP
00C0
01E0
01E0
00C0
0000
03F9
0F3F
1E3C
3E3C
3E3C
3E3C
1E78
07E0
1E00
3F80
1FE0
0FF8
1FFC
78FC
F03C
F038
7870
1FC0
ENDCHAR
STARTCHAR Gcommaaccent
ENCODING 290
SWIDTH 726 0
DWIDTH 18 0
BBX 17 27 0 -10
BITMAP
03FF00
0F8700
1F0200
3E0200
3E0000
7C0000
7C0000
7C0000
F80000
F80000
F8FF80
F83E00
F83E00
783E00
783E00
3C7C00
0FF000
000000
018000
03C000
03C000
01C000
018000
018000
030000
060000
040000
ENDCHAR
STARTCHAR gcommaaccent
ENCODING 291
SWIDTH 522 0
DWIDTH 13 0
BBX 16 28 -2 -5
BITMAP
0020
0060
00C0
0180
0180
0380
03C0
03C0
0180
0000
03F9
0F3F
1E3C
3E3C
3E3C
3E3C
1E78
07E0
1E00
3F80
1FE0
0FF8
1FFC
78FC
F03C
F038
7870
1FC0
ENDCHAR
STARTCHAR Hcircumflex
ENCODING 292
SWIDTH 800 0
DWIDTH 20 0
BBX 21 22 -1 0
BITMAP
003000
007800
00CC00
018600
000000
1FE7F8
0FC3F0
0F83E0
0F83E0
0F83E0
1F07C0
1F07C0
1F07C0
1FFFC0
1F07C0
1F07C0
3E0F80
3E0F80
3E0F80
3E0F80
7E1F80
FF3FC0
ENDCHAR
STARTCHAR hcircumflex
ENCODING 293
SWIDTH 629 0
DWIDTH 16 0
BBX 16 24 0 0
BITMAP
0600
0F00
1980
30C0
0000
0F00
7F00
1F00
1F00
1F00
3E00
3E3C
3E7E
3EBE
3D3E
7E7C
7E7C
7C7C
7C7C
7C7C
F8F9
F8FA
F8FC
F878
ENDCHAR
STARTCHAR Hbar
ENCODING 294
SWIDTH 800 0
DWIDTH 20 0
BBX 21 17 -1 0
BITMAP
1FE7F8
0FC3F0
0F83E0
0F83E0
FFFFF8
1F07C0
1F07C0
1F07C0
1FFFC0
1F07C0
1F07C0
3E0F80
3E0F80
3E0F80
3E0F80
7E1F80
FF3FC0
ENDCHAR
STARTCHAR hbar
ENCODING 295
SWIDTH 629 0
DWIDTH 16 0
BBX 17 19 -1 0
BITMAP
078000
3F8000
0F8000
0F8000
0F8000
FFE000
1F1E00
1F3F00
1F5F00
1E9F00
3F3E00
3F3E00
3E3E00
3E3E00
3E3E00
7C7C80
7C7D00
7C7E00
7C3C00
ENDCHAR
STARTCHAR Itilde
ENCODING 296
SWIDTH 386 0
DWIDTH 10 0
BBX 12 21 -1 0
BITMAP
0E30
1FE0
31C0
0000
1FE0
0FC0
0F80
0F80
0F80
1F00
1F00
1F00
1F00
1F00
1F00
3E00
3E00
3E00
3E00
7E00
FF00
ENDCHAR
STARTCHAR itilde
ENCODING 297
SWIDTH 339 0
DWIDTH 8 0
BBX 10 17 0 0
BITMAP
38C0
7F80
C700
0000
1E00
FE00
3E00
3E00
3C00
7C00
7C00
7C00
7800
F900
FA00
FC00
7800
ENDCHAR
STARTCHAR Imacron
ENCODING 298
SWIDTH 386 0
DWIDTH 10 0
BBX 11 20 -1 0
BITMAP
3FC0
3FC0
0000
1FE0
0FC0
0F80
0F80
0F80
1F00
1F00
1F00
1F00
1F00
1F00
3E00
3E00
3E00
3E00
7E00
FF00
ENDCHAR
STARTCHAR imacron
ENCODING 299
SWIDTH 339 0
DWIDTH 8 0
BBX 8 16 0 0
BITMAP
FF
FF
00
1E
FE
3E
3E
3C
7C
7C
7C
78
F9
FA
FC
78
ENDCHAR
STARTCHAR Ibreve
ENCODING 300
SWIDTH 386 0
DWIDTH 10 0
BBX 11 22 -1 0
BITMAP
2040
30C0
1F80
0F00
0000
1FE0
0FC0
0F80
0F80
0F80
1F00
1F00
1F00
1F00
1F00
1F00
3E00
3E00
3E00
3E00
7E00
FF00
ENDCHAR
STARTCHAR ibreve
ENCODING 301
SWIDTH 339 0
DWIDTH 8 0
BBX 8 18 0 0
BITMAP
81
C3
7E
3C
00
1E
FE
3E
3E
3C
7C
7C
7C
78
F9
FA
FC
78
ENDCHAR
STARTCHAR Iogonek
ENCODING 302
SWIDTH 386 0
DWIDTH 10 0
BBX 11 22 -1 -5
BITMAP
1FE0
0FC0
0F80
0F80
0F80
1F00
1F00
1F00
1F00
1F00
1F00
3E00
3E00
3E00
3E00
7E00
FF00
0C00
1800
3000
3200
1C00
ENDCHAR
STARTCHAR iogonek
ENCODING 303
SWIDTH 339 0
DWIDTH 8 0
BBX 8 23 0 -5
BITMAP
0E
1F
1F
0E
00
1E
FE
3E
3E
3C
7C
7C
7C
78
F9
FA
FC
78
18
30
60
64
38
ENDCHAR
STARTCHAR Idotaccent
ENCODING 304
SWIDTH 386 0
DWIDTH 10 0
BBX 11 22 -1 0
BITMAP
0600
0F00
0F00
0600
0000
1FE0
0FC0
0F80
0F80
0F80
1F00
1F00
1F00
1F00
1F00
1F00
3E00
3E00
3E00
3E00
7E00
FF00
ENDCHAR
STARTCHAR dotlessi
ENCODING 305
SWIDTH 339 0
DWIDTH 8 0
BBX 8 13 0 0
BITMAP
1E
FE
3E
3E
3C
7C
7C
7C
78
F9
FA
FC
78
ENDCHAR
STARTCHAR IJ
ENCODING 306
SWIDTH 755 0
DWIDTH 20 0
BBX 21 20 -1 -3
BITMAP
1FE7F8
0FC3F0
0F83E0
0F83E0
0F83E0
1F07C0
1F07C0
1F07C0
1F07C0
1F07C0
1F0F80
3E0F80
3E0F80
3E0F80
3E0F80
7E1F00
FF1F00
001E00
003C00
00F000
ENDCHAR
STARTCHAR ij
ENCODING 307
SWIDTH 655 0
DWIDTH 16 0
BBX 16 23 0 -5
BITMAP
0E0E
1F1F
1F1F
0E0E
0000
1E1E
FEFE
3E3E
3E3E
3C3E
7C3E
7C7C
7C7C
787C
F97C
FA7C
FC7C
78F8
00F8
00F8
0CF8
0EF0
07C0
ENDCHAR
STARTCHAR Jcircumflex
ENCODING 308
SWIDTH 388 0
DWIDTH 10 0
BBX 13 25 -3 -3
BITMAP
0180
03C0
0660
0C30
0000
07F8
03F0
03E0
03E0
03E0
07C0
07C0
07C0
07C0
07C0
0F80
0F80
0F80
0F80
0F80
1F00
1F00
1E00
3C00
F000
ENDCHAR
STARTCHAR jcircumflex
ENCODING 309
SWIDTH 333 0
DWIDTH 8 0
BBX 12 23 -4 -5
BITMAP
0180
03C0
0660
0C30
0000
01E0
0FE0
03E0
03E0
03E0
03E0
07C0
07C0
07C0
07C0
07C0
07C0
0F80
0F80
0F80
CF80
EF00
7C00
ENDCHAR
STARTCHAR Kcommaaccent
ENCODING 310
SWIDTH 688 0
DWIDTH 17 0
BBX 19 27 -1 -10
BITMAP
1FE3E0
0FC380
0F8300
0F8600
0F8C00
0F9800
1F3000
1F7800
1FF800
1FFC00
1F7C00
3E7E00
3E3E00
3E3F00
3E1F00
7E1F80
FF0FC0
000000
00C000
01E000
01E000
00E000
00C000
00C000
018000
030000
020000
ENDCHAR
STARTCHAR kcommaaccent
ENCODING 311
SWIDTH 570 0
DWIDTH 15 0
BBX 15 29 0 -10
BITMAP
0F80
7F80
0F80
1F00
1F00
1F00
1F06
3E1E
3E3E
3E64
3EE0
3DE0
7FE0
7DF0
7DF0
7CF2
F8FC
F8FC
F878
0000
0300
0780
0780
0380
0300
0300
0600
0C00
0800
ENDCHAR
STARTCHAR kgreenlandic
ENCODING 312
SWIDTH 570 0
DWIDTH 15 0
BBX 15 12 0 0
BITMAP
3E1E
3E3E
3E64
3EE0
3DE0
7FE0
7DF0
7DF0
7CF2
F8FC
F8FC
F878
ENDCHAR
STARTCHAR Lacute
ENCODING 313
SWIDTH 586 0
DWIDTH 15 0
BBX 15 23 -1 0
BITMAP
0040
00E0
01E0
0380
0600
0000
1FE0
0FC0
0F80
0F80
0F80
0F80
1F00
1F00
1F00
1F00
1F00
3E00
3E02
3E06
3E0E
7E1C
FFFC
ENDCHAR
STARTCHAR lacute
ENCODING 314
SWIDTH 327 0
DWIDTH 8 0
BBX 9 25 0 0
BITMAP
0100
0380
0780
0E00
1800
0000
0F00
7F00
1F00
1F00
1F00
3E00
3E00
3E00
3E00
7C00
7C00
7C00
7C00
7C00
F800
F900
FA00
FC00
7800
ENDCHAR
STARTCHAR Lcommaaccent
ENCODING 315
SWIDTH 586 0
DWIDTH 15 0
BBX 15 27 -1 -10
BITMAP
1FE0
0FC0
0F80
0F80
0F80
0F80
1F00
1F00
1F00
1F00
1F00
3E00
3E02
3E06
3E0E
7E1C
FFFC
0000
0300
0780
0780
0380
0300
0300
0600
0C00
0800
ENDCHAR
STARTCHAR lcommaaccent
ENCODING 316
SWIDTH 327 0
DWIDTH 8 0
BBX 8 29 0 -10
BITMAP
0F
7F
1F
1F
1F
3E
3E
3E
3E
7C
7C
7C
7C
7C
F8
F9
FA
FC
78
00
18
3C
3C
1C
18
18
30
60
40
ENDCHAR
STARTCHAR Lcaron
ENCODING 317
SWIDTH 803 0
DWIDTH 20 0
BBX 20 17 -1 0
BITMAP
1FE060
0FC0F0
0F80F0
0F8070
0F8060
0F8060
1F00C0
1F0180
1F0100
1F0000
1F0000
3E0000
3E0200
3E0600
3E0E00
7E1C00
FFFC00
ENDCHAR
STARTCHAR lcaron
ENCODING 318
SWIDTH 557 0
DWIDTH 14 0
BBX 13 19 0 0
BITMAP
0F00
7F00
1F30
1F78
1F78
3E38
3E30
3E30
3E60
7CC0
7C80
7C00
7C00
7C00
F800
F900
FA00
FC00
7800
ENDCHAR
STARTCHAR Ldot
ENCODING 319
SWIDTH 837 0
DWIDTH 21 0
BBX 20 17 -1 0
BITMAP
1FE000
0FC000
0F8000
0F8000
0F8000
0F8000
1F0000
1F0000
1F0000
1F0060
1F00F0
3E00F0
3E0260
3E0600
3E0E00
7E1C00
FFFC00
ENDCHAR
STARTCHAR ldot
ENCODING 320
SWIDTH 591 0
DWIDTH 15 0
BBX 13 19 0 0
BITMAP
0F00
7F00
1F00
1F00
1F00
3E00
3E00
3E00
3E00
7C00
7C00
7C30
7C78
7C78
F830
F900
FA00
FC00
7800
ENDCHAR
STARTCHAR Lslash
ENCODING 321
SWIDTH 592 0
DWIDTH 15 0
BBX 15 17 0 0
BITMAP
1FE0
0FC0
0F80
0F80
0FB0
0FC0
1F00
1F00
3F00
DF00
1F00
3E00
3E02
3E06
3E0E
7E1C
FFFC
ENDCHAR
STARTCHAR lslash
ENCODING 322
SWIDTH 339 0
DWIDTH 8 0
BBX 10 19 -1 0
BITMAP
0780
3F80
0F80
0F80
0F80
1F00
1F40
1F80
1F00
3E00
3E00
7E00
BE00
3E00
7C00
7C80
7D00
7E00
3C00
ENDCHAR
STARTCHAR Nacute
ENCODING 323
SWIDTH 741 0
DWIDTH 19 0
BBX 20 23 -1 0
BITMAP
000800
001C00
003C00
007000
00C000
000000
1F81F0
0F80E0
0FC0C0
0FC0C0
0FE0C0
1BE180
1BF180
19F180
19F980
18F980
18FD80
307D00
307F00
303F00
303F00
701F00
F81F00
ENDCHAR
STARTCHAR nacute
ENCODING 324
SWIDTH 635 0
DWIDTH 16 0
BBX 16 19 0 0
BITMAP
0020
0070
00F0
01C0
0300
0000
1E3C
FE7E
3EBE
3D3E
3E3E
7E7C
7C7C
7C7C
7C7C
F8F9
F8FA
F8FC
F878
ENDCHAR
STARTCHAR Ncommaaccent
ENCODING 325
SWIDTH 741 0
DWIDTH 19 0
BBX 20 27 -1 -10
BITMAP
1F81F0
0F80E0
0FC0C0
0FC0C0
0FE0C0
1BE180
1BF180
19F180
19F980
18F980
18FD80
307D00
307F00
303F00
303F00
701F00
F81F00
000000
006000
00F000
00F000
007000
006000
006000
00C000
018000
010000
ENDCHAR
STARTCHAR ncommaaccent
ENCODING 326
SWIDTH 635 0
DWIDTH 16 0
BBX 16 23 0 -10
BITMAP
1E3C
FE7E
3EBE
3D3E
3E3E
7E7C
7C7C
7C7C
7C7C
F8F9
F8FA
F8FC
F878
0000
0180
03C0
03C0
01C0
0180
0180
0300
0600
0400
ENDCHAR
STARTCHAR Ncaron
ENCODING 327
SWIDTH 741 0
DWIDTH 19 0
BBX 20 22 -1 0
BITMAP
030C00
019800
00F000
006000
000000
1F81F0
0F80E0
0FC0C0
0FC0C0
0FE0C0
1BE180
1BF180
19F180
19F980
18F980
18FD80
307D00
307F00
303F00
303F00
701F00
F81F00
ENDCHAR
STARTCHAR ncaron
ENCODING 328
SWIDTH 635 0
DWIDTH 16 0
BBX 16 18 0 0
BITMAP
0C30
0660
03C0
0180
0000
1E3C
FE7E
3EBE
3D3E
3E3E
7E7C
7C7C
7C7C
7C7C
F8F9
F8FA
F8FC
F878
ENDCHAR
STARTCHAR napostrophe
ENCODING 329
SWIDTH 869 0
DWIDTH 22 0
BBX 22 17 0 0
BITMAP
300000
780000
780000
380000
3078F0
33F9F8
60FAF8
C0F4F8
80F8F8
01F9F0
01F1F0
01F1F0
01F1F0
03E3E4
03E3E8
03E3F0
03E1E0
ENDCHAR
STARTCHAR Eng
ENCODING 330
SWIDTH 741 0
DWIDTH 19 0
BBX 20 22 -1 -5
BITMAP
1F81F0
0F80E0
0FC0C0
0FC0C0
0FE0C0
1BE180
1BF180
19F180
19F980
18F980
18FD80
307D00
307F00
303F00
303F00
701F00
F83F00
003E00
003E00
033E00
03BC00
01F000
ENDCHAR
STARTCHAR eng
ENCODING 331
SWIDTH 635 0
DWIDTH 16 0
BBX 15 18 0 -5
BITMAP
1E3C
FE7E
3EBE
3D3E
3E3E
7E7C
7C7C
7C7C
7C7C
F87C
F87C
F87C
F8F8
00F8
00F8
0CF8
0EF0
07C0
ENDCHAR
STARTCHAR Omacron
ENCODING 332
SWIDTH 761 0
DWIDTH 19 0
BBX 18 20 0 0
BITMAP
07F800
07F800
000000
03FC00
0F8F00
1F0780
3E0780
3E07C0
7C07C0
7C07C0
7C07C0
F807C0
F80F80
F80F80
F80F80
F81F00
781F00
783E00
3C7C00
0FF000
ENDCHAR
STARTCHAR omacron
ENCODING 333
SWIDTH 562 0
DWIDTH 14 0
BBX 14 16 0 0
BITMAP
0FF0
0FF0
0000
07F0
1EF8
3C7C
7C7C
7C7C
F87C
F87C
F87C
F8F8
F8F8
F8F0
7DE0
3F80
ENDCHAR
STARTCHAR Obreve
ENCODING 334
SWIDTH 761 0
DWIDTH 19 0
BBX 18 22 0 0
BITMAP
040800
061800
03F000
01E000
000000
03FC00
0F8F00
1F0780
3E0780
3E07C0
7C07C0
7C07C0
7C07C0
F807C0
F80F80
F80F80
F80F80
F81F00
781F00
783E00
3C7C00
0FF000
ENDCHAR
STARTCHAR obreve
ENCODING 335
SWIDTH 562 0
DWIDTH 14 0
BBX 14 18 0 0
BITMAP
0810
0C30
07E0
03C0
0000
07F0
1EF8
3C7C
7C7C
7C7C
F87C
F87C
F87C
F8F8
F8F8
F8F0
7DE0
3F80
ENDCHAR
STARTCHAR Ohungarumlaut
ENCODING 336
SWIDTH 761 0
DWIDTH 19 0
BBX 18 23 0 0
BITMAP
019800
019800
033000
033000
022000
000000
03FC00
0F8F00
1F0780
3E0780
3E07C0
7C07C0
7C07C0
7C07C0
F807C0
F80F80
F80F80
F80F80
F81F00
781F00
783E00
3C7C00
0FF000
ENDCHAR
STARTCHAR ohungarumlaut
ENCODING 337
SWIDTH 562 0
DWIDTH 14 0
BBX 14 19 0 0
BITMAP
0330
0330
0660
0660
0440
0000
07F0
1EF8
3C7C
7C7C
7C7C
F87C
F87C
F87C
F8F8
F8F8
F8F0
7DE0
3F80
ENDCHAR
STARTCHAR OE
ENCODING 338
SWIDTH 1016 0
DWIDTH 25 0
BBX 26 17 0 0
BITMAP
03FFFFC0
0F83F1C0
1F03E080
3E03E080
3E03E000
7C03E100
7C07C300
7C07FF00
F807C200
F807C200
F807C000
F80F8000
F80F8080
780F8180
780F8380
3C1F8700
0FFFFF00
ENDCHAR
STARTCHAR oe
ENCODING 339
SWIDTH 811 0
DWIDTH 20 0
BBX 21 13 0 0
BITMAP
07F3F0
1EFF78
3C7E78
7C7E78
7C7EF0
F87CE0
F87DC0
F87F00
F8FC00
F8FC10
F8FC30
7DFE60
3F9F80
ENDCHAR
STARTCHAR Racute
ENCODING 340
SWIDTH 681 0
DWIDTH 17 0
BBX 18 23 -1 0
BITMAP
001000
003800
007800
00E000
018000
000000
1FFE00
0FCF00
0F8F80
0F8F80
0F8F80
1F0F80
1F0F00
1F1E00
1FFC00
1F3E00
1F3E00
3E3E00
3E1F00
3E1F00
3E1F00
7E1F80
FF0FC0
ENDCHAR
STARTCHAR racute
ENCODING 341
SWIDTH 440 0
DWIDTH 11 0
BBX 13 19 0 0
BITMAP
0080
01C0
03C0
0700
0C00
0000
1E70
FEF8
3F78
3E30
3E00
7C00
7C00
7C00
7C00
F800
F800
F800
F800
ENDCHAR
STARTCHAR Rcommaaccent
ENCODING 342
SWIDTH 681 0
DWIDTH 17 0
BBX 18 27 -1 -10
BITMAP
1FFE00
0FCF00
0F8F80
0F8F80
0F8F80
1F0F80
1F0F00
1F1E00
1FFC00
1F3E00
1F3E00
3E3E00
3E1F00
3E1F00
3E1F00
7E1F80
FF0FC0
000000
00C000
01E000
01E000
00E000
00C000
00C000
018000
030000
020000
ENDCHAR
STARTCHAR rcommaaccent
ENCODING 343
SWIDTH 440 0
DWIDTH 11 0
BBX 13 23 0 -10
BITMAP
1E70
FEF8
3F78
3E30
3E00
7C00
7C00
7C00
7C00
F800
F800
F800
F800
0000
1800
3C00
3C00
1C00
1800
1800
3000
6000
4000
ENDCHAR
STARTCHAR Rcaron
ENCODING 344
SWIDTH 681 0
DWIDTH 17 0
BBX 18 22 -1 0
BITMAP
030C00
019800
00F000
006000
000000
1FFE00
0FCF00
0F8F80
0F8F80
0F8F80
1F0F80
1F0F00
1F1E00
1FFC00
1F3E00
1F3E00
3E3E00
3E1F00
3E1F00
3E1F00
7E1F80
FF0FC0
ENDCHAR
STARTCHAR rcaron
ENCODING 345
SWIDTH 440 0
DWIDTH 11 0
BBX 13 18 0 0
BITMAP
1860
0CC0
0780
0300
0000
1E70
FEF8
3F78
3E30
3E00
7C00
7C00
7C00
7C00
F800
F800
F800
F800
ENDCHAR
STARTCHAR Sacute
ENCODING 346
SWIDTH 551 0
DWIDTH 14 0
BBX 13 23 0 0
BITMAP
0040
00E0
01E0
0380
0600
0000
03F8
0F38
1E10
3E10
3E00
3F00
3F80
1FC0
0FE0
07F0
03F0
01F0
41F0
41F0
E1E0
F3C0
7F00
ENDCHAR
STARTCHAR sacute
ENCODING 347
SWIDTH 417 0
DWIDTH 10 0
BBX 12 19 -1 0
BITMAP
0080
01C0
03C0
0700
0C00
0000
07E0
1CF0
3C70
3E20
3F00
1F00
1F80
0FC0
07C0
43C0
E3C0
F380
7E00
ENDCHAR
STARTCHAR Scircumflex
ENCODING 348
SWIDTH 551 0
DWIDTH 14 0
BBX 13 22 0 0
BITMAP
0300
0780
0CC0
1860
0000
03F8
0F38
1E10
3E10
3E00
3F00
3F80
1FC0
0FE0
07F0
03F0
01F0
41F0
41F0
E1E0
F3C0
7F00
ENDCHAR
STARTCHAR scircumflex
ENCODING 349
SWIDTH 417 0
DWIDTH 10 0
BBX 12 18 -1 0
BITMAP
0300
0780
0CC0
1860
0000
07E0
1CF0
3C70
3E20
3F00
1F00
1F80
0FC0
07C0
43C0
E3C0
F380
7E00
ENDCHAR
STARTCHAR Scedilla
ENCODING 350
SWIDTH 551 0
DWIDTH 14 0
BBX 13 22 0 -5
BITMAP
03F8
0F38
1E10
3E10
3E00
3F00
3F80
1FC0
0FE0
07F0
03F0
01F0
41F0
41F0
E1E0
F3C0
7F00
0200
0700
0180
0180
0F00
ENDCHAR
STARTCHAR scedilla
ENCODING 351
SWIDTH 417 0
DWIDTH 10 0
BBX 12 18 -1 -5
BITMAP
07E0
1CF0
3C70
3E20
3F00
1F00
1F80
0FC0
07C0
43C0
E3C0
F380
7E00
0400
0E00
0300
0300
1E00
ENDCHAR
STARTCHAR Scaron
ENCODING 352
SWIDTH 551 0
DWIDTH 14 0
BBX 13 20 0 0
BITMAP
0C30
0660
03C0
0180
0000
03F8
0F38
1E10
3E10
3F00
3F80
1FC0
0FE0
07F0
03F0
41F0
41F0
E1E0
F3C0
7F00
ENDCHAR
STARTCHAR scaron
ENCODING 353
SWIDTH 417 0
DWIDTH 10 0
BBX 12 18 -1 0
BITMAP
0C30
0660
03C0
0180
0000
07E0
1CF0
3C70
3E20
3F00
1F00
1F80
0FC0
07C0
43C0
E3C0
F380
7E00
ENDCHAR
STARTCHAR Tcommaaccent
ENCODING 354
SWIDTH 616 0
DWIDTH 16 0
BBX 16 22 1 -5
BITMAP
FFFF
E7E7
C7C2
87C2
07C0
0F80
0F80
0F80
0F80
0F80
0F80
1F00
1F00
1F00
1F00
3F00
7F80
0200
0700
0180
0180
0F00
ENDCHAR
STARTCHAR tcommaaccent
ENCODING 355
SWIDTH 359 0
DWIDTH 9 0
BBX 10 22 0 -5
BITMAP
0200
0600
1E00
3E00
FFC0
3E00
3E00
7C00
7C00
7C00
7C00
7C00
F800
F900
FA00
FC00
7800
1000
3800
0C00
0C00
7800
ENDCHAR
STARTCHAR Tcaron
ENCODING 356
SWIDTH 616 0
DWIDTH 16 0
BBX 16 22 1 0
BITMAP
0C30
0660
03C0
0180
0000
FFFF
E7E7
C7C2
87C2
07C0
0F80
0F80
0F80
0F80
0F80
0F80
1F00
1F00
1F00
1F00
3F00
7F80
ENDCHAR
STARTCHAR tcaron
ENCODING 357
SWIDTH 587 0
DWIDTH 15 0
BBX 14 17 0 0
BITMAP
0218
063C
1E3C
3E1C
FFD8
3E18
3E30
7C60
7C40
7C00
7C00
7C00
F800
F900
FA00
FC00
7800
ENDCHAR
STARTCHAR Tbar
ENCODING 358
SWIDTH 616 0
DWIDTH 16 0
BBX 16 17 1 0
BITMAP
FFFF
E7E7
C7C2
87C2
07C0
0F80
0F80
0F80
1FFC
0F80
0F80
1F00
1F00
1F00
1F00
3F00
7F80
ENDCHAR
STARTCHAR tbar
ENCODING 359
SWIDTH 359 0
DWIDTH 9 0
BBX 11 17 0 0
BITMAP
0200
0600
1E00
3E00
FFC0
3E00
3E00
7C00
7C00
7C00
7C00
FFE0
F800
F900
FA00
FC00
7800
ENDCHAR
STARTCHAR Utilde
ENCODING 360
SWIDTH 776 0
DWIDTH 19 0
BBX 19 21 1 0
BITMAP
01C600
03FC00
063800
000000
7F9FE0
3F0FC0
3E0F80
3E0F80
3E0F80
7C1F00
7C1F00
7C1F00
7C1F00
7C1F00
F83E00
F83E00
F83E00
F83E00
F83C00
7C7800
1FE000
ENDCHAR
STARTCHAR utilde
ENCODING 361
SWIDTH 634 0
DWIDTH 16 0
BBX 16 17 0 0
BITMAP
038C
07F8
0C70
0000
1E3E
FE3E
3E3E
3E3E
7C7C
7C7C
7C7C
7CFC
7CFC
F979
FAFA
FCFC
7878
ENDCHAR
STARTCHAR Umacron
ENCODING 362
SWIDTH 776 0
DWIDTH 19 0
BBX 19 20 1 0
BITMAP
03FC00
03FC00
000000
7F9FE0
3F0FC0
3E0F80
3E0F80
3E0F80
7C1F00
7C1F00
7C1F00
7C1F00
7C1F00
F83E00
F83E00
F83E00
F83E00
F83C00
7C7800
1FE000
ENDCHAR
STARTCHAR umacron
ENCODING 363
SWIDTH 634 0
DWIDTH 16 0
BBX 16 16 0 0
BITMAP
0FF0
0FF0
0000
1E3E
FE3E
3E3E
3E3E
7C7C
7C7C
7C7C
7CFC
7CFC
F979
FAFA
FCFC
7878
ENDCHAR
STARTCHAR Ubreve
ENCODING 364
SWIDTH 776 0
DWIDTH 19 0
BBX 19 22 1 0
BITMAP
020400
030C00
01F800
00F000
000000
7F9FE0
3F0FC0
3E0F80
3E0F80
3E0F80
7C1F00
7C1F00
7C1F00
7C1F00
7C1F00
F83E00
F83E00
F83E00
F83E00
F83C00
7C7800
1FE000
ENDCHAR
STARTCHAR ubreve
ENCODING 365
SWIDTH 634 0
DWIDTH 16 0
BBX 16 18 0 0
BITMAP
0810
0C30
07E0
03C0
0000
1E3E
FE3E
3E3E
3E3E
7C7C
7C7C
7C7C
7CFC
7CFC
F979
FAFA
FCFC
7878
ENDCHAR
STARTCHAR Uring
ENCODING 366
SWIDTH 776 0
DWIDTH 19 0
BBX 19 23 1 0
BITMAP
00F000
019800
019800
019800
00F000
000000
7F9FE0
3F0FC0
3E0F80
3E0F80
3E0F80
7C1F00
7C1F00
7C1F00
7C1F00
7C1F00
F83E00
F83E00
F83E00
F83E00
F83C00
7C7800
1FE000
ENDCHAR
STARTCHAR uring
ENCODING 367
SWIDTH 634 0
DWIDTH 16 0
BBX 16 19 0 0
BITMAP
03C0
0660
0660
0660
03C0
0000
1E3E
FE3E
3E3E
3E3E
7C7C
7C7C
7C7C
7CFC
7CFC
F979
FAFA
FCFC
7878
ENDCHAR
STARTCHAR Uhungarumlaut
ENCODING 368
SWIDTH 776 0
DWIDTH 19 0
BBX 19 23 1 0
BITMAP
00CC00
00CC00
019800
019800
011000
000000
7F9FE0
3F0FC0
3E0F80
3E0F80
3E0F80
7C1F00
7C1F00
7C1F00
7C1F00
7C1F00
F83E00
F83E00
F83E00
F83E00
F83C00
7C7800
1FE000
ENDCHAR
STARTCHAR uhungarumlaut
ENCODING 369
SWIDTH 634 0
DWIDTH 16 0
BBX 16 19 0 0
BITMAP
0330
0330
0660
0660
0440
0000
1E3E
FE3E
3E3E
3E3E
7C7C
7C7C
7C7C
7CFC
7CFC
F979
FAFA
FCFC
7878
ENDCHAR
STARTCHAR Uogonek
ENCODING 370
SWIDTH 776 0
DWIDTH 19 0
BBX 19 22 1 -5
BITMAP
7F9FE0
3F0FC0
3E0F80
3E0F80
3E0F80
7C1F00
7C1F00
7C1F00
7C1F00
7C1F00
F83E00
F83E00
F83E00
F83E00
F83C00
7C7800
1FE000
018000
030000
060000
064000
038000
ENDCHAR
STARTCHAR uogonek
ENCODING 371
SWIDTH 634 0
DWIDTH 16 0
BBX 16 18 0 -5
BITMAP
1E3E
FE3E
3E3E
3E3E
7C7C
7C7C
7C7C
7CFC
7CFC
F979
FAFA
FCFC
7878
0180
0300
0600
0640
0380
ENDCHAR
STARTCHAR Wcircumflex
ENCODING 372
SWIDTH 920 0
DWIDTH 23 0
BBX 25 22 0 0
BITMAP
00180000
003C0000
00660000
00C30000
00000000
FF1F0F80
7E1F0700
3E1F0600
3E1F0400
3E1F0C00
3E1F0800
3E3F1800
3E3F1000
1F6FB000
1F4FA000
1FCFE000
1F8FC000
1F8FC000
1F0F8000
1F0F8000
1E0F0000
1E0F0000
ENDCHAR
STARTCHAR wcircumflex
ENCODING 373
SWIDTH 795 0
DWIDTH 20 0
BBX 20 18 0 0
BITMAP
006000
00F000
019800
030C00
000000
1E3E70
7E3C70
3E3C70
3C7C70
7C7C60
7C7860
7C7860
7CF8C0
F8F880
F8F980
F9F900
FAFE00
7C7C00
ENDCHAR
STARTCHAR Ycircumflex
ENCODING 374
SWIDTH 622 0
DWIDTH 16 0
BBX 16 22 1 0
BITMAP
0300
0780
0CC0
1860
0000
FE1F
7C0E
7C0C
7C18
3E30
3E20
3E40
3EC0
1F80
1F00
1F00
1F00
3E00
3E00
3E00
7E00
FF00
ENDCHAR
STARTCHAR ycircumflex
ENCODING 375
SWIDTH 489 0
DWIDTH 12 0
BBX 15 23 -3 -5
BITMAP
00C0
01E0
0330
0618
0000
078E
3F9E
0F8E
0F8E
0F8E
0F8C
07CC
07C8
07D0
07D0
07E0
07C0
0780
0780
6700
F600
F400
7800
ENDCHAR
STARTCHAR Ydieresis
ENCODING 376
SWIDTH 622 0
DWIDTH 16 0
BBX 16 20 1 0
BITMAP
0618
0F3C
0F3C
0618
0000
FE1F
7C0E
7C0C
7C18
3E30
3E60
3EC0
1F80
1F00
1F00
3E00
3E00
3E00
7E00
FF00
ENDCHAR
STARTCHAR Zacute
ENCODING 377
SWIDTH 618 0
DWIDTH 16 0
BBX 15 23 0 0
BITMAP
0020
0070
00F0
01C0
0300
0000
1FFE
1C3E
187C
30F8
20F8
01F0
03E0
07C0
07C0
0F80
1F00
3E00
3E04
7C0C
F818
F838
FFF8
ENDCHAR
STARTCHAR zacute
ENCODING 378
SWIDTH 466 0
DWIDTH 12 0
BBX 13 19 -1 0
BITMAP
0040
00E0
01E0
0380
0600
0000
1FF8
1FF0
3FE0
31C0
2180
0300
0600
0C10
1C30
3FF0
7FE0
FFC0
C780
ENDCHAR
STARTCHAR Zdotaccent
ENCODING 379
SWIDTH 618 0
DWIDTH 16 0
BBX 15 22 0 0
BITMAP
00C0
01E0
01E0
00C0
0000
1FFE
1C3E
187C
30F8
20F8
01F0
03E0
07C0
07C0
0F80
1F00
3E00
3E04
7C0C
F818
F838
FFF8
ENDCHAR
STARTCHAR zdotaccent
ENCODING 380
SWIDTH 466 0
DWIDTH 12 0
BBX 13 18 -1 0
BITMAP
0300
0780
0780
0300
0000
1FF8
1FF0
3FE0
31C0
2180
0300
0600
0C10
1C30
3FF0
7FE0
FFC0
C780
ENDCHAR
STARTCHAR Zcaron
ENCODING 381
SWIDTH 618 0
DWIDTH 16 0
BBX 15 20 0 0
BITMAP
0618
0330
01E0
00C0
0000
1FFE
1C3E
187C
30F8
20F0
01E0
03E0
07C0
0F80
0F00
1E04
3E0C
7C18
F838
FFF8
ENDCHAR
STARTCHAR zcaron
ENCODING 382
SWIDTH 466 0
DWIDTH 12 0
BBX 13 18 -1 0
BITMAP
0C30
0660
03C0
0180
0000
1FF8
1FF0
3FE0
31C0
2180
0300
0600
0C10
1C30
3FF0
7FE0
FFC0
C780
ENDCHAR
STARTCHAR uni0186
ENCODING 390
SWIDTH 672 0
DWIDTH 17 0
BBX 16 17 0 0
BITMAP
07F0
1C3C
381E
301E
201F
001F
001F
001F
001F
003E
003E
003E
007C
407C
40F8
E1F0
FFC0
ENDCHAR
STARTCHAR uni0189
ENCODING 393
SWIDTH 780 0
DWIDTH 20 0
BBX 20 17 -1 0
BITMAP
1FFF00
0FC3C0
0F81E0
0F81E0
0F81F0
0F81F0
1F01F0
7FC1F0
1F01F0
1F03E0
1F03E0
3E03E0
3E07C0
3E07C0
3E0F80
7E1F00
FFFC00
ENDCHAR
STARTCHAR uni018E
ENCODING 398
SWIDTH 622 0
DWIDTH 16 0
BBX 16 17 -1 0
BITMAP
3FFF
387E
707C
607C
407C
007C
00F8
10F8
10F8
3FF8
30F8
21F0
01F0
41F0
41F0
E3F0
FFF8
ENDCHAR
STARTCHAR florin
ENCODING 402
SWIDTH 560 0
DWIDTH 14 0
BBX 15 20 -1 -3
BITMAP
003C
006E
00E6
01E0
01E0
0FF8
03C0
03C0
03C0
0780
0780
0780
0780
0780
0F00
0F00
0F00
CE00
EC00
7800
ENDCHAR
STARTCHAR uni0197
ENCODING 407
SWIDTH 386 0
DWIDTH 10 0
BBX 11 17 -1 0
BITMAP
1FE0
0FC0
0F80
0F80
0F80
1F00
1F00
1F00
FFE0
1F00
1F00
3E00
3E00
3E00
3E00
7E00
FF00
ENDCHAR
STARTCHAR uni019A
ENCODING 410
SWIDTH 327 0
DWIDTH 8 0
BBX 11 19 -1 0
BITMAP
0780
3F80
0F80
0F80
0F80
1F00
1F00
1F00
1F00
FFE0
3E00
3E00
3E00
3E00
7C00
7C80
7D00
7E00
3C00
ENDCHAR
STARTCHAR uni019D
ENCODING 413
SWIDTH 741 0
DWIDTH 19 0
BBX 23 22 -4 -5
BITMAP
03F03E
01F01C
01F818
01F818
01FC18
037C30
037E30
033E30
033F30
031F30
031FB0
060FA0
07CFE0
07C3E0
07C3E0
07C3E0
0F83E0
0F8000
0F8000
CF8000
EF0000
7C0000
ENDCHAR
STARTCHAR uni019F
ENCODING 415
SWIDTH 761 0
DWIDTH 19 0
BBX 18 17 0 0
BITMAP
03FC00
0F8F00
1F0780
3E0780
3E07C0
7C07C0
7C07C0
7C07C0
FFFFC0
F80F80
F80F80
F80F80
F81F00
781F00
783E00
3C7C00
0FF000
ENDCHAR
STARTCHAR Ohorn
ENCODING 416
SWIDTH 761 0
DWIDTH 19 0
BBX 21 17 0 0
BITMAP
03FC30
0F8F78
1F07F8
3E07B8
3E07F0
7C07F0
7C07E0
7C07C0
F807C0
F80F80
F80F80
F80F80
F81F00
781F00
783E00
3C7C00
0FF000
ENDCHAR
STARTCHAR ohorn
ENCODING 417
SWIDTH 562 0
DWIDTH 14 0
BBX 18 13 0 0
BITMAP
07F180
1EFBC0
3C7FC0
7C7DC0
7C7D80
F87D80
F87F00
F87E00
F8FC00
F8F800
F8F000
7DE000
3F8000
ENDCHAR
STARTCHAR Uhorn
ENCODING 431
SWIDTH 776 0
DWIDTH 19 0
BBX 22 17 1 0
BITMAP
7F9FF8
3F0FFC
3E0FBC
3E0F9C
3E0F98
7C1F18
7C1F30
7C1F60
7C1F40
7C1F00
F83E00
F83E00
F83E00
F83E00
F83C00
7C7800
1FE000
ENDCHAR
STARTCHAR uhorn
ENCODING 432
SWIDTH 634 0
DWIDTH 16 0
BBX 20 13 0 0
BITMAP
1E3E60
FE3EF0
3E3EF0
3E3E70
7C7C60
7C7C60
7C7CC0
7CFD80
7CFD00
F97900
FAFA00
FCFC00
787800
ENDCHAR
STARTCHAR uni01B5
ENCODING 437
SWIDTH 618 0
DWIDTH 16 0
BBX 15 17 0 0
BITMAP
1FFE
1C3E
187C
30F8
20F8
01F0
03E0
07C0
3FF8
0F80
1F00
3E00
3E04
7C0C
F818
F838
FFF8
ENDCHAR
STARTCHAR uni01B6
ENCODING 438
SWIDTH 466 0
DWIDTH 12 0
BBX 13 13 -1 0
BITMAP
1FF8
1FF0
3FE0
31C0
2180
0300
7FF0
0C10
1C30
3FF0
7FE0
FFC0
C780
ENDCHAR
STARTCHAR uni01BB
ENCODING 443
SWIDTH 560 0
DWIDTH 14 0
BBX 14 17 0 0
BITMAP
07E0
1E78
3C78
187C
007C
00FC
00F8
01F0
FFFC
0780
0E00
1C00
3810
7030
FFF0
FFE0
FFE0
ENDCHAR
STARTCHAR uni01BC
ENCODING 444
SWIDTH 560 0
DWIDTH 14 0
BBX 14 17 0 0
BITMAP
0FFC
0FF8
0FF0
0C00
1800
1800
1800
3FC0
33E0
01F0
01F0
01F0
01F0
C1E0
E1E0
F3C0
7F00
ENDCHAR
STARTCHAR uni01C0
ENCODING 448
SWIDTH 265 0
DWIDTH 7 0
BBX 3 17 2 0
BITMAP
E0
E0
E0
E0
E0
E0
E0
E0
E0
E0
E0
E0
E0
E0
E0
E0
E0
ENDCHAR
STARTCHAR uni01C2
ENCODING 450
SWIDTH 600 0
DWIDTH 15 0
BBX 13 17 1 -2
BITMAP
0700
0700
0700
0700
0700
FFF8
FFF8
0700
0700
0700
0700
FFF8
FFF8
0700
0700
0700
0700
ENDCHAR
STARTCHAR uni01C3
ENCODING 451
SWIDTH 285 0
DWIDTH 7 0
BBX 7 17 0 0
BITMAP
1C
3E
3E
3C
3C
3C
38
38
38
30
30
00
00
60
F0
F0
60
ENDCHAR
STARTCHAR uni01CD
ENCODING 461
SWIDTH 634 0
DWIDTH 16 0
BBX 18 22 -2 0
BITMAP
030C00
019800
00F000
006000
000000
007C00
007C00
00FC00
00FC00
01FC00
013E00
033E00
023E00
063E00
043E00
0FFE00
081F00
181F00
101F00
301F00
701F80
F83FC0
ENDCHAR
STARTCHAR uni01CE
ENCODING 462
SWIDTH 596 0
DWIDTH 15 0
BBX 15 18 0 0
BITMAP
0C30
0660
03C0
0180
0000
07FC
1E7C
3C7C
3C7C
7CF8
78F8
F8F8
F8F8
F9F0
F9F2
FBF4
7DF8
38F0
ENDCHAR
STARTCHAR uni01CF
ENCODING 463
SWIDTH 386 0
DWIDTH 10 0
BBX 11 22 -1 0
BITMAP
30C0
1980
0F00
0600
0000
1FE0
0FC0
0F80
0F80
0F80
1F00
1F00
1F00
1F00
1F00
1F00
3E00
3E00
3E00
3E00
7E00
FF00
ENDCHAR
STARTCHAR uni01D0
ENCODING 464
SWIDTH 339 0
DWIDTH 8 0
BBX 8 18 0 0
BITMAP
C3
66
3C
18
00
1E
FE
3E
3E
3C
7C
7C
7C
78
F9
FA
FC
78
ENDCHAR
STARTCHAR uni01D1
ENCODING 465
SWIDTH 761 0
DWIDTH 19 0
BBX 18 22 0 0
BITMAP
061800
033000
01E000
00C000
000000
03FC00
0F8F00
1F0780
3E0780
3E07C0
7C07C0
7C07C0
7C07C0
F807C0
F80F80
F80F80
F80F80
F81F00
781F00
783E00
3C7C00
0FF000
ENDCHAR
STARTCHAR uni01D2
ENCODING 466
SWIDTH 562 0
DWIDTH 14 0
BBX 14 18 0 0
BITMAP
0C30
0660
03C0
0180
0000
07F0
1EF8
3C7C
7C7C
7C7C
F87C
F87C
F87C
F8F8
F8F8
F8F0
7DE0
3F80
ENDCHAR
STARTCHAR uni01D3
ENCODING 467
SWIDTH 776 0
DWIDTH 19 0
BBX 19 22 1 0
BITMAP
030C00
019800
00F000
006000
000000
7F9FE0
3F0FC0
3E0F80
3E0F80
3E0F80
7C1F00
7C1F00
7C1F00
7C1F00
7C1F00
F83E00
F83E00
F83E00
F83E00
F83C00
7C7800
1FE000
ENDCHAR
STARTCHAR uni01D4
ENCODING 468
SWIDTH 634 0
DWIDTH 16 0
BBX 16 18 0 0
BITMAP
0C30
0660
03C0
0180
0000
1E3E
FE3E
3E3E
3E3E
7C7C
7C7C
7C7C
7CFC
7CFC
F979
FAFA
FCFC
7878
ENDCHAR
STARTCHAR uni01D5
ENCODING 469
SWIDTH 776 0
DWIDTH 20 0
BBX 19 23 1 0
BITMAP
03FC00
03FC00
000000
030C00
079E00
079E00
030C00
000000
7F9FE0
3F0FC0
3E0F80
3E0F80
3E0F80
7C1F00
7C1F00
7C1F00
7C1F00
F83E00
F83E00
F83E00
F83C00
7C7800
1FE000
ENDCHAR
STARTCHAR uni01D6
ENCODING 470
SWIDTH 634 0
DWIDTH 16 0
BBX 16 21 0 0
BITMAP
07F8
07F8
0000
0618
0F3C
0F3C
0618
0000
1E3E
FE3E
3E3E
3E3E
7C7C
7C7C
7C7C
7CFC
7CFC
F979
FAFA
FCFC
7878
ENDCHAR
STARTCHAR uni01D7
ENCODING 471
SWIDTH 776 0
DWIDTH 20 0
BBX 19 26 1 0
BITMAP
000800
001C00
003C00
007000
00C000
000000
030C00
079E00
079E00
030C00
000000
7F9FE0
3F0FC0
3E0F80
3E0F80
3E0F80
7C1F00
7C1F00
7C1F00
7C1F00
F83E00
F83E00
F83E00
F83C00
7C7800
1FE000
ENDCHAR
STARTCHAR uni01D8
ENCODING 472
SWIDTH 634 0
DWIDTH 16 0
BBX 16 24 0 0
BITMAP
0020
0070
00F0
01C0
0300
0000
0618
0F3C
0F3C
0618
0000
1E3E
FE3E
3E3E
3E3E
7C7C
7C7C
7C7C
7CFC
7CFC
F979
FAFA
FCFC
7878
ENDCHAR
STARTCHAR uni01D9
ENCODING 473
SWIDTH 776 0
DWIDTH 20 0
BBX 19 25 1 0
BITMAP
030C00
019800
00F000
006000
000000
030C00
079E00
079E00
030C00
000000
7F9FE0
3F0FC0
3E0F80
3E0F80
3E0F80
7C1F00
7C1F00
7C1F00
7C1F00
F83E00
F83E00
F83E00
F83C00
7C7800
1FE000
ENDCHAR
STARTCHAR uni01DA
ENCODING 474
SWIDTH 634 0
DWIDTH 16 0
BBX 16 23 0 0
BITMAP
0618
0330
01E0
00C0
0000
0618
0F3C
0F3C
0618
0000
1E3E
FE3E
3E3E
3E3E
7C7C
7C7C
7C7C
7CFC
7CFC
F979
FAFA
FCFC
7878
ENDCHAR
STARTCHAR uni01DB
ENCODING 475
SWIDTH 776 0
DWIDTH 20 0
BBX 19 26 1 0
BITMAP
010000
038000
03C000
00E000
003000
000000
030C00
079E00
079E00
030C00
000000
7F9FE0
3F0FC0
3E0F80
3E0F80
3E0F80
7C1F00
7C1F00
7C1F00
7C1F00
F83E00
F83E00
F83E00
F83C00
7C7800
1FE000
ENDCHAR
STARTCHAR uni01DC
ENCODING 476
SWIDTH 634 0
DWIDTH 16 0
BBX 16 24 0 0
BITMAP
0200
0700
0780
01C0
0060
0000
0618
0F3C
0F3C
0618
0000
1E3E
FE3E
3E3E
3E3E
7C7C
7C7C
7C7C
7CFC
7CFC
F979
FAFA
FCFC
7878
ENDCHAR
STARTCHAR uni01DD
ENCODING 477
SWIDTH 476 0
DWIDTH 12 0
BBX 12 13 0 0
BITMAP
0FC0
33E0
61F0
41F0
01F0
07F0
1DF0
39F0
7BE0
F3E0
F3C0
F780
7E00
ENDCHAR
STARTCHAR uni01DE
ENCODING 478
SWIDTH 634 0
DWIDTH 16 0
BBX 18 23 -2 0
BITMAP
01FE00
01FE00
000000
00C300
01E780
01E780
00C300
000000
003C00
007C00
007C00
00BC00
01BE00
013E00
023E00
063E00
07FE00
081F00
181F00
101F00
201F00
601F80
F83FC0
ENDCHAR
STARTCHAR uni01DF
ENCODING 479
SWIDTH 596 0
DWIDTH 15 0
BBX 15 21 0 0
BITMAP
07F8
07F8
0000
0618
0F3C
0F3C
0618
0000
07FC
1E7C
3C7C
3C7C
7CF8
78F8
F8F8
F8F8
F9F0
F9F2
FBF4
7DF8
38F0
ENDCHAR
STARTCHAR uni01E0
ENCODING 480
SWIDTH 634 0
DWIDTH 16 0
BBX 18 25 -2 0
BITMAP
03FC00
03FC00
000000
006000
00F000
00F000
006000
000000
007C00
007C00
00FC00
00FC00
01FC00
013E00
033E00
023E00
063E00
043E00
0FFE00
081F00
181F00
101F00
301F00
701F80
F83FC0
ENDCHAR
STARTCHAR uni01E1
ENCODING 481
SWIDTH 596 0
DWIDTH 15 0
BBX 15 21 0 0
BITMAP
0FF0
0FF0
0000
0180
03C0
03C0
0180
0000
07FC
1E7C
3C7C
3C7C
7CF8
78F8
F8F8
F8F8
F9F0
F9F2
FBF4
7DF8
38F0
ENDCHAR
STARTCHAR uni01E2
ENCODING 482
SWIDTH 890 0
DWIDTH 22 0
BBX 24 20 -2 0
BITMAP
003FC0
003FC0
000000
007FFF
001FC7
002F82
006F82
004F80
008F84
019F0C
011FFC
021F08
061F08
07FF00
083E00
183E02
103E06
203E0E
607E1C
F0FFFC
ENDCHAR
STARTCHAR uni01E3
ENCODING 483
SWIDTH 789 0
DWIDTH 20 0
BBX 20 17 0 0
BITMAP
01FE00
01FE00
000000
000400
07FDE0
1E7EF0
3C7CF0
3C7CF0
7CFDE0
78F9C0
F8FB80
F8FE00
F9F800
F9F820
FAF860
7C7CC0
383F00
ENDCHAR
STARTCHAR uni01E4
ENCODING 484
SWIDTH 726 0
DWIDTH 18 0
BBX 20 17 0 0
BITMAP
03FF00
0F8700
1F0200
3E0200
3E0000
7C0000
7C0000
7C0000
F80000
F80000
F8FF80
F83E00
F87FF0
783E00
783E00
3C7C00
0FF000
ENDCHAR
STARTCHAR uni01E5
ENCODING 485
SWIDTH 522 0
DWIDTH 13 0
BBX 16 18 -2 -5
BITMAP
03F9
0F3F
1E3C
3E3C
3E3C
3E3C
1E78
07E0
1E00
3F80
1FE0
0FF8
1FFC
FFFF
F03C
F038
7870
1FC0
ENDCHAR
STARTCHAR Gcaron
ENCODING 486
SWIDTH 726 0
DWIDTH 18 0
BBX 17 22 0 0
BITMAP
0C3000
066000
03C000
018000
000000
03FF00
0F8700
1F0200
3E0200
3E0000
7C0000
7C0000
7C0000
F80000
F80000
F8FF80
F83E00
F83E00
783E00
783E00
3C7C00
0FF000
ENDCHAR
STARTCHAR gcaron
ENCODING 487
SWIDTH 522 0
DWIDTH 13 0
BBX 16 23 -2 -5
BITMAP
0618
0330
01E0
00C0
0000
03F9
0F3F
1E3C
3E3C
3E3C
3E3C
1E78
07E0
1E00
3F80
1FE0
0FF8
1FFC
78FC
F03C
F038
7870
1FC0
ENDCHAR
STARTCHAR uni01E8
ENCODING 488
SWIDTH 688 0
DWIDTH 17 0
BBX 19 22 -1 0
BITMAP
030C00
019800
00F000
006000
000000
1FE3E0
0FC380
0F8300
0F8600
0F8C00
0F9800
1F3000
1F7800
1FF800
1FFC00
1F7C00
3E7E00
3E3E00
3E3F00
3E1F00
7E1F80
FF0FC0
ENDCHAR
STARTCHAR uni01E9
ENCODING 489
SWIDTH 570 0
DWIDTH 15 0
BBX 15 24 0 0
BITMAP
30C0
1980
0F00
0600
0000
0F80
7F80
0F80
1F00
1F00
1F00
1F06
3E1E
3E3E
3E64
3EE0
3DE0
7FE0
7DF0
7DF0
7CF2
F8FC
F8FC
F878
ENDCHAR
STARTCHAR uni01EA
ENCODING 490
SWIDTH 761 0
DWIDTH 19 0
BBX 18 22 0 -5
BITMAP
03FC00
0F8F00
1F0780
3E0780
3E07C0
7C07C0
7C07C0
7C07C0
F807C0
F80F80
F80F80
F80F80
F81F00
781F00
783E00
3C7C00
0FF000
00C000
018000
030000
032000
01C000
ENDCHAR
STARTCHAR uni01EB
ENCODING 491
SWIDTH 562 0
DWIDTH 14 0
BBX 14 18 0 -5
BITMAP
07F0
1EF8
3C7C
7C7C
7C7C
F87C
F87C
F87C
F8F8
F8F8
F8F0
7DE0
3F80
0300
0600
0C00
0C80
0700
ENDCHAR
STARTCHAR uni01EC
ENCODING 492
SWIDTH 761 0
DWIDTH 19 0
BBX 18 25 0 -5
BITMAP
07F800
07F800
000000
03FC00
0F8F00
1F0780
3E0780
3E07C0
7C07C0
7C07C0
7C07C0
F807C0
F80F80
F80F80
F80F80
F81F00
781F00
783E00
3C7C00
0FF000
00C000
018000
030000
032000
01C000
ENDCHAR
STARTCHAR uni01ED
ENCODING 493
SWIDTH 562 0
DWIDTH 14 0
BBX 14 21 0 -5
BITMAP
0FF0
0FF0
0000
07F0
1EF8
3C7C
7C7C
7C7C
F87C
F87C
F87C
F8F8
F8F8
F8F0
7DE0
3F80
0300
0600
0C00
0C80
0700
ENDCHAR
STARTCHAR uni01F0
ENCODING 496
SWIDTH 333 0
DWIDTH 8 0
BBX 12 23 -4 -5
BITMAP
0C30
0660
03C0
0180
0000
01E0
0FE0
03E0
03E0
03E0
03E0
07C0
07C0
07C0
07C0
07C0
07C0
0F80
0F80
0F80
CF80
EF00
7C00
ENDCHAR
STARTCHAR uni01F4
ENCODING 500
SWIDTH 726 0
DWIDTH 18 0
BBX 17 23 0 0
BITMAP
002000
007000
00F000
01C000
030000
000000
03FF00
0F8700
1F0200
3E0200
3E0000
7C0000
7C0000
7C0000
F80000
F80000
F8FF80
F83E00
F83E00
783E00
783E00
3C7C00
0FF000
ENDCHAR
STARTCHAR uni01F5
ENCODING 501
SWIDTH 522 0
DWIDTH 13 0
BBX 16 24 -2 -5
BITMAP
0020
0070
00F0
01C0
0300
0000
03F9
0F3F
1E3C
3E3C
3E3C
3E3C
1E78
07E0
1E00
3F80
1FE0
0FF8
1FFC
78FC
F03C
F038
7870
1FC0
ENDCHAR
STARTCHAR uni01F8
ENCODING 504
SWIDTH 741 0
DWIDTH 19 0
BBX 20 23 -1 0
BITMAP
010000
038000
03C000
00E000
003000
000000
1F81F0
0F80E0
0FC0C0
0FC0C0
0FE0C0
1BE180
1BF180
19F180
19F980
18F980
18FD80
307D00
307F00
303F00
303F00
701F00
F81F00
ENDCHAR
STARTCHAR uni01F9
ENCODING 505
SWIDTH 635 0
DWIDTH 16 0
BBX 16 19 0 0
BITMAP
0400
0E00
0F00
0380
00C0
0000
1E3C
FE7E
3EBE
3D3E
3E3E
7E7C
7C7C
7C7C
7C7C
F8F9
F8FA
F8FC
F878
ENDCHAR
STARTCHAR Aringacute
ENCODING 506
SWIDTH 634 0
DWIDTH 16 0
BBX 18 27 -2 0
BITMAP
000400
000E00
001E00
003800
006000
000000
003C00
006600
006600
006600
003C00
000000
003C00
007C00
007C00
00BC00
01BE00
013E00
023E00
063E00
07FE00
081F00
181F00
101F00
201F00
601F80
F83FC0
ENDCHAR
STARTCHAR aringacute
ENCODING 507
SWIDTH 596 0
DWIDTH 15 0
BBX 15 25 0 0
BITMAP
0010
0038
0078
00E0
0180
0000
00F0
0198
0198
0198
00F0
0000
07FC
1E7C
3C7C
3C7C
7CF8
78F8
F8F8
F8F8
F9F0
F9F2
FBF4
7DF8
38F0
ENDCHAR
STARTCHAR AEacute
ENCODING 508
SWIDTH 890 0
DWIDTH 22 0
BBX 24 23 -2 0
BITMAP
000080
0001C0
0003C0
000700
000C00
000000
007FFF
001FC7
002F82
006F82
004F80
008F84
019F0C
011FFC
021F08
061F08
07FF00
083E00
183E02
103E06
203E0E
607E1C
F0FFFC
ENDCHAR
STARTCHAR aeacute
ENCODING 509
SWIDTH 789 0
DWIDTH 20 0
BBX 20 20 0 0
BITMAP
000400
000E00
001E00
003800
006000
000000
000400
07FDE0
1E7EF0
3C7CF0
3C7CF0
7CFDE0
78F9C0
F8FB80
F8FE00
F9F800
F9F820
FAF860
7C7CC0
383F00
ENDCHAR
STARTCHAR Oslashacute
ENCODING 510
SWIDTH 761 0
DWIDTH 19 0
BBX 18 25 0 -1
BITMAP
000800
001C00
003C00
007000
00C000
000000
000080
03FD80
0F8F00
1F0780
3E0F80
3E1FC0
7C37C0
7C27C0
7C47C0
F8C7C0
F98F80
F90F80
FA0F80
FE1F00
7C1F00
783E00
3C7C00
6FF000
400000
ENDCHAR
STARTCHAR oslashacute
ENCODING 511
SWIDTH 562 0
DWIDTH 14 0
BBX 14 19 0 0
BITMAP
0020
0070
00F0
01C0
0300
0000
07F4
1EF8
3C7C
7C7C
7CFC
F97C
F97C
FA7C
FCF8
F8F8
F8F0
7DE0
BF80
ENDCHAR
STARTCHAR Scommaaccent
ENCODING 536
SWIDTH 551 0
DWIDTH 14 0
BBX 13 27 0 -10
BITMAP
03F8
0F38
1E10
3E10
3E00
3F00
3F80
1FC0
0FE0
07F0
03F0
01F0
41F0
41F0
E1E0
F3C0
7F00
0000
0600
0F00
0F00
0700
0600
0600
0C00
1800
1000
ENDCHAR
STARTCHAR scommaaccent
ENCODING 537
SWIDTH 417 0
DWIDTH 10 0
BBX 12 23 -1 -10
BITMAP
07E0
1CF0
3C70
3E20
3F00
1F00
1F80
0FC0
07C0
43C0
E3C0
F380
7E00
0000
0C00
1E00
1E00
0E00
0C00
0C00
1800
3000
2000
ENDCHAR
STARTCHAR Tcommaaccent
ENCODING 538
SWIDTH 616 0
DWIDTH 16 0
BBX 16 27 1 -10
BITMAP
FFFF
E7E7
C7C2
87C2
07C0
0F80
0F80
0F80
0F80
0F80
0F80
1F00
1F00
1F00
1F00
3F00
7F80
0000
0600
0F00
0F00
0700
0600
0600
0C00
1800
1000
ENDCHAR
STARTCHAR tcommaaccent
ENCODING 539
SWIDTH 359 0
DWIDTH 9 0
BBX 10 27 0 -10
BITMAP
0200
0600
1E00
3E00
FFC0
3E00
3E00
7C00
7C00
7C00
7C00
7C00
F800
F900
FA00
FC00
7800
0000
1800
3C00
3C00
1C00
1800
1800
3000
6000
4000
ENDCHAR
STARTCHAR uni021E
ENCODING 542
SWIDTH 800 0
DWIDTH 20 0
BBX 21 22 -1 0
BITMAP
018600
00CC00
007800
003000
000000
1FE7F8
0FC3F0
0F83E0
0F83E0
0F83E0
1F07C0
1F07C0
1F07C0
1FFFC0
1F07C0
1F07C0
3E0F80
3E0F80
3E0F80
3E0F80
7E1F80
FF3FC0
ENDCHAR
STARTCHAR uni021F
ENCODING 543
SWIDTH 629 0
DWIDTH 16 0
BBX 16 24 0 0
BITMAP
30C0
1980
0F00
0600
0000
0F00
7F00
1F00
1F00
1F00
3E00
3E3C
3E7E
3EBE
3D3E
7E7C
7E7C
7C7C
7C7C
7C7C
F8F9
F8FA
F8FC
F878
ENDCHAR
STARTCHAR uni0226
ENCODING 550
SWIDTH 634 0
DWIDTH 16 0
BBX 18 22 -2 0
BITMAP
006000
00F000
00F000
006000
000000
007C00
007C00
00FC00
00FC00
01FC00
013E00
033E00
023E00
063E00
043E00
0FFE00
081F00
181F00
101F00
301F00
701F80
F83FC0
ENDCHAR
STARTCHAR uni0227
ENCODING 551
SWIDTH 596 0
DWIDTH 15 0
BBX 15 18 0 0
BITMAP
0180
03C0
03C0
0180
0000
07FC
1E7C
3C7C
3C7C
7CF8
78F8
F8F8
F8F8
F9F0
F9F2
FBF4
7DF8
38F0
ENDCHAR
STARTCHAR uni0228
ENCODING 552
SWIDTH 622 0
DWIDTH 16 0
BBX 16 22 -1 -5
BITMAP
1FFF
0FC7
0F82
0F82
0F80
0F84
1F0C
1FFC
1F08
1F08
1F00
3E00
3E02
3E06
3E0E
7E1C
FFFC
0100
0380
00C0
00C0
0780
ENDCHAR
STARTCHAR uni0229
ENCODING 553
SWIDTH 476 0
DWIDTH 12 0
BBX 12 18 0 -5
BITMAP
07E0
1EF0
3CF0
7CF0
7DE0
F9C0
FB80
FE00
F800
F820
F860
7CC0
3F00
0400
0E00
0300
0300
1E00
ENDCHAR
STARTCHAR uni022A
ENCODING 554
SWIDTH 761 0
DWIDTH 19 0
BBX 18 23 0 0
BITMAP
03FC00
03FC00
000000
018600
03CF00
03CF00
018600
000000
03FC00
0F8F00
1F0780
3E0780
3E07C0
7C07C0
7C07C0
F807C0
F80F80
F80F80
F81F00
781F00
783E00
3C7C00
0FF000
ENDCHAR
STARTCHAR uni022B
ENCODING 555
SWIDTH 562 0
DWIDTH 14 0
BBX 14 21 0 0
BITMAP
0FF0
0FF0
0000
0C30
1E78
1E78
0C30
0000
07F0
1EF8
3C7C
7C7C
7C7C
F87C
F87C
F87C
F8F8
F8F8
F8F0
7DE0
3F80
ENDCHAR
STARTCHAR uni022C
ENCODING 556
SWIDTH 761 0
DWIDTH 19 0
BBX 18 22 0 0
BITMAP
03FC00
03FC00
000000
01C600
03FC00
063800
000000
03FC00
0F8F00
1F0780
3E0780
3E07C0
7C07C0
7C07C0
F807C0
F80F80
F80F80
F81F00
781F00
783E00
3C7C00
0FF000
ENDCHAR
STARTCHAR uni022D
ENCODING 557
SWIDTH 562 0
DWIDTH 14 0
BBX 14 20 0 0
BITMAP
0FF0
0FF0
0000
038C
07F8
0C70
0000
07F0
1EF8
3C7C
7C7C
7C7C
F87C
F87C
F87C
F8F8
F8F8
F8F0
7DE0
3F80
ENDCHAR
STARTCHAR uni022E
ENCODING 558
SWIDTH 761 0
DWIDTH 19 0
BBX 18 22 0 0
BITMAP
00C000
01E000
01E000
00C000
000000
03FC00
0F8F00
1F0780
3E0780
3E07C0
7C07C0
7C07C0
7C07C0
F807C0
F80F80
F80F80
F80F80
F81F00
781F00
783E00
3C7C00
0FF000
ENDCHAR
STARTCHAR uni022F
ENCODING 559
SWIDTH 562 0
DWIDTH 14 0
BBX 14 18 0 0
BITMAP
0180
03C0
03C0
0180
0000
07F0
1EF8
3C7C
7C7C
7C7C
F87C
F87C
F87C
F8F8
F8F8
F8F0
7DE0
3F80
ENDCHAR
STARTCHAR uni0230
ENCODING 560
SWIDTH 761 0
DWIDTH 19 0
BBX 18 25 0 0
BITMAP
07F800
07F800
000000
00C000
01E000
01E000
00C000
000000
03FC00
0F8F00
1F0780
3E0780
3E07C0
7C07C0
7C07C0
7C07C0
F807C0
F80F80
F80F80
F80F80
F81F00
781F00
783E00
3C7C00
0FF000
ENDCHAR
STARTCHAR uni0231
ENCODING 561
SWIDTH 562 0
DWIDTH 14 0
BBX 14 21 0 0
BITMAP
0FF0
0FF0
0000
0180
03C0
03C0
0180
0000
07F0
1EF8
3C7C
7C7C
7C7C
F87C
F87C
F87C
F8F8
F8F8
F8F0
7DE0
3F80
ENDCHAR
STARTCHAR uni0232
ENCODING 562
SWIDTH 622 0
DWIDTH 16 0
BBX 16 20 1 0
BITMAP
1FE0
1FE0
0000
FE1F
7C0E
7C0C
7C18
3E30
3E20
3E40
3EC0
1F80
1F00
1F00
1F00
3E00
3E00
3E00
7E00
FF00
ENDCHAR
STARTCHAR uni0233
ENCODING 563
SWIDTH 489 0
DWIDTH 12 0
BBX 15 21 -3 -5
BITMAP
07F8
07F8
0000
078E
3F9E
0F8E
0F8E
0F8E
0F8C
07CC
07C8
07D0
07D0
07E0
07C0
0780
0780
6700
F600
F400
7800
ENDCHAR
STARTCHAR uni0250
ENCODING 592
SWIDTH 596 0
DWIDTH 15 0
BBX 15 13 0 0
BITMAP
1E38
3F7C
5FBE
9F3E
1F3E
3E3E
3E3E
3E3C
3E7C
7C78
7C78
7CF0
7FC0
ENDCHAR
STARTCHAR uni0259
ENCODING 601
SWIDTH 476 0
DWIDTH 12 0
BBX 12 13 0 0
BITMAP
0FC0
33E0
61F0
41F0
01F0
07F0
1DF0
39F0
7BE0
F3E0
F3C0
F780
7E00
ENDCHAR
STARTCHAR uni025F
ENCODING 607
SWIDTH 348 0
DWIDTH 9 0
BBX 16 24 -4 -12
BITMAP
003E
0077
00F3
01F0
01F0
01F0
01F0
01F0
03E0
03E0
03E0
03E0
03E0
07C0
07C0
07C0
07C0
3FF0
0F80
0F80
0F80
CF00
EE00
7C00
ENDCHAR
STARTCHAR uni0265
ENCODING 613
SWIDTH 629 0
DWIDTH 16 0
BBX 16 19 0 -7
BITMAP
1E1F
3F1F
5F1F
9F1F
3E3E
3E3E
3E3E
3E7E
3E7E
7CBC
7D7C
7E7C
3C7C
007C
00F8
00F8
00F8
00FE
00F0
ENDCHAR
STARTCHAR uni0275
ENCODING 629
SWIDTH 562 0
DWIDTH 14 0
BBX 14 13 0 0
BITMAP
07F0
1EF8
3C7C
7C7C
7C7C
F87C
FFFC
F87C
F8F8
F8F8
F8F0
7DE0
3F80
ENDCHAR
STARTCHAR uni0279
ENCODING 633
SWIDTH 440 0
DWIDTH 11 0
BBX 13 13 0 0
BITMAP
00F8
00F8
00F8
00F8
01F0
01F0
01F0
01F0
03E0
63E0
F7E0
FBF8
73C0
ENDCHAR
STARTCHAR uni0287
ENCODING 647
SWIDTH 359 0
DWIDTH 9 0
BBX 10 17 0 0
BITMAP
0780
0FC0
17C0
27C0
07C0
0F80
0F80
0F80
0F80
0F80
1F00
1F00
FFC0
1F00
1E00
1800
1000
ENDCHAR
STARTCHAR uni0289
ENCODING 649
SWIDTH 634 0
DWIDTH 16 0
BBX 16 13 0 0
BITMAP
1E3E
FE3E
3E3E
3E3E
7C7C
7C7C
FFFF
7CFC
7CFC
F979
FAFA
FCFC
7878
ENDCHAR
STARTCHAR uni028C
ENCODING 652
SWIDTH 518 0
DWIDTH 13 0
BBX 13 13 0 0
BITMAP
03F0
04F8
08F8
18F8
10F8
31F0
61F0
61F0
61F0
E1E0
E3E0
F3F0
E3C0
ENDCHAR
STARTCHAR uni028D
ENCODING 653
SWIDTH 795 0
DWIDTH 20 0
BBX 20 13 0 0
BITMAP
03E3E0
07F5F0
09F9F0
19F1F0
11F1F0
31F3E0
61E3E0
61E3E0
63E3E0
E3E3C0
E3C7C0
E3C7E0
E7C780
ENDCHAR
STARTCHAR uni028E
ENCODING 654
SWIDTH 489 0
DWIDTH 12 0
BBX 15 18 -3 0
BITMAP
003C
005E
00DE
01CC
03C0
03C0
07C0
0FC0
17C0
17C0
27C0
67C0
63E0
E3E0
E3E0
E3E0
F3F8
E3C0
ENDCHAR
STARTCHAR uni029E
ENCODING 670
SWIDTH 570 0
DWIDTH 15 0
BBX 15 19 0 -7
BITMAP
3C3E
7E3E
7E3E
9E7C
1F7C
1F7C
0FFC
0F78
0EF8
4CF8
F8F8
F0F8
C1F0
01F0
01F0
01F0
03E0
03FC
03E0
ENDCHAR
STARTCHAR uni02BB
ENCODING 699
SWIDTH 246 0
DWIDTH 6 0
BBX 5 9 1 8
BITMAP
08
18
30
60
60
E0
F0
F0
60
ENDCHAR
STARTCHAR afii57929
ENCODING 700
SWIDTH 246 0
DWIDTH 6 0
BBX 5 9 0 8
BITMAP
30
78
78
38
30
30
60
C0
80
ENDCHAR
STARTCHAR afii64937
ENCODING 701
SWIDTH 246 0
DWIDTH 6 0
BBX 5 9 0 8
BITMAP
60
F0
F0
E0
60
60
30
18
08
ENDCHAR
STARTCHAR circumflex
ENCODING 710
SWIDTH 400 0
DWIDTH 10 0
BBX 8 4 1 14
BITMAP
18
3C
66
C3
ENDCHAR
STARTCHAR caron
ENCODING 711
SWIDTH 400 0
DWIDTH 10 0
BBX 8 4 1 14
BITMAP
C3
66
3C
18
ENDCHAR
STARTCHAR uni02C8
ENCODING 712
SWIDTH 246 0
DWIDTH 6 0
BBX 4 9 1 8
BITMAP
70
70
60
60
E0
C0
C0
C0
80
ENDCHAR
STARTCHAR macron
ENCODING 713
SWIDTH 400 0
DWIDTH 10 0
BBX 8 2 1 14
BITMAP
FF
FF
ENDCHAR
STARTCHAR uni02CA
ENCODING 714
SWIDTH 400 0
DWIDTH 10 0
BBX 6 5 2 14
BITMAP
08
1C
3C
70
C0
ENDCHAR
STARTCHAR uni02CB
ENCODING 715
SWIDTH 400 0
DWIDTH 10 0
BBX 6 5 2 14
BITMAP
40
E0
F0
38
0C
ENDCHAR
STARTCHAR uni02CD
ENCODING 717
SWIDTH 400 0
DWIDTH 10 0
BBX 8 2 1 -3
BITMAP
FF
FF
ENDCHAR
STARTCHAR uni02CE
ENCODING 718
SWIDTH 400 0
DWIDTH 10 0
BBX 6 5 2 -6
BITMAP
40
E0
F0
38
0C
ENDCHAR
STARTCHAR uni02CF
ENCODING 719
SWIDTH 400 0
DWIDTH 10 0
BBX 6 5 2 -6
BITMAP
08
1C
3C
70
C0
ENDCHAR
STARTCHAR breve
ENCODING 728
SWIDTH 400 0
DWIDTH 10 0
BBX 8 4 1 14
BITMAP
81
C3
7E
3C
ENDCHAR
STARTCHAR dotaccent
ENCODING 729
SWIDTH 402 0
DWIDTH 10 0
BBX 4 4 3 14
BITMAP
60
F0
F0
60
ENDCHAR
STARTCHAR ring
ENCODING 730
SWIDTH 400 0
DWIDTH 10 0
BBX 6 5 2 14
BITMAP
78
CC
CC
CC
78
ENDCHAR
STARTCHAR ogonek
ENCODING 731
SWIDTH 350 0
DWIDTH 9 0
BBX 5 5 2 -5
BITMAP
30
60
C0
C8
70
ENDCHAR
STARTCHAR tilde
ENCODING 732
SWIDTH 400 0
DWIDTH 10 0
BBX 10 3 0 14
BITMAP
38C0
7F80
C700
ENDCHAR
STARTCHAR hungarumlaut
ENCODING 733
SWIDTH 400 0
DWIDTH 10 0
BBX 7 5 1 14
BITMAP
66
66
CC
CC
88
ENDCHAR
STARTCHAR uni02EE
ENCODING 750
SWIDTH 455 0
DWIDTH 11 0
BBX 10 9 1 8
BITMAP
3180
7BC0
7BC0
39C0
3180
3180
6300
C600
8400
ENDCHAR
STARTCHAR uni037E
ENCODING 894
SWIDTH 280 0
DWIDTH 7 0
BBX 7 17 -1 -5
BITMAP
0C
1E
1E
0C
00
00
00
00
30
78
78
38
30
30
60
C0
80
ENDCHAR
STARTCHAR tonos
ENCODING 900
SWIDTH 400 0
DWIDTH 10 0
BBX 6 5 2 14
BITMAP
08
1C
3C
70
C0
ENDCHAR
STARTCHAR dieresistonos
ENCODING 901
SWIDTH 400 0
DWIDTH 10 0
BBX 10 10 0 14
BITMAP
0100
0380
0780
0E00
1800
0000
6180
F3C0
F3C0
6180
ENDCHAR
STARTCHAR anoteleia
ENCODING 903
SWIDTH 280 0
DWIDTH 7 0
BBX 4 4 1 4
BITMAP
60
F0
F0
60
ENDCHAR
STARTCHAR mu
ENCODING 956
SWIDTH 634 0
DWIDTH 16 0
BBX 17 18 -1 -5
BITMAP
0F1F00
7F1F00
1F1F00
1F1F00
3E3E00
3E3E00
3E3E00
3E7E00
3E7E00
7CBC80
7D7D00
7E7E00
7C3C00
600000
E00000
E00000
E00000
400000
ENDCHAR
STARTCHAR uni1E00
ENCODING 7680
SWIDTH 634 0
DWIDTH 16 0
BBX 18 23 -2 -6
BITMAP
007C00
007C00
00FC00
00FC00
01FC00
013E00
033E00
023E00
063E00
043E00
0FFE00
081F00
181F00
101F00
301F00
701F80
F83FC0
000000
00F000
019800
019800
019800
00F000
ENDCHAR
STARTCHAR uni1E01
ENCODING 7681
SWIDTH 596 0
DWIDTH 15 0
BBX 15 19 0 -6
BITMAP
07FC
1E7C
3C7C
3C7C
7CF8
78F8
F8F8
F8F8
F9F0
F9F2
FBF4
7DF8
38F0
0000
0780
0CC0
0CC0
0CC0
0780
ENDCHAR
STARTCHAR uni1E02
ENCODING 7682
SWIDTH 680 0
DWIDTH 17 0
BBX 17 22 -1 0
BITMAP
006000
00F000
00F000
006000
000000
1FFE00
0FCF00
0F8F80
0F8F80
0F8F80
0F8F00
1F1E00
1FF800
1F3E00
1F1F00
1F1F00
3E1F00
3E1F00
3E1F00
3E1E00
7E3C00
FFF000
ENDCHAR
STARTCHAR uni1E03
ENCODING 7683
SWIDTH 586 0
DWIDTH 15 0
BBX 14 24 0 0
BITMAP
0600
0F00
0F00
0600
0000
0F00
7F00
1F00
1F00
1F00
3E00
3E70
3EF8
3D7C
7E7C
7C7C
7C7C
7C7C
7C78
F8F8
F8F0
F8F0
FDE0
E780
ENDCHAR
STARTCHAR uni1E04
ENCODING 7684
SWIDTH 680 0
DWIDTH 17 0
BBX 17 22 -1 -5
BITMAP
1FFE00
0FCF00
0F8F80
0F8F80
0F8F80
0F8F00
1F1E00
1FF800
1F3E00
1F1F00
1F1F00
3E1F00
3E1F00
3E1F00
3E1E00
7E3C00
FFF000
000000
018000
03C000
03C000
018000
ENDCHAR
STARTCHAR uni1E05
ENCODING 7685
SWIDTH 586 0
DWIDTH 15 0
BBX 14 24 0 -5
BITMAP
0F00
7F00
1F00
1F00
1F00
3E00
3E70
3EF8
3D7C
7E7C
7C7C
7C7C
7C7C
7C78
F8F8
F8F0
F8F0
FDE0
E780
0000
0600
0F00
0F00
0600
ENDCHAR
STARTCHAR uni1E06
ENCODING 7686
SWIDTH 680 0
DWIDTH 17 0
BBX 17 20 -1 -3
BITMAP
1FFE00
0FCF00
0F8F80
0F8F80
0F8F80
0F8F00
1F1E00
1FF800
1F3E00
1F1F00
1F1F00
3E1F00
3E1F00
3E1F00
3E1E00
7E3C00
FFF000
000000
0FF000
0FF000
ENDCHAR
STARTCHAR uni1E07
ENCODING 7687
SWIDTH 586 0
DWIDTH 15 0
BBX 14 22 0 -3
BITMAP
0F00
7F00
1F00
1F00
1F00
3E00
3E70
3EF8
3D7C
7E7C
7C7C
7C7C
7C7C
7C78
F8F8
F8F0
F8F0
FDE0
E780
0000
3FC0
3FC0
ENDCHAR
STARTCHAR uni1E08
ENCODING 7688
SWIDTH 672 0
DWIDTH 17 0
BBX 16 28 0 -5
BITMAP
0040
00E0
01E0
0380
0600
0000
03FF
0F87
1F02
3E02
3E00
7C00
7C00
7C00
F800
F800
F800
F800
F804
780C
781C
3C38
0FE0
0100
0380
00C0
00C0
0780
ENDCHAR
STARTCHAR uni1E09
ENCODING 7689
SWIDTH 456 0
DWIDTH 12 0
BBX 11 24 1 -5
BITMAP
0100
0380
0780
0E00
1800
0000
07C0
1EE0
3CE0
7C40
7800
F800
F800
F000
F000
F040
F0C0
7180
3E00
0400
0E00
0300
0300
1E00
ENDCHAR
STARTCHAR uni1E0A
ENCODING 7690
SWIDTH 774 0
DWIDTH 20 0
BBX 20 22 -1 0
BITMAP
003000
007800
007800
003000
000000
1FFF00
0FC3C0
0F81E0
0F81E0
0F81F0
0F81F0
1F01F0
1F01F0
1F01F0
1F03E0
1F03E0
3E03E0
3E07C0
3E07C0
3E0F80
7E1F00
FFFC00
ENDCHAR
STARTCHAR uni1E0B
ENCODING 7691
SWIDTH 609 0
DWIDTH 15 0
BBX 15 24 0 0
BITMAP
0030
0078
0078
0030
0000
001E
00FE
003E
003E
003E
007C
07FC
1E7C
3C7C
3C7C
7CF8
78F8
F8F8
F8F8
F9F0
F9F2
FBF4
7DF8
38F0
ENDCHAR
STARTCHAR uni1E0C
ENCODING 7692
SWIDTH 774 0
DWIDTH 20 0
BBX 20 22 -1 -5
BITMAP
1FFF00
0FC3C0
0F81E0
0F81E0
0F81F0
0F81F0
1F01F0
1F01F0
1F01F0
1F03E0
1F03E0
3E03E0
3E07C0
3E07C0
3E0F80
7E1F00
FFFC00
000000
00C000
01E000
01E000
00C000
ENDCHAR
STARTCHAR uni1E0D
ENCODING 7693
SWIDTH 609 0
DWIDTH 15 0
BBX 15 24 0 -5
BITMAP
001E
00FE
003E
003E
003E
007C
07FC
1E7C
3C7C
3C7C
7CF8
78F8
F8F8
F8F8
F9F0
F9F2
FBF4
7DF8
38F0
0000
0300
0780
0780
0300
ENDCHAR
STARTCHAR uni1E0E
ENCODING 7694
SWIDTH 774 0
DWIDTH 20 0
BBX 20 20 -1 -3
BITMAP
1FFF00
0FC3C0
0F81E0
0F81E0
0F81F0
0F81F0
1F01F0
1F01F0
1F01F0
1F03E0
1F03E0
3E03E0
3E07C0
3E07C0
3E0F80
7E1F00
FFFC00
000000
07F800
07F800
ENDCHAR
STARTCHAR uni1E0F
ENCODING 7695
SWIDTH 609 0
DWIDTH 15 0
BBX 15 22 0 -3
BITMAP
001E
00FE
003E
003E
003E
007C
07FC
1E7C
3C7C
3C7C
7CF8
78F8
F8F8
F8F8
F9F0
F9F2
FBF4
7DF8
38F0
0000
1FE0
1FE0
ENDCHAR
STARTCHAR uni1E10
ENCODING 7696
SWIDTH 774 0
DWIDTH 20 0
BBX 20 22 -1 -5
BITMAP
1FFF00
0FC3C0
0F81E0
0F81E0
0F81F0
0F81F0
1F01F0
1F01F0
1F01F0
1F03E0
1F03E0
3E03E0
3E07C0
3E07C0
3E0F80
7E1F00
FFFC00
004000
00E000
003000
003000
01E000
ENDCHAR
STARTCHAR uni1E11
ENCODING 7697
SWIDTH 609 0
DWIDTH 15 0
BBX 15 24 0 -5
BITMAP
001E
00FE
003E
003E
003E
007C
07FC
1E7C
3C7C
3C7C
7CF8
78F8
F8F8
F8F8
F9F0
F9F2
FBF4
7DF8
38F0
0200
0700
0180
0180
0F00
ENDCHAR
STARTCHAR uni1E12
ENCODING 7698
SWIDTH 774 0
DWIDTH 20 0
BBX 20 22 -1 -5
BITMAP
1FFF00
0FC3C0
0F81E0
0F81E0
0F81F0
0F81F0
1F01F0
1F01F0
1F01F0
1F03E0
1F03E0
3E03E0
3E07C0
3E07C0
3E0F80
7E1F00
FFFC00
000000
00C000
01E000
033000
061800
ENDCHAR
STARTCHAR uni1E13
ENCODING 7699
SWIDTH 609 0
DWIDTH 15 0
BBX 15 24 0 -5
BITMAP
001E
00FE
003E
003E
003E
007C
07FC
1E7C
3C7C
3C7C
7CF8
78F8
F8F8
F8F8
F9F0
F9F2
FBF4
7DF8
38F0
0000
0300
0780
0CC0
1860
ENDCHAR
STARTCHAR uni1E14
ENCODING 7700
SWIDTH 622 0
DWIDTH 16 0
BBX 16 26 -1 0
BITMAP
0200
0700
0780
01C0
0060
0000
0FF0
0FF0
0000
1FFF
0FC7
0F82
0F82
0F80
0F84
1F0C
1FFC
1F08
1F08
1F00
3E00
3E02
3E06
3E0E
7E1C
FFFC
ENDCHAR
STARTCHAR uni1E15
ENCODING 7701
SWIDTH 476 0
DWIDTH 12 0
BBX 12 22 0 0
BITMAP
0800
1C00
1E00
0700
0180
0000
1FE0
1FE0
0000
07E0
1EF0
3CF0
7CF0
7DE0
F9C0
FB80
FE00
F800
F820
F860
7CC0
3F00
ENDCHAR
STARTCHAR uni1E16
ENCODING 7702
SWIDTH 622 0
DWIDTH 16 0
BBX 16 26 -1 0
BITMAP
0020
0070
00F0
01C0
0300
0000
0FF0
0FF0
0000
1FFF
0FC7
0F82
0F82
0F80
0F84
1F0C
1FFC
1F08
1F08
1F00
3E00
3E02
3E06
3E0E
7E1C
FFFC
ENDCHAR
STARTCHAR uni1E17
ENCODING 7703
SWIDTH 476 0
DWIDTH 12 0
BBX 12 22 0 0
BITMAP
0040
00E0
01E0
0380
0600
0000
1FE0
1FE0
0000
07E0
1EF0
3CF0
7CF0
7DE0
F9C0
FB80
FE00
F800
F820
F860
7CC0
3F00
ENDCHAR
STARTCHAR uni1E18
ENCODING 7704
SWIDTH 622 0
DWIDTH 16 0
BBX 16 22 -1 -5
BITMAP
1FFF
0FC7
0F82
0F82
0F80
0F84
1F0C
1FFC
1F08
1F08
1F00
3E00
3E02
3E06
3E0E
7E1C
FFFC
0000
0300
0780
0CC0
1860
ENDCHAR
STARTCHAR uni1E19
ENCODING 7705
SWIDTH 476 0
DWIDTH 12 0
BBX 12 18 0 -5
BITMAP
07E0
1EF0
3CF0
7CF0
7DE0
F9C0
FB80
FE00
F800
F820
F860
7CC0
3F00
0000
0C00
1E00
3300
6180
ENDCHAR
STARTCHAR uni1E1A
ENCODING 7706
SWIDTH 622 0
DWIDTH 16 0
BBX 16 21 -1 -4
BITMAP
1FFF
0FC7
0F82
0F82
0F80
0F84
1F0C
1FFC
1F08
1F08
1F00
3E00
3E02
3E06
3E0E
7E1C
FFFC
0000
0E30
1FE0
31C0
ENDCHAR
STARTCHAR uni1E1B
ENCODING 7707
SWIDTH 476 0
DWIDTH 12 0
BBX 12 17 0 -4
BITMAP
07E0
1EF0
3CF0
7CF0
7DE0
F9C0
FB80
FE00
F800
F820
F860
7CC0
3F00
0000
38C0
7F80
C700
ENDCHAR
STARTCHAR uni1E1C
ENCODING 7708
SWIDTH 622 0
DWIDTH 16 0
BBX 16 27 -1 -5
BITMAP
0810
0C30
07E0
03C0
0000
1FFF
0FC7
0F82
0F82
0F80
0F84
1F0C
1FFC
1F08
1F08
1F00
3E00
3E02
3E06
3E0E
7E1C
FFFC
0100
0380
00C0
00C0
0780
ENDCHAR
STARTCHAR uni1E1D
ENCODING 7709
SWIDTH 476 0
DWIDTH 12 0
BBX 12 23 0 -5
BITMAP
1020
1860
0FC0
0780
0000
07E0
1EF0
3CF0
7CF0
7DE0
F9C0
FB80
FE00
F800
F820
F860
7CC0
3F00
0400
0E00
0300
0300
1E00
ENDCHAR
STARTCHAR uni1E1E
ENCODING 7710
SWIDTH 585 0
DWIDTH 15 0
BBX 16 22 -1 0
BITMAP
0180
03C0
03C0
0180
0000
1FFF
0FC7
0F82
0F82
0F80
1F00
1F04
1F0C
1FFC
1F08
1F08
3E00
3E00
3E00
3E00
7E00
FF00
ENDCHAR
STARTCHAR uni1E1F
ENCODING 7711
SWIDTH 348 0
DWIDTH 9 0
BBX 16 29 -4 -5
BITMAP
0060
00F0
00F0
0060
0000
003E
0077
00F3
01F0
01F0
01F0
0FFC
03E0
03E0
03E0
03E0
07C0
07C0
07C0
07C0
07C0
0F80
0F80
0F80
0F80
0F80
CF00
EE00
7C00
ENDCHAR
STARTCHAR uni1E20
ENCODING 7712
SWIDTH 726 0
DWIDTH 18 0
BBX 17 20 0 0
BITMAP
0FF000
0FF000
000000
03FF00
0F8700
1F0200
3E0200
3E0000
7C0000
7C0000
7C0000
F80000
F80000
F8FF80
F83E00
F83E00
783E00
783E00
3C7C00
0FF000
ENDCHAR
STARTCHAR uni1E21
ENCODING 7713
SWIDTH 522 0
DWIDTH 13 0
BBX 16 21 -2 -5
BITMAP
07F8
07F8
0000
03F9
0F3F
1E3C
3E3C
3E3C
3E3C
1E78
07E0
1E00
3F80
1FE0
0FF8
1FFC
78FC
F03C
F038
7870
1FC0
ENDCHAR
STARTCHAR uni1E22
ENCODING 7714
SWIDTH 800 0
DWIDTH 20 0
BBX 21 22 -1 0
BITMAP
003000
007800
007800
003000
000000
1FE7F8
0FC3F0
0F83E0
0F83E0
0F83E0
1F07C0
1F07C0
1F07C0
1FFFC0
1F07C0
1F07C0
3E0F80
3E0F80
3E0F80
3E0F80
7E1F80
FF3FC0
ENDCHAR
STARTCHAR uni1E23
ENCODING 7715
SWIDTH 629 0
DWIDTH 16 0
BBX 16 24 0 0
BITMAP
0600
0F00
0F00
0600
0000
0F00
7F00
1F00
1F00
1F00
3E00
3E3C
3E7E
3EBE
3D3E
7E7C
7E7C
7C7C
7C7C
7C7C
F8F9
F8FA
F8FC
F878
ENDCHAR
STARTCHAR uni1E24
ENCODING 7716
SWIDTH 800 0
DWIDTH 20 0
BBX 21 22 -1 -5
BITMAP
1FE7F8
0FC3F0
0F83E0
0F83E0
0F83E0
1F07C0
1F07C0
1F07C0
1FFFC0
1F07C0
1F07C0
3E0F80
3E0F80
3E0F80
3E0F80
7E1F80
FF3FC0
000000
006000
00F000
00F000
006000
ENDCHAR
STARTCHAR uni1E25
ENCODING 7717
SWIDTH 629 0
DWIDTH 16 0
BBX 16 24 0 -5
BITMAP
0F00
7F00
1F00
1F00
1F00
3E00
3E3C
3E7E
3EBE
3D3E
7E7C
7E7C
7C7C
7C7C
7C7C
F8F9
F8FA
F8FC
F878
0000
0300
0780
0780
0300
ENDCHAR
STARTCHAR uni1E26
ENCODING 7718
SWIDTH 800 0
DWIDTH 20 0
BBX 21 22 -1 0
BITMAP
018600
03CF00
03CF00
018600
000000
1FE7F8
0FC3F0
0F83E0
0F83E0
0F83E0
1F07C0
1F07C0
1F07C0
1FFFC0
1F07C0
1F07C0
3E0F80
3E0F80
3E0F80
3E0F80
7E1F80
FF3FC0
ENDCHAR
STARTCHAR uni1E27
ENCODING 7719
SWIDTH 629 0
DWIDTH 16 0
BBX 16 24 0 0
BITMAP
30C0
79E0
79E0
30C0
0000
0F00
7F00
1F00
1F00
1F00
3E00
3E3C
3E7E
3EBE
3D3E
7E7C
7E7C
7C7C
7C7C
7C7C
F8F9
F8FA
F8FC
F878
ENDCHAR
STARTCHAR uni1E28
ENCODING 7720
SWIDTH 800 0
DWIDTH 20 0
BBX 21 22 -1 -5
BITMAP
1FE7F8
0FC3F0
0F83E0
0F83E0
0F83E0
1F07C0
1F07C0
1F07C0
1FFFC0
1F07C0
1F07C0
3E0F80
3E0F80
3E0F80
3E0F80
7E1F80
FF3FC0
004000
00E000
003000
003000
01E000
ENDCHAR
STARTCHAR uni1E29
ENCODING 7721
SWIDTH 629 0
DWIDTH 16 0
BBX 16 24 0 -5
BITMAP
0F00
7F00
1F00
1F00
1F00
3E00
3E3C
3E7E
3EBE
3D3E
7E7C
7E7C
7C7C
7C7C
7C7C
F8F9
F8FA
F8FC
F878
0100
0380
00C0
00C0
0780
ENDCHAR
STARTCHAR uni1E2A
ENCODING 7722
SWIDTH 800 0
DWIDTH 20 0
BBX 21 22 -1 -5
BITMAP
1FE7F8
0FC3F0
0F83E0
0F83E0
0F83E0
1F07C0
1F07C0
1F07C0
1FFFC0
1F07C0
1F07C0
3E0F80
3E0F80
3E0F80
3E0F80
7E1F80
FF3FC0
000000
020400
030C00
01F800
00F000
ENDCHAR
STARTCHAR uni1E2B
ENCODING 7723
SWIDTH 629 0
DWIDTH 16 0
BBX 16 24 0 -5
BITMAP
0F00
7F00
1F00
1F00
1F00
3E00
3E3C
3E7E
3EBE
3D3E
7E7C
7E7C
7C7C
7C7C
7C7C
F8F9
F8FA
F8FC
F878
0000
1020
1860
0FC0
0780
ENDCHAR
STARTCHAR uni1E2C
ENCODING 7724
SWIDTH 386 0
DWIDTH 10 0
BBX 12 21 -2 -4
BITMAP
0FF0
07E0
07C0
07C0
07C0
0F80
0F80
0F80
0F80
0F80
0F80
1F00
1F00
1F00
1F00
3F00
7F80
0000
38C0
7F80
C700
ENDCHAR
STARTCHAR uni1E2D
ENCODING 7725
SWIDTH 339 0
DWIDTH 8 0
BBX 10 22 -2 -4
BITMAP
0380
07C0
07C0
0380
0000
0780
3F80
0F80
0F80
0F00
1F00
1F00
1F00
1E00
3E40
3E80
3F00
1E00
0000
38C0
7F80
C700
ENDCHAR
STARTCHAR uni1E2E
ENCODING 7726
SWIDTH 386 0
DWIDTH 10 0
BBX 12 26 -1 0
BITMAP
0080
01C0
03C0
0700
0C00
0000
1860
3CF0
3CF0
1860
0000
1FE0
0FC0
0F80
0F80
0F80
1F00
1F00
1F00
1F00
1F00
3E00
3E00
3E00
7E00
FF00
ENDCHAR
STARTCHAR uni1E2F
ENCODING 7727
SWIDTH 339 0
DWIDTH 8 0
BBX 10 24 0 0
BITMAP
0100
0380
0780
0E00
1800
0000
6180
F3C0
F3C0
6180
0000
1E00
FE00
3E00
3E00
3C00
7C00
7C00
7C00
7800
F900
FA00
FC00
7800
ENDCHAR
STARTCHAR uni1E30
ENCODING 7728
SWIDTH 688 0
DWIDTH 17 0
BBX 19 23 -1 0
BITMAP
001000
003800
007800
00E000
018000
000000
1FE3E0
0FC380
0F8300
0F8600
0F8C00
0F9800
1F3000
1F7800
1FF800
1FFC00
1F7C00
3E7E00
3E3E00
3E3F00
3E1F00
7E1F80
FF0FC0
ENDCHAR
STARTCHAR uni1E31
ENCODING 7729
SWIDTH 570 0
DWIDTH 15 0
BBX 15 25 0 0
BITMAP
0080
01C0
03C0
0700
0C00
0000
0F80
7F80
0F80
1F00
1F00
1F00
1F06
3E1E
3E3E
3E64
3EE0
3DE0
7FE0
7DF0
7DF0
7CF2
F8FC
F8FC
F878
ENDCHAR
STARTCHAR uni1E32
ENCODING 7730
SWIDTH 688 0
DWIDTH 17 0
BBX 19 22 -1 -5
BITMAP
1FE3E0
0FC380
0F8300
0F8600
0F8C00
0F9800
1F3000
1F7800
1FF800
1FFC00
1F7C00
3E7E00
3E3E00
3E3F00
3E1F00
7E1F80
FF0FC0
000000
00C000
01E000
01E000
00C000
ENDCHAR
STARTCHAR uni1E33
ENCODING 7731
SWIDTH 570 0
DWIDTH 15 0
BBX 15 24 0 -5
BITMAP
0F80
7F80
0F80
1F00
1F00
1F00
1F06
3E1E
3E3E
3E64
3EE0
3DE0
7FE0
7DF0
7DF0
7CF2
F8FC
F8FC
F878
0000
0300
0780
0780
0300
ENDCHAR
STARTCHAR uni1E34
ENCODING 7732
SWIDTH 688 0
DWIDTH 17 0
BBX 19 20 -1 -3
BITMAP
1FE3E0
0FC380
0F8300
0F8600
0F8C00
0F9800
1F3000
1F7800
1FF800
1FFC00
1F7C00
3E7E00
3E3E00
3E3F00
3E1F00
7E1F80
FF0FC0
000000
07F800
07F800
ENDCHAR
STARTCHAR uni1E35
ENCODING 7733
SWIDTH 570 0
DWIDTH 15 0
BBX 15 22 0 -3
BITMAP
0F80
7F80
0F80
1F00
1F00
1F00
1F06
3E1E
3E3E
3E64
3EE0
3DE0
7FE0
7DF0
7DF0
7CF2
F8FC
F8FC
F878
0000
1FE0
1FE0
ENDCHAR
STARTCHAR uni1E36
ENCODING 7734
SWIDTH 586 0
DWIDTH 15 0
BBX 15 22 -1 -5
BITMAP
1FE0
0FC0
0F80
0F80
0F80
0F80
1F00
1F00
1F00
1F00
1F00
3E00
3E02
3E06
3E0E
7E1C
FFFC
0000
0300
0780
0780
0300
ENDCHAR
STARTCHAR uni1E37
ENCODING 7735
SWIDTH 327 0
DWIDTH 8 0
BBX 8 24 0 -5
BITMAP
0F
7F
1F
1F
1F
3E
3E
3E
3E
7C
7C
7C
7C
7C
F8
F9
FA
FC
78
00
30
78
78
30
ENDCHAR
STARTCHAR uni1E38
ENCODING 7736
SWIDTH 586 0
DWIDTH 15 0
BBX 15 25 -1 -5
BITMAP
1FE0
1FE0
0000
1FE0
0FC0
0F80
0F80
0F80
0F80
1F00
1F00
1F00
1F00
1F00
3E00
3E02
3E06
3E0E
7E1C
FFFC
0000
0300
0780
0780
0300
ENDCHAR
STARTCHAR uni1E39
ENCODING 7737
SWIDTH 327 0
DWIDTH 8 0
BBX 9 27 0 -5
BITMAP
7F80
7F80
0000
0F00
7F00
1F00
1F00
1F00
3E00
3E00
3E00
3E00
7C00
7C00
7C00
7C00
7C00
F800
F900
FA00
FC00
7800
0000
3000
7800
7800
3000
ENDCHAR
STARTCHAR uni1E3A
ENCODING 7738
SWIDTH 586 0
DWIDTH 15 0
BBX 15 20 -1 -3
BITMAP
1FE0
0FC0
0F80
0F80
0F80
0F80
1F00
1F00
1F00
1F00
1F00
3E00
3E02
3E06
3E0E
7E1C
FFFC
0000
1FE0
1FE0
ENDCHAR
STARTCHAR uni1E3B
ENCODING 7739
SWIDTH 327 0
DWIDTH 8 0
BBX 9 22 -1 -3
BITMAP
0780
3F80
0F80
0F80
0F80
1F00
1F00
1F00
1F00
3E00
3E00
3E00
3E00
3E00
7C00
7C80
7D00
7E00
3C00
0000
FF00
FF00
ENDCHAR
STARTCHAR uni1E3C
ENCODING 7740
SWIDTH 586 0
DWIDTH 15 0
BBX 15 22 -1 -5
BITMAP
1FE0
0FC0
0F80
0F80
0F80
0F80
1F00
1F00
1F00
1F00
1F00
3E00
3E02
3E06
3E0E
7E1C
FFFC
0000
0300
0780
0CC0
1860
ENDCHAR
STARTCHAR uni1E3D
ENCODING 7741
SWIDTH 327 0
DWIDTH 8 0
BBX 9 24 -1 -5
BITMAP
0780
3F80
0F80
0F80
0F80
1F00
1F00
1F00
1F00
3E00
3E00
3E00
3E00
3E00
7C00
7C80
7D00
7E00
3C00
0000
1800
3C00
6600
C300
ENDCHAR
STARTCHAR uni1E3E
ENCODING 7742
SWIDTH 921 0
DWIDTH 23 0
BBX 25 23 -1 0
BITMAP
00010000
00038000
00078000
000E0000
00180000
00000000
1FE07F80
0FE07F00
0FE0FE00
0FE0BE00
0FE1BE00
1BE17C00
19F37C00
19F27C00
19F67C00
19F47C00
19FC7C00
30F8F800
30F8F800
30F0F800
30F0F800
70E1F800
F8E3FC00
ENDCHAR
STARTCHAR uni1E3F
ENCODING 7743
SWIDTH 914 0
DWIDTH 23 0
BBX 24 19 0 0
BITMAP
000200
000700
000F00
001C00
003000
000000
1E3C3C
FE7E7E
3EBEBE
3D3F3E
3E3E3E
7E7E7C
7C7C7C
7C7C7C
7C7C7C
F8F8F9
F8F8FA
F8F8FC
F8F878
ENDCHAR
STARTCHAR uni1E40
ENCODING 7744
SWIDTH 921 0
DWIDTH 23 0
BBX 25 22 -1 0
BITMAP
000C0000
001E0000
001E0000
000C0000
00000000
1FE07F80
0FE07F00
0FE0FE00
0FE0BE00
0FE1BE00
1BE17C00
19F37C00
19F27C00
19F67C00
19F47C00
19FC7C00
30F8F800
30F8F800
30F0F800
30F0F800
70E1F800
F8E3FC00
ENDCHAR
STARTCHAR uni1E41
ENCODING 7745
SWIDTH 914 0
DWIDTH 23 0
BBX 24 18 0 0
BITMAP
001800
003C00
003C00
001800
000000
1E3C3C
FE7E7E
3EBEBE
3D3F3E
3E3E3E
7E7E7C
7C7C7C
7C7C7C
7C7C7C
F8F8F9
F8F8FA
F8F8FC
F8F878
ENDCHAR
STARTCHAR uni1E42
ENCODING 7746
SWIDTH 921 0
DWIDTH 23 0
BBX 25 22 -1 -5
BITMAP
1FE07F80
0FE07F00
0FE0FE00
0FE0BE00
0FE1BE00
1BE17C00
19F37C00
19F27C00
19F67C00
19F47C00
19FC7C00
30F8F800
30F8F800
30F0F800
30F0F800
70E1F800
F8E3FC00
00000000
00180000
003C0000
003C0000
00180000
ENDCHAR
STARTCHAR uni1E43
ENCODING 7747
SWIDTH 914 0
DWIDTH 23 0
BBX 24 18 0 -5
BITMAP
1E3C3C
FE7E7E
3EBEBE
3D3F3E
3E3E3E
7E7E7C
7C7C7C
7C7C7C
7C7C7C
F8F8F9
F8F8FA
F8F8FC
F8F878
000000
003000
007800
007800
003000
ENDCHAR
STARTCHAR uni1E44
ENCODING 7748
SWIDTH 741 0
DWIDTH 19 0
BBX 20 22 -1 0
BITMAP
006000
00F000
00F000
006000
000000
1F81F0
0F80E0
0FC0C0
0FC0C0
0FE0C0
1BE180
1BF180
19F180
19F980
18F980
18FD80
307D00
307F00
303F00
303F00
701F00
F81F00
ENDCHAR
STARTCHAR uni1E45
ENCODING 7749
SWIDTH 635 0
DWIDTH 16 0
BBX 16 18 0 0
BITMAP
0180
03C0
03C0
0180
0000
1E3C
FE7E
3EBE
3D3E
3E3E
7E7C
7C7C
7C7C
7C7C
F8F9
F8FA
F8FC
F878
ENDCHAR
STARTCHAR uni1E46
ENCODING 7750
SWIDTH 741 0
DWIDTH 19 0
BBX 20 22 -1 -5
BITMAP
1F81F0
0F80E0
0FC0C0
0FC0C0
0FE0C0
1BE180
1BF180
19F180
19F980
18F980
18FD80
307D00
307F00
303F00
303F00
701F00
F81F00
000000
006000
00F000
00F000
006000
ENDCHAR
STARTCHAR uni1E47
ENCODING 7751
SWIDTH 635 0
DWIDTH 16 0
BBX 16 18 0 -5
BITMAP
1E3C
FE7E
3EBE
3D3E
3E3E
7E7C
7C7C
7C7C
7C7C
F8F9
F8FA
F8FC
F878
0000
0300
0780
0780
0300
ENDCHAR
STARTCHAR uni1E48
ENCODING 7752
SWIDTH 741 0
DWIDTH 19 0
BBX 20 20 -1 -3
BITMAP
1F81F0
0F80E0
0FC0C0
0FC0C0
0FE0C0
1BE180
1BF180
19F180
19F980
18F980
18FD80
307D00
307F00
303F00
303F00
701F00
F81F00
000000
03FC00
03FC00
ENDCHAR
STARTCHAR uni1E49
ENCODING 7753
SWIDTH 635 0
DWIDTH 16 0
BBX 16 16 0 -3
BITMAP
1E3C
FE7E
3EBE
3D3E
3E3E
7E7C
7C7C
7C7C
7C7C
F8F9
F8FA
F8FC
F878
0000
1FE0
1FE0
ENDCHAR
STARTCHAR uni1E4A
ENCODING 7754
SWIDTH 741 0
DWIDTH 19 0
BBX 20 22 -1 -5
BITMAP
1F81F0
0F80E0
0FC0C0
0FC0C0
0FE0C0
1BE180
1BF180
19F180
19F980
18F980
18FD80
307D00
307F00
303F00
303F00
701F00
F81F00
000000
006000
00F000
019800
030C00
ENDCHAR
STARTCHAR uni1E4B
ENCODING 7755
SWIDTH 635 0
DWIDTH 16 0
BBX 16 18 0 -5
BITMAP
1E3C
FE7E
3EBE
3D3E
3E3E
7E7C
7C7C
7C7C
7C7C
F8F9
F8FA
F8FC
F878
0000
0300
0780
0CC0
1860
ENDCHAR
STARTCHAR uni1E4C
ENCODING 7756
SWIDTH 761 0
DWIDTH 19 0
BBX 18 25 0 0
BITMAP
001000
003800
007800
00E000
018000
000000
01C600
03FC00
063800
000000
03FC00
0F8F00
1F0780
3E0780
3E07C0
7C07C0
7C07C0
F807C0
F80F80
F80F80
F81F00
781F00
783E00
3C7C00
0FF000
ENDCHAR
STARTCHAR uni1E4D
ENCODING 7757
SWIDTH 562 0
DWIDTH 14 0
BBX 14 23 0 0
BITMAP
0020
0070
00F0
01C0
0300
0000
038C
07F8
0C70
0000
07F0
1EF8
3C7C
7C7C
7C7C
F87C
F87C
F87C
F8F8
F8F8
F8F0
7DE0
3F80
ENDCHAR
STARTCHAR uni1E4E
ENCODING 7758
SWIDTH 761 0
DWIDTH 19 0
BBX 18 24 0 0
BITMAP
030C00
079E00
079E00
030C00
000000
01C600
03FC00
063800
000000
03FC00
0F8F00
1F0780
3E0780
3E07C0
7C07C0
7C07C0
F807C0
F80F80
F80F80
F81F00
781F00
783E00
3C7C00
0FF000
ENDCHAR
STARTCHAR uni1E4F
ENCODING 7759
SWIDTH 562 0
DWIDTH 14 0
BBX 14 22 0 0
BITMAP
0C30
1E78
1E78
0C30
0000
038C
07F8
0C70
0000
07F0
1EF8
3C7C
7C7C
7C7C
F87C
F87C
F87C
F8F8
F8F8
F8F0
7DE0
3F80
ENDCHAR
STARTCHAR uni1E50
ENCODING 7760
SWIDTH 761 0
DWIDTH 19 0
BBX 18 26 0 0
BITMAP
010000
038000
03C000
00E000
003000
000000
07F800
07F800
000000
03FC00
0F8F00
1F0780
3E0780
3E07C0
7C07C0
7C07C0
7C07C0
F807C0
F80F80
F80F80
F80F80
F81F00
781F00
783E00
3C7C00
0FF000
ENDCHAR
STARTCHAR uni1E51
ENCODING 7761
SWIDTH 562 0
DWIDTH 14 0
BBX 14 22 0 0
BITMAP
0400
0E00
0F00
0380
00C0
0000
0FF0
0FF0
0000
07F0
1EF8
3C7C
7C7C
7C7C
F87C
F87C
F87C
F8F8
F8F8
F8F0
7DE0
3F80
ENDCHAR
STARTCHAR uni1E52
ENCODING 7762
SWIDTH 761 0
DWIDTH 19 0
BBX 18 26 0 0
BITMAP
001000
003800
007800
00E000
018000
000000
07F800
07F800
000000
03FC00
0F8F00
1F0780
3E0780
3E07C0
7C07C0
7C07C0
7C07C0
F807C0
F80F80
F80F80
F80F80
F81F00
781F00
783E00
3C7C00
0FF000
ENDCHAR
STARTCHAR uni1E53
ENCODING 7763
SWIDTH 562 0
DWIDTH 14 0
BBX 14 22 0 0
BITMAP
0040
00E0
01E0
0380
0600
0000
0FF0
0FF0
0000
07F0
1EF8
3C7C
7C7C
7C7C
F87C
F87C
F87C
F8F8
F8F8
F8F0
7DE0
3F80
ENDCHAR
STARTCHAR uni1E54
ENCODING 7764
SWIDTH 660 0
DWIDTH 17 0
BBX 17 23 -1 0
BITMAP
001000
003800
007800
00E000
018000
000000
1FFE00
0FCF00
0F8F80
0F8F80
0F8F80
1F0F80
1F0F80
1F1F00
1F1E00
1FF800
1F0000
3E0000
3E0000
3E0000
3E0000
7E0000
FF0000
ENDCHAR
STARTCHAR uni1E55
ENCODING 7765
SWIDTH 606 0
DWIDTH 15 0
BBX 15 24 -1 -5
BITMAP
0020
0070
00F0
01C0
0300
0000
1F38
7F7C
1FBE
1F3E
3E3E
3E3E
3E3E
3E3C
3E7C
7C78
7C78
7EF0
7FC0
7C00
F800
F800
F800
F800
ENDCHAR
STARTCHAR uni1E56
ENCODING 7766
SWIDTH 660 0
DWIDTH 17 0
BBX 17 22 -1 0
BITMAP
006000
00F000
00F000
006000
000000
1FFE00
0FCF00
0F8F80
0F8F80
0F8F80
1F0F80
1F0F80
1F1F00
1F1E00
1FF800
1F0000
3E0000
3E0000
3E0000
3E0000
7E0000
FF0000
ENDCHAR
STARTCHAR uni1E57
ENCODING 7767
SWIDTH 606 0
DWIDTH 15 0
BBX 15 23 -1 -5
BITMAP
0180
03C0
03C0
0180
0000
1F38
7F7C
1FBE
1F3E
3E3E
3E3E
3E3E
3E3C
3E7C
7C78
7C78
7EF0
7FC0
7C00
F800
F800
F800
F800
ENDCHAR
STARTCHAR uni1E58
ENCODING 7768
SWIDTH 681 0
DWIDTH 17 0
BBX 18 22 -1 0
BITMAP
006000
00F000
00F000
006000
000000
1FFE00
0FCF00
0F8F80
0F8F80
0F8F80
1F0F80
1F0F00
1F1E00
1FFC00
1F3E00
1F3E00
3E3E00
3E1F00
3E1F00
3E1F00
7E1F80
FF0FC0
ENDCHAR
STARTCHAR uni1E59
ENCODING 7769
SWIDTH 440 0
DWIDTH 11 0
BBX 13 18 0 0
BITMAP
0300
0780
0780
0300
0000
1E70
FEF8
3F78
3E30
3E00
7C00
7C00
7C00
7C00
F800
F800
F800
F800
ENDCHAR
STARTCHAR uni1E5A
ENCODING 7770
SWIDTH 681 0
DWIDTH 17 0
BBX 18 22 -1 -5
BITMAP
1FFE00
0FCF00
0F8F80
0F8F80
0F8F80
1F0F80
1F0F00
1F1E00
1FFC00
1F3E00
1F3E00
3E3E00
3E1F00
3E1F00
3E1F00
7E1F80
FF0FC0
000000
00C000
01E000
01E000
00C000
ENDCHAR
STARTCHAR uni1E5B
ENCODING 7771
SWIDTH 440 0
DWIDTH 11 0
BBX 13 18 0 -5
BITMAP
1E70
FEF8
3F78
3E30
3E00
7C00
7C00
7C00
7C00
F800
F800
F800
F800
0000
1800
3C00
3C00
1800
ENDCHAR
STARTCHAR uni1E5C
ENCODING 7772
SWIDTH 681 0
DWIDTH 17 0
BBX 18 25 -1 -5
BITMAP
03FC00
03FC00
000000
1FFE00
0FCF00
0F8F80
0F8F80
0F8F80
1F0F80
1F0F00
1F1E00
1FFC00
1F3E00
1F3E00
3E3E00
3E1F00
3E1F00
3E1F00
7E1F80
FF0FC0
000000
00C000
01E000
01E000
00C000
ENDCHAR
STARTCHAR uni1E5D
ENCODING 7773
SWIDTH 440 0
DWIDTH 11 0
BBX 13 21 0 -5
BITMAP
1FE0
1FE0
0000
1E70
FEF8
3F78
3E30
3E00
7C00
7C00
7C00
7C00
F800
F800
F800
F800
0000
1800
3C00
3C00
1800
ENDCHAR
STARTCHAR uni1E5E
ENCODING 7774
SWIDTH 681 0
DWIDTH 17 0
BBX 18 20 -1 -3
BITMAP
1FFE00
0FCF00
0F8F80
0F8F80
0F8F80
1F0F80
1F0F00
1F1E00
1FFC00
1F3E00
1F3E00
3E3E00
3E1F00
3E1F00
3E1F00
7E1F80
FF0FC0
000000
07F800
07F800
ENDCHAR
STARTCHAR uni1E5F
ENCODING 7775
SWIDTH 440 0
DWIDTH 11 0
BBX 13 16 0 -3
BITMAP
1E70
FEF8
3F78
3E30
3E00
7C00
7C00
7C00
7C00
F800
F800
F800
F800
0000
FF00
FF00
ENDCHAR
STARTCHAR uni1E60
ENCODING 7776
SWIDTH 551 0
DWIDTH 14 0
BBX 13 22 0 0
BITMAP
0300
0780
0780
0300
0000
03F8
0F38
1E10
3E10
3E00
3F00
3F80
1FC0
0FE0
07F0
03F0
01F0
41F0
41F0
E1E0
F3C0
7F00
ENDCHAR
STARTCHAR uni1E61
ENCODING 7777
SWIDTH 417 0
DWIDTH 10 0
BBX 12 18 -1 0
BITMAP
0300
0780
0780
0300
0000
07E0
1CF0
3C70
3E20
3F00
1F00
1F80
0FC0
07C0
43C0
E3C0
F380
7E00
ENDCHAR
STARTCHAR uni1E62
ENCODING 7778
SWIDTH 551 0
DWIDTH 14 0
BBX 13 22 0 -5
BITMAP
03F8
0F38
1E10
3E10
3E00
3F00
3F80
1FC0
0FE0
07F0
03F0
01F0
41F0
41F0
E1E0
F3C0
7F00
0000
0600
0F00
0F00
0600
ENDCHAR
STARTCHAR uni1E63
ENCODING 7779
SWIDTH 417 0
DWIDTH 10 0
BBX 12 18 -1 -5
BITMAP
07E0
1CF0
3C70
3E20
3F00
1F00
1F80
0FC0
07C0
43C0
E3C0
F380
7E00
0000
0C00
1E00
1E00
0C00
ENDCHAR
STARTCHAR uni1E64
ENCODING 7780
SWIDTH 551 0
DWIDTH 14 0
BBX 13 28 0 0
BITMAP
0180
03C0
03C0
0180
0000
0040
00E0
01E0
0380
0600
0000
03F8
0F38
1E10
3E10
3E00
3F00
3F80
1FC0
0FE0
07F0
03F0
01F0
41F0
41F0
E1E0
F3C0
7F00
ENDCHAR
STARTCHAR uni1E65
ENCODING 7781
SWIDTH 417 0
DWIDTH 10 0
BBX 12 24 -1 0
BITMAP
0300
0780
0780
0300
0000
0080
01C0
03C0
0700
0C00
0000
07E0
1CF0
3C70
3E20
3F00
1F00
1F80
0FC0
07C0
43C0
E3C0
F380
7E00
ENDCHAR
STARTCHAR uni1E66
ENCODING 7782
SWIDTH 551 0
DWIDTH 14 0
BBX 13 25 0 0
BITMAP
0180
03C0
03C0
0180
0000
0C30
0660
03C0
0180
0000
03F8
0F38
1E10
3E10
3F00
3F80
1FC0
0FE0
07F0
03F0
41F0
41F0
E1E0
F3C0
7F00
ENDCHAR
STARTCHAR uni1E67
ENCODING 7783
SWIDTH 417 0
DWIDTH 10 0
BBX 12 23 -1 0
BITMAP
0300
0780
0780
0300
0000
0C30
0660
03C0
0180
0000
07E0
1CF0
3C70
3E20
3F00
1F00
1F80
0FC0
07C0
43C0
E3C0
F380
7E00
ENDCHAR
STARTCHAR uni1E68
ENCODING 7784
SWIDTH 551 0
DWIDTH 14 0
BBX 13 27 0 -5
BITMAP
0300
0780
0780
0300
0000
03F8
0F38
1E10
3E10
3E00
3F00
3F80
1FC0
0FE0
07F0
03F0
01F0
41F0
41F0
E1E0
F3C0
7F00
0000
0600
0F00
0F00
0600
ENDCHAR
STARTCHAR uni1E69
ENCODING 7785
SWIDTH 417 0
DWIDTH 10 0
BBX 12 23 -1 -5
BITMAP
0600
0F00
0F00
0600
0000
07E0
1CF0
3C70
3E20
3F00
1F00
1F80
0FC0
07C0
43C0
E3C0
F380
7E00
0000
0C00
1E00
1E00
0C00
ENDCHAR
STARTCHAR uni1E6A
ENCODING 7786
SWIDTH 616 0
DWIDTH 16 0
BBX 16 22 1 0
BITMAP
0180
03C0
03C0
0180
0000
FFFF
E7E7
C7C2
87C2
07C0
0F80
0F80
0F80
0F80
0F80
0F80
1F00
1F00
1F00
1F00
3F00
7F80
ENDCHAR
STARTCHAR uni1E6B
ENCODING 7787
SWIDTH 359 0
DWIDTH 9 0
BBX 10 22 0 0
BITMAP
0C00
1E00
1E00
0C00
0000
0200
0600
1E00
3E00
FFC0
3E00
3E00
7C00
7C00
7C00
7C00
7C00
F800
F900
FA00
FC00
7800
ENDCHAR
STARTCHAR uni1E6C
ENCODING 7788
SWIDTH 616 0
DWIDTH 16 0
BBX 16 22 1 -5
BITMAP
FFFF
E7E7
C7C2
87C2
07C0
0F80
0F80
0F80
0F80
0F80
0F80
1F00
1F00
1F00
1F00
3F00
7F80
0000
0600
0F00
0F00
0600
ENDCHAR
STARTCHAR uni1E6D
ENCODING 7789
SWIDTH 359 0
DWIDTH 9 0
BBX 10 22 0 -5
BITMAP
0200
0600
1E00
3E00
FFC0
3E00
3E00
7C00
7C00
7C00
7C00
7C00
F800
F900
FA00
FC00
7800
0000
1800
3C00
3C00
1800
ENDCHAR
STARTCHAR uni1E6E
ENCODING 7790
SWIDTH 616 0
DWIDTH 16 0
BBX 16 20 1 -3
BITMAP
FFFF
E7E7
C7C2
87C2
07C0
0F80
0F80
0F80
0F80
0F80
0F80
1F00
1F00
1F00
1F00
3F00
7F80
0000
3FC0
3FC0
ENDCHAR
STARTCHAR uni1E6F
ENCODING 7791
SWIDTH 359 0
DWIDTH 9 0
BBX 10 20 0 -3
BITMAP
0200
0600
1E00
3E00
FFC0
3E00
3E00
7C00
7C00
7C00
7C00
7C00
F800
F900
FA00
FC00
7800
0000
FF00
FF00
ENDCHAR
STARTCHAR uni1E70
ENCODING 7792
SWIDTH 616 0
DWIDTH 16 0
BBX 16 22 1 -5
BITMAP
FFFF
E7E7
C7C2
87C2
07C0
0F80
0F80
0F80
0F80
0F80
0F80
1F00
1F00
1F00
1F00
3F00
7F80
0000
0600
0F00
1980
30C0
ENDCHAR
STARTCHAR uni1E71
ENCODING 7793
SWIDTH 359 0
DWIDTH 9 0
BBX 10 22 0 -5
BITMAP
0200
0600
1E00
3E00
FFC0
3E00
3E00
7C00
7C00
7C00
7C00
7C00
F800
F900
FA00
FC00
7800
0000
1800
3C00
6600
C300
ENDCHAR
STARTCHAR uni1E72
ENCODING 7794
SWIDTH 776 0
DWIDTH 19 0
BBX 19 22 1 -5
BITMAP
7F9FE0
3F0FC0
3E0F80
3E0F80
3E0F80
7C1F00
7C1F00
7C1F00
7C1F00
7C1F00
F83E00
F83E00
F83E00
F83E00
F83C00
7C7800
1FE000
000000
0C3000
1E7800
1E7800
0C3000
ENDCHAR
STARTCHAR uni1E73
ENCODING 7795
SWIDTH 634 0
DWIDTH 16 0
BBX 16 18 0 -5
BITMAP
1E3E
FE3E
3E3E
3E3E
7C7C
7C7C
7C7C
7CFC
7CFC
F979
FAFA
FCFC
7878
0000
1860
3CF0
3CF0
1860
ENDCHAR
STARTCHAR uni1E74
ENCODING 7796
SWIDTH 776 0
DWIDTH 19 0
BBX 19 21 1 -4
BITMAP
7F9FE0
3F0FC0
3E0F80
3E0F80
3E0F80
7C1F00
7C1F00
7C1F00
7C1F00
7C1F00
F83E00
F83E00
F83E00
F83E00
F83C00
7C7800
1FE000
000000
0E3000
1FE000
31C000
ENDCHAR
STARTCHAR uni1E75
ENCODING 7797
SWIDTH 634 0
DWIDTH 16 0
BBX 16 17 0 -4
BITMAP
1E3E
FE3E
3E3E
3E3E
7C7C
7C7C
7C7C
7CFC
7CFC
F979
FAFA
FCFC
7878
0000
0E30
1FE0
31C0
ENDCHAR
STARTCHAR uni1E76
ENCODING 7798
SWIDTH 776 0
DWIDTH 19 0
BBX 19 22 1 -5
BITMAP
7F9FE0
3F0FC0
3E0F80
3E0F80
3E0F80
7C1F00
7C1F00
7C1F00
7C1F00
7C1F00
F83E00
F83E00
F83E00
F83E00
F83C00
7C7800
1FE000
000000
018000
03C000
066000
0C3000
ENDCHAR
STARTCHAR uni1E77
ENCODING 7799
SWIDTH 634 0
DWIDTH 16 0
BBX 16 18 0 -5
BITMAP
1E3E
FE3E
3E3E
3E3E
7C7C
7C7C
7C7C
7CFC
7CFC
F979
FAFA
FCFC
7878
0000
0300
0780
0CC0
1860
ENDCHAR
STARTCHAR uni1E78
ENCODING 7800
SWIDTH 776 0
DWIDTH 19 0
BBX 19 27 1 0
BITMAP
000800
001C00
003C00
007000
00C000
000000
01C600
03FC00
063800
000000
7F9FE0
3F0FC0
3E0F80
3E0F80
3E0F80
7C1F00
7C1F00
7C1F00
7C1F00
7C1F00
F83E00
F83E00
F83E00
F83E00
F83C00
7C7800
1FE000
ENDCHAR
STARTCHAR uni1E79
ENCODING 7801
SWIDTH 634 0
DWIDTH 16 0
BBX 16 23 0 0
BITMAP
0020
0070
00F0
01C0
0300
0000
038C
07F8
0C70
0000
1E3E
FE3E
3E3E
3E3E
7C7C
7C7C
7C7C
7CFC
7CFC
F979
FAFA
FCFC
7878
ENDCHAR
STARTCHAR uni1E7A
ENCODING 7802
SWIDTH 776 0
DWIDTH 19 0
BBX 19 25 1 0
BITMAP
030C00
079E00
079E00
030C00
000000
03FC00
03FC00
000000
7F9FE0
3F0FC0
3E0F80
3E0F80
3E0F80
7C1F00
7C1F00
7C1F00
7C1F00
7C1F00
F83E00
F83E00
F83E00
F83E00
F83C00
7C7800
1FE000
ENDCHAR
STARTCHAR uni1E7B
ENCODING 7803
SWIDTH 634 0
DWIDTH 16 0
BBX 16 21 0 0
BITMAP
0C30
1E78
1E78
0C30
0000
0FF0
0FF0
0000
1E3E
FE3E
3E3E
3E3E
7C7C
7C7C
7C7C
7CFC
7CFC
F979
FAFA
FCFC
7878
ENDCHAR
STARTCHAR uni1E7C
ENCODING 7804
SWIDTH 630 0
DWIDTH 16 0
BBX 18 21 0 0
BITMAP
038C00
07F800
0C7000
000000
FF07C0
7E0380
3E0300
3E0200
3E0600
3E0400
1F0C00
1F0800
1F1800
1F1000
1F3000
1F2000
0FE000
0FC000
0FC000
0F8000
0F8000
ENDCHAR
STARTCHAR uni1E7D
ENCODING 7805
SWIDTH 518 0
DWIDTH 13 0
BBX 13 17 0 0
BITMAP
0E30
1FE0
31C0
0000
1E38
7E78
3E38
3C38
7C30
7C30
7C30
7C60
F840
F8C0
F880
F900
7E00
ENDCHAR
STARTCHAR uni1E7E
ENCODING 7806
SWIDTH 630 0
DWIDTH 16 0
BBX 18 22 0 -5
BITMAP
FF07C0
7E0380
3E0300
3E0200
3E0600
3E0400
1F0C00
1F0800
1F1800
1F1000
1F3000
1F2000
0FE000
0FC000
0FC000
0F8000
0F8000
000000
018000
03C000
03C000
018000
ENDCHAR
STARTCHAR uni1E7F
ENCODING 7807
SWIDTH 518 0
DWIDTH 13 0
BBX 13 18 0 -5
BITMAP
1E38
7E78
3E38
3C38
7C30
7C30
7C30
7C60
F840
F8C0
F880
F900
7E00
0000
0C00
1E00
1E00
0C00
ENDCHAR
STARTCHAR Wgrave
ENCODING 7808
SWIDTH 920 0
DWIDTH 23 0
BBX 25 23 0 0
BITMAP
00400000
00E00000
00F00000
00380000
000C0000
00000000
FF1F0F80
7E1F0700
3E1F0600
3E1F0400
3E1F0C00
3E1F0800
3E3F1800
3E3F1000
1F6FB000
1F4FA000
1FCFE000
1F8FC000
1F8FC000
1F0F8000
1F0F8000
1E0F0000
1E0F0000
ENDCHAR
STARTCHAR wgrave
ENCODING 7809
SWIDTH 795 0
DWIDTH 20 0
BBX 20 19 0 0
BITMAP
008000
01C000
01E000
007000
001800
000000
1E3E70
7E3C70
3E3C70
3C7C70
7C7C60
7C7860
7C7860
7CF8C0
F8F880
F8F980
F9F900
FAFE00
7C7C00
ENDCHAR
STARTCHAR Wacute
ENCODING 7810
SWIDTH 920 0
DWIDTH 23 0
BBX 25 23 0 0
BITMAP
00040000
000E0000
001E0000
00380000
00600000
00000000
FF1F0F80
7E1F0700
3E1F0600
3E1F0400
3E1F0C00
3E1F0800
3E3F1800
3E3F1000
1F6FB000
1F4FA000
1FCFE000
1F8FC000
1F8FC000
1F0F8000
1F0F8000
1E0F0000
1E0F0000
ENDCHAR
STARTCHAR wacute
ENCODING 7811
SWIDTH 795 0
DWIDTH 20 0
BBX 20 19 0 0
BITMAP
000800
001C00
003C00
007000
00C000
000000
1E3E70
7E3C70
3E3C70
3C7C70
7C7C60
7C7860
7C7860
7CF8C0
F8F880
F8F980
F9F900
FAFE00
7C7C00
ENDCHAR
STARTCHAR Wdieresis
ENCODING 7812
SWIDTH 920 0
DWIDTH 23 0
BBX 25 22 0 0
BITMAP
00C30000
01E78000
01E78000
00C30000
00000000
FF1F0F80
7E1F0700
3E1F0600
3E1F0400
3E1F0C00
3E1F0800
3E3F1800
3E3F1000
1F6FB000
1F4FA000
1FCFE000
1F8FC000
1F8FC000
1F0F8000
1F0F8000
1E0F0000
1E0F0000
ENDCHAR
STARTCHAR wdieresis
ENCODING 7813
SWIDTH 795 0
DWIDTH 20 0
BBX 20 18 0 0
BITMAP
030C00
079E00
079E00
030C00
000000
1E3E70
7E3C70
3E3C70
3C7C70
7C7C60
7C7860
7C7860
7CF8C0
F8F880
F8F980
F9F900
FAFE00
7C7C00
ENDCHAR
STARTCHAR uni1E86
ENCODING 7814
SWIDTH 920 0
DWIDTH 23 0
BBX 25 22 0 0
BITMAP
00180000
003C0000
003C0000
00180000
00000000
FF1F0F80
7E1F0700
3E1F0600
3E1F0400
3E1F0C00
3E1F0800
3E3F1800
3E3F1000
1F6FB000
1F4FA000
1FCFE000
1F8FC000
1F8FC000
1F0F8000
1F0F8000
1E0F0000
1E0F0000
ENDCHAR
STARTCHAR uni1E87
ENCODING 7815
SWIDTH 795 0
DWIDTH 20 0
BBX 20 18 0 0
BITMAP
006000
00F000
00F000
006000
000000
1E3E70
7E3C70
3E3C70
3C7C70
7C7C60
7C7860
7C7860
7CF8C0
F8F880
F8F980
F9F900
FAFE00
7C7C00
ENDCHAR
STARTCHAR uni1E88
ENCODING 7816
SWIDTH 920 0
DWIDTH 23 0
BBX 25 22 0 -5
BITMAP
FF1F0F80
7E1F0700
3E1F0600
3E1F0400
3E1F0C00
3E1F0800
3E3F1800
3E3F1000
1F6FB000
1F4FA000
1FCFE000
1F8FC000
1F8FC000
1F0F8000
1F0F8000
1E0F0000
1E0F0000
00000000
00300000
00780000
00780000
00300000
ENDCHAR
STARTCHAR uni1E89
ENCODING 7817
SWIDTH 795 0
DWIDTH 20 0
BBX 20 18 0 -5
BITMAP
1E3E70
7E3C70
3E3C70
3C7C70
7C7C60
7C7860
7C7860
7CF8C0
F8F880
F8F980
F9F900
FAFE00
7C7C00
000000
018000
03C000
03C000
018000
ENDCHAR
STARTCHAR uni1E8A
ENCODING 7818
SWIDTH 630 0
DWIDTH 16 0
BBX 18 22 -1 0
BITMAP
00C000
01E000
01E000
00C000
000000
1FE7C0
0FC380
07C300
07C200
03E400
03F800
03F800
01F000
01F000
03F000
03F800
04F800
08F800
187C00
307C00
707E00
F8FF00
ENDCHAR
STARTCHAR uni1E8B
ENCODING 7819
SWIDTH 516 0
DWIDTH 13 0
BBX 14 18 -1 0
BITMAP
0180
03C0
03C0
0180
0000
0F1C
3F3C
1F38
0F40
0F80
0F80
0780
07C0
07C4
6BC8
F3F0
F3E0
61C0
ENDCHAR
STARTCHAR uni1E8C
ENCODING 7820
SWIDTH 630 0
DWIDTH 16 0
BBX 18 22 -1 0
BITMAP
061800
0F3C00
0F3C00
061800
000000
1FE7C0
0FC380
07C300
07C200
03E400
03F800
03F800
01F000
01F000
03F000
03F800
04F800
08F800
187C00
307C00
707E00
F8FF00
ENDCHAR
STARTCHAR uni1E8D
ENCODING 7821
SWIDTH 516 0
DWIDTH 13 0
BBX 14 18 -1 0
BITMAP
0C30
1E78
1E78
0C30
0000
0F1C
3F3C
1F38
0F40
0F80
0F80
0780
07C0
07C4
6BC8
F3F0
F3E0
61C0
ENDCHAR
STARTCHAR uni1E8E
ENCODING 7822
SWIDTH 622 0
DWIDTH 16 0
BBX 16 22 1 0
BITMAP
0300
0780
0780
0300
0000
FE1F
7C0E
7C0C
7C18
3E30
3E20
3E40
3EC0
1F80
1F00
1F00
1F00
3E00
3E00
3E00
7E00
FF00
ENDCHAR
STARTCHAR uni1E8F
ENCODING 7823
SWIDTH 489 0
DWIDTH 12 0
BBX 15 23 -3 -5
BITMAP
00C0
01E0
01E0
00C0
0000
078E
3F9E
0F8E
0F8E
0F8E
0F8C
07CC
07C8
07D0
07D0
07E0
07C0
0780
0780
6700
F600
F400
7800
ENDCHAR
STARTCHAR uni1E90
ENCODING 7824
SWIDTH 618 0
DWIDTH 16 0
BBX 15 22 0 0
BITMAP
00C0
01E0
0330
0618
0000
1FFE
1C3E
187C
30F8
20F8
01F0
03E0
07C0
07C0
0F80
1F00
3E00
3E04
7C0C
F818
F838
FFF8
ENDCHAR
STARTCHAR uni1E91
ENCODING 7825
SWIDTH 466 0
DWIDTH 12 0
BBX 13 18 -1 0
BITMAP
0300
0780
0CC0
1860
0000
1FF8
1FF0
3FE0
31C0
2180
0300
0600
0C10
1C30
3FF0
7FE0
FFC0
C780
ENDCHAR
STARTCHAR uni1E92
ENCODING 7826
SWIDTH 618 0
DWIDTH 16 0
BBX 15 22 0 -5
BITMAP
1FFE
1C3E
187C
30F8
20F8
01F0
03E0
07C0
07C0
0F80
1F00
3E00
3E04
7C0C
F818
F838
FFF8
0000
0300
0780
0780
0300
ENDCHAR
STARTCHAR uni1E93
ENCODING 7827
SWIDTH 466 0
DWIDTH 12 0
BBX 13 18 -1 -5
BITMAP
1FF8
1FF0
3FE0
31C0
2180
0300
0600
0C10
1C30
3FF0
7FE0
FFC0
C780
0000
0600
0F00
0F00
0600
ENDCHAR
STARTCHAR uni1E94
ENCODING 7828
SWIDTH 618 0
DWIDTH 16 0
BBX 15 20 0 -3
BITMAP
1FFE
1C3E
187C
30F8
20F8
01F0
03E0
07C0
07C0
0F80
1F00
3E00
3E04
7C0C
F818
F838
FFF8
0000
1FE0
1FE0
ENDCHAR
STARTCHAR uni1E95
ENCODING 7829
SWIDTH 466 0
DWIDTH 12 0
BBX 13 16 -1 -3
BITMAP
1FF8
1FF0
3FE0
31C0
2180
0300
0600
0C10
1C30
3FF0
7FE0
FFC0
C780
0000
3FC0
3FC0
ENDCHAR
STARTCHAR uni1E96
ENCODING 7830
SWIDTH 629 0
DWIDTH 16 0
BBX 16 22 0 -3
BITMAP
0F00
7F00
1F00
1F00
1F00
3E00
3E3C
3E7E
3EBE
3D3E
7E7C
7E7C
7C7C
7C7C
7C7C
F8F9
F8FA
F8FC
F878
0000
1FE0
1FE0
ENDCHAR
STARTCHAR uni1E97
ENCODING 7831
SWIDTH 359 0
DWIDTH 9 0
BBX 10 22 0 0
BITMAP
6180
F3C0
F3C0
6180
0000
0200
0600
1E00
3E00
FFC0
3E00
3E00
7C00
7C00
7C00
7C00
7C00
F800
F900
FA00
FC00
7800
ENDCHAR
STARTCHAR uni1E98
ENCODING 7832
SWIDTH 795 0
DWIDTH 20 0
BBX 20 19 0 0
BITMAP
00F000
019800
019800
019800
00F000
000000
1E3E70
7E3C70
3E3C70
3C7C70
7C7C60
7C7860
7C7860
7CF8C0
F8F880
F8F980
F9F900
FAFE00
7C7C00
ENDCHAR
STARTCHAR uni1E99
ENCODING 7833
SWIDTH 489 0
DWIDTH 12 0
BBX 15 24 -3 -5
BITMAP
01E0
0330
0330
0330
01E0
0000
078E
3F9E
0F8E
0F8E
0F8E
0F8C
07CC
07C8
07D0
07D0
07E0
07C0
0780
0780
6700
F600
F400
7800
ENDCHAR
STARTCHAR uni1EA0
ENCODING 7840
SWIDTH 634 0
DWIDTH 16 0
BBX 18 22 -2 -5
BITMAP
007C00
007C00
00FC00
00FC00
01FC00
013E00
033E00
023E00
063E00
043E00
0FFE00
081F00
181F00
101F00
301F00
701F80
F83FC0
000000
006000
00F000
00F000
006000
ENDCHAR
STARTCHAR uni1EA1
ENCODING 7841
SWIDTH 596 0
DWIDTH 15 0
BBX 15 18 0 -5
BITMAP
07FC
1E7C
3C7C
3C7C
7CF8
78F8
F8F8
F8F8
F9F0
F9F2
FBF4
7DF8
38F0
0000
0300
0780
0780
0300
ENDCHAR
STARTCHAR uni1EA4
ENCODING 7844
SWIDTH 634 0
DWIDTH 16 0
BBX 18 26 -2 0
BITMAP
000400
000E00
001E00
003800
006000
000000
001800
003C00
006600
00C300
000000
003C00
007C00
007C00
00BC00
01BE00
013E00
023E00
063E00
07FE00
081F00
181F00
101F00
201F00
601F80
F83FC0
ENDCHAR
STARTCHAR uni1EA5
ENCODING 7845
SWIDTH 596 0
DWIDTH 15 0
BBX 15 24 0 0
BITMAP
0020
0070
00F0
01C0
0300
0000
00C0
01E0
0330
0618
0000
07FC
1E7C
3C7C
3C7C
7CF8
78F8
F8F8
F8F8
F9F0
F9F2
FBF4
7DF8
38F0
ENDCHAR
STARTCHAR uni1EA6
ENCODING 7846
SWIDTH 634 0
DWIDTH 16 0
BBX 18 26 -2 0
BITMAP
008000
01C000
01E000
007000
001800
000000
001800
003C00
006600
00C300
000000
003C00
007C00
007C00
00BC00
01BE00
013E00
023E00
063E00
07FE00
081F00
181F00
101F00
201F00
601F80
F83FC0
ENDCHAR
STARTCHAR uni1EA7
ENCODING 7847
SWIDTH 596 0
DWIDTH 15 0
BBX 15 24 0 0
BITMAP
0200
0700
0780
01C0
0060
0000
00C0
01E0
0330
0618
0000
07FC
1E7C
3C7C
3C7C
7CF8
78F8
F8F8
F8F8
F9F0
F9F2
FBF4
7DF8
38F0
ENDCHAR
STARTCHAR uni1EAA
ENCODING 7850
SWIDTH 634 0
DWIDTH 16 0
BBX 18 24 -2 0
BITMAP
00E300
01FE00
031C00
000000
001800
003C00
006600
00C300
000000
003C00
007C00
007C00
00BC00
01BE00
013E00
023E00
063E00
07FE00
081F00
181F00
101F00
201F00
601F80
F83FC0
ENDCHAR
STARTCHAR uni1EAB
ENCODING 7851
SWIDTH 596 0
DWIDTH 15 0
BBX 15 22 0 0
BITMAP
038C
07F8
0C70
0000
00C0
01E0
0330
0618
0000
07FC
1E7C
3C7C
3C7C
7CF8
78F8
F8F8
F8F8
F9F0
F9F2
FBF4
7DF8
38F0
ENDCHAR
STARTCHAR uni1EAC
ENCODING 7852
SWIDTH 634 0
DWIDTH 16 0
BBX 18 27 -2 -5
BITMAP
006000
00F000
019800
030C00
000000
007C00
007C00
00FC00
00FC00
01FC00
013E00
033E00
023E00
063E00
043E00
0FFE00
081F00
181F00
101F00
301F00
701F80
F83FC0
000000
006000
00F000
00F000
006000
ENDCHAR
STARTCHAR uni1EAD
ENCODING 7853
SWIDTH 596 0
DWIDTH 15 0
BBX 15 23 0 -5
BITMAP
0180
03C0
0660
0C30
0000
07FC
1E7C
3C7C
3C7C
7CF8
78F8
F8F8
F8F8
F9F0
F9F2
FBF4
7DF8
38F0
0000
0300
0780
0780
0300
ENDCHAR
STARTCHAR uni1EAE
ENCODING 7854
SWIDTH 634 0
DWIDTH 16 0
BBX 18 28 -2 0
BITMAP
000800
001C00
003C00
007000
00C000
000000
020400
030C00
01F800
00F000
000000
007C00
007C00
00FC00
00FC00
01FC00
013E00
033E00
023E00
063E00
043E00
0FFE00
081F00
181F00
101F00
301F00
701F80
F83FC0
ENDCHAR
STARTCHAR uni1EAF
ENCODING 7855
SWIDTH 596 0
DWIDTH 15 0
BBX 15 24 0 0
BITMAP
0020
0070
00F0
01C0
0300
0000
0810
0C30
07E0
03C0
0000
07FC
1E7C
3C7C
3C7C
7CF8
78F8
F8F8
F8F8
F9F0
F9F2
FBF4
7DF8
38F0
ENDCHAR
STARTCHAR uni1EB0
ENCODING 7856
SWIDTH 634 0
DWIDTH 16 0
BBX 18 28 -2 0
BITMAP
010000
038000
03C000
00E000
003000
000000
020400
030C00
01F800
00F000
000000
007C00
007C00
00FC00
00FC00
01FC00
013E00
033E00
023E00
063E00
043E00
0FFE00
081F00
181F00
101F00
301F00
701F80
F83FC0
ENDCHAR
STARTCHAR uni1EB1
ENCODING 7857
SWIDTH 596 0
DWIDTH 15 0
BBX 15 24 0 0
BITMAP
0400
0E00
0F00
0380
00C0
0000
0810
0C30
07E0
03C0
0000
07FC
1E7C
3C7C
3C7C
7CF8
78F8
F8F8
F8F8
F9F0
F9F2
FBF4
7DF8
38F0
ENDCHAR
STARTCHAR uni1EB4
ENCODING 7860
SWIDTH 634 0
DWIDTH 16 0
BBX 18 26 -2 0
BITMAP
01C600
03FC00
063800
000000
020400
030C00
01F800
00F000
000000
007C00
007C00
00FC00
00FC00
01FC00
013E00
033E00
023E00
063E00
043E00
0FFE00
081F00
181F00
101F00
301F00
701F80
F83FC0
ENDCHAR
STARTCHAR uni1EB5
ENCODING 7861
SWIDTH 596 0
DWIDTH 15 0
BBX 15 22 0 0
BITMAP
0718
0FF0
18E0
0000
0810
0C30
07E0
03C0
0000
07FC
1E7C
3C7C
3C7C
7CF8
78F8
F8F8
F8F8
F9F0
F9F2
FBF4
7DF8
38F0
ENDCHAR
STARTCHAR uni1EB6
ENCODING 7862
SWIDTH 634 0
DWIDTH 16 0
BBX 18 27 -2 -5
BITMAP
020400
030C00
01F800
00F000
000000
007C00
007C00
00FC00
00FC00
01FC00
013E00
033E00
023E00
063E00
043E00
0FFE00
081F00
181F00
101F00
301F00
701F80
F83FC0
000000
006000
00F000
00F000
006000
ENDCHAR
STARTCHAR uni1EB7
ENCODING 7863
SWIDTH 596 0
DWIDTH 15 0
BBX 15 23 0 -5
BITMAP
0810
0C30
07E0
03C0
0000
07FC
1E7C
3C7C
3C7C
7CF8
78F8
F8F8
F8F8
F9F0
F9F2
FBF4
7DF8
38F0
0000
0300
0780
0780
0300
ENDCHAR
STARTCHAR uni1EB8
ENCODING 7864
SWIDTH 622 0
DWIDTH 16 0
BBX 16 22 -1 -5
BITMAP
1FFF
0FC7
0F82
0F82
0F80
0F84
1F0C
1FFC
1F08
1F08
1F00
3E00
3E02
3E06
3E0E
7E1C
FFFC
0000
0300
0780
0780
0300
ENDCHAR
STARTCHAR uni1EB9
ENCODING 7865
SWIDTH 476 0
DWIDTH 12 0
BBX 12 18 0 -5
BITMAP
07E0
1EF0
3CF0
7CF0
7DE0
F9C0
FB80
FE00
F800
F820
F860
7CC0
3F00
0000
0C00
1E00
1E00
0C00
ENDCHAR
STARTCHAR uni1EBC
ENCODING 7868
SWIDTH 622 0
DWIDTH 16 0
BBX 16 21 -1 0
BITMAP
038C
07F8
0C70
0000
1FFF
0FC7
0F82
0F82
0F80
0F84
1F0C
1FFC
1F08
1F08
1F00
3E00
3E02
3E06
3E0E
7E1C
FFFC
ENDCHAR
STARTCHAR uni1EBD
ENCODING 7869
SWIDTH 476 0
DWIDTH 12 0
BBX 12 17 0 0
BITMAP
0E30
1FE0
31C0
0000
07E0
1EF0
3CF0
7CF0
7DE0
F9C0
FB80
FE00
F800
F820
F860
7CC0
3F00
ENDCHAR
STARTCHAR uni1EBE
ENCODING 7870
SWIDTH 622 0
DWIDTH 16 0
BBX 16 26 -1 0
BITMAP
0010
0038
0078
00E0
0180
0000
0060
00F0
0198
030C
0000
1FFF
0FC7
0F82
0F82
0F80
1F04
1F0C
1FFC
1F08
1F08
3E02
3E06
3E0E
7E1C
FFFC
ENDCHAR
STARTCHAR uni1EBF
ENCODING 7871
SWIDTH 476 0
DWIDTH 12 0
BBX 12 24 0 0
BITMAP
0080
01C0
03C0
0700
0C00
0000
0300
0780
0CC0
1860
0000
07E0
1EF0
3CF0
7CF0
7DE0
F9C0
FB80
FE00
F800
F820
F860
7CC0
3F00
ENDCHAR
STARTCHAR uni1EC0
ENCODING 7872
SWIDTH 622 0
DWIDTH 16 0
BBX 16 26 -1 0
BITMAP
0200
0700
0780
01C0
0060
0000
0060
00F0
0198
030C
0000
1FFF
0FC7
0F82
0F82
0F80
1F04
1F0C
1FFC
1F08
1F08
3E02
3E06
3E0E
7E1C
FFFC
ENDCHAR
STARTCHAR uni1EC1
ENCODING 7873
SWIDTH 476 0
DWIDTH 12 0
BBX 12 24 0 0
BITMAP
0800
1C00
1E00
0700
0180
0000
0300
0780
0CC0
1860
0000
07E0
1EF0
3CF0
7CF0
7DE0
F9C0
FB80
FE00
F800
F820
F860
7CC0
3F00
ENDCHAR
STARTCHAR uni1EC4
ENCODING 7876
SWIDTH 622 0
DWIDTH 16 0
BBX 16 24 -1 0
BITMAP
01C6
03FC
0638
0000
0060
00F0
0198
030C
0000
1FFF
0FC7
0F82
0F82
0F80
1F04
1F0C
1FFC
1F08
1F08
3E02
3E06
3E0E
7E1C
FFFC
ENDCHAR
STARTCHAR uni1EC5
ENCODING 7877
SWIDTH 476 0
DWIDTH 12 0
BBX 12 22 0 0
BITMAP
0E30
1FE0
31C0
0000
0300
0780
0CC0
1860
0000
07E0
1EF0
3CF0
7CF0
7DE0
F9C0
FB80
FE00
F800
F820
F860
7CC0
3F00
ENDCHAR
STARTCHAR uni1EC6
ENCODING 7878
SWIDTH 622 0
DWIDTH 16 0
BBX 16 27 -1 -5
BITMAP
0180
03C0
0660
0C30
0000
1FFF
0FC7
0F82
0F82
0F80
0F84
1F0C
1FFC
1F08
1F08
1F00
3E00
3E02
3E06
3E0E
7E1C
FFFC
0000
0300
0780
0780
0300
ENDCHAR
STARTCHAR uni1EC7
ENCODING 7879
SWIDTH 476 0
DWIDTH 12 0
BBX 12 23 0 -5
BITMAP
0300
0780
0CC0
1860
0000
07E0
1EF0
3CF0
7CF0
7DE0
F9C0
FB80
FE00
F800
F820
F860
7CC0
3F00
0000
0C00
1E00
1E00
0C00
ENDCHAR
STARTCHAR uni1ECA
ENCODING 7882
SWIDTH 386 0
DWIDTH 10 0
BBX 11 22 -1 -5
BITMAP
1FE0
0FC0
0F80
0F80
0F80
1F00
1F00
1F00
1F00
1F00
1F00
3E00
3E00
3E00
3E00
7E00
FF00
0000
0C00
1E00
1E00
0C00
ENDCHAR
STARTCHAR uni1ECB
ENCODING 7883
SWIDTH 339 0
DWIDTH 8 0
BBX 8 23 0 -5
BITMAP
0E
1F
1F
0E
00
1E
FE
3E
3E
3C
7C
7C
7C
78
F9
FA
FC
78
00
30
78
78
30
ENDCHAR
STARTCHAR uni1ECC
ENCODING 7884
SWIDTH 761 0
DWIDTH 19 0
BBX 18 22 0 -5
BITMAP
03FC00
0F8F00
1F0780
3E0780
3E07C0
7C07C0
7C07C0
7C07C0
F807C0
F80F80
F80F80
F80F80
F81F00
781F00
783E00
3C7C00
0FF000
000000
00C000
01E000
01E000
00C000
ENDCHAR
STARTCHAR uni1ECD
ENCODING 7885
SWIDTH 562 0
DWIDTH 14 0
BBX 14 18 0 -5
BITMAP
07F0
1EF8
3C7C
7C7C
7C7C
F87C
F87C
F87C
F8F8
F8F8
F8F0
7DE0
3F80
0000
0600
0F00
0F00
0600
ENDCHAR
STARTCHAR uni1ED0
ENCODING 7888
SWIDTH 761 0
DWIDTH 19 0
BBX 18 26 0 0
BITMAP
001000
003800
007800
00E000
018000
000000
006000
00F000
019800
030C00
000000
03FC00
0F8F00
1F0780
3E0780
3E07C0
7C07C0
7C07C0
F807C0
F80F80
F80F80
F81F00
781F00
783E00
3C7C00
0FF000
ENDCHAR
STARTCHAR uni1ED1
ENCODING 7889
SWIDTH 562 0
DWIDTH 14 0
BBX 14 24 0 0
BITMAP
0040
00E0
01E0
0380
0600
0000
0180
03C0
0660
0C30
0000
07F0
1EF8
3C7C
7C7C
7C7C
F87C
F87C
F87C
F8F8
F8F8
F8F0
7DE0
3F80
ENDCHAR
STARTCHAR uni1ED2
ENCODING 7890
SWIDTH 761 0
DWIDTH 19 0
BBX 18 26 0 0
BITMAP
010000
038000
03C000
00E000
003000
000000
006000
00F000
019800
030C00
000000
03FC00
0F8F00
1F0780
3E0780
3E07C0
7C07C0
7C07C0
F807C0
F80F80
F80F80
F81F00
781F00
783E00
3C7C00
0FF000
ENDCHAR
STARTCHAR uni1ED3
ENCODING 7891
SWIDTH 562 0
DWIDTH 14 0
BBX 14 24 0 0
BITMAP
0400
0E00
0F00
0380
00C0
0000
0180
03C0
0660
0C30
0000
07F0
1EF8
3C7C
7C7C
7C7C
F87C
F87C
F87C
F8F8
F8F8
F8F0
7DE0
3F80
ENDCHAR
STARTCHAR uni1ED6
ENCODING 7894
SWIDTH 761 0
DWIDTH 19 0
BBX 18 24 0 0
BITMAP
01C600
03FC00
063800
000000
006000
00F000
019800
030C00
000000
03FC00
0F8F00
1F0780
3E0780
3E07C0
7C07C0
7C07C0
F807C0
F80F80
F80F80
F81F00
781F00
783E00
3C7C00
0FF000
ENDCHAR
STARTCHAR uni1ED7
ENCODING 7895
SWIDTH 562 0
DWIDTH 14 0
BBX 14 22 0 0
BITMAP
0718
0FF0
18E0
0000
0180
03C0
0660
0C30
0000
07F0
1EF8
3C7C
7C7C
7C7C
F87C
F87C
F87C
F8F8
F8F8
F8F0
7DE0
3F80
ENDCHAR
STARTCHAR uni1ED8
ENCODING 7896
SWIDTH 761 0
DWIDTH 19 0
BBX 18 27 0 -5
BITMAP
00C000
01E000
033000
061800
000000
03FC00
0F8F00
1F0780
3E0780
3E07C0
7C07C0
7C07C0
7C07C0
F807C0
F80F80
F80F80
F80F80
F81F00
781F00
783E00
3C7C00
0FF000
000000
00C000
01E000
01E000
00C000
ENDCHAR
STARTCHAR uni1ED9
ENCODING 7897
SWIDTH 562 0
DWIDTH 14 0
BBX 14 23 0 -5
BITMAP
0180
03C0
0660
0C30
0000
07F0
1EF8
3C7C
7C7C
7C7C
F87C
F87C
F87C
F8F8
F8F8
F8F0
7DE0
3F80
0000
0600
0F00
0F00
0600
ENDCHAR
STARTCHAR uni1EDA
ENCODING 7898
SWIDTH 761 0
DWIDTH 19 0
BBX 21 23 0 0
BITMAP
000400
000E00
001E00
003800
006000
000000
03FC30
0F8F78
1F07F8
3E07B8
3E07F0
7C07F0
7C07E0
7C07C0
F807C0
F80F80
F80F80
F80F80
F81F00
781F00
783E00
3C7C00
0FF000
ENDCHAR
STARTCHAR uni1EDB
ENCODING 7899
SWIDTH 562 0
DWIDTH 14 0
BBX 18 19 0 0
BITMAP
000800
001C00
003C00
007000
00C000
000000
07F180
1EFBC0
3C7FC0
7C7DC0
7C7D80
F87D80
F87F00
F87E00
F8FC00
F8F800
F8F000
7DE000
3F8000
ENDCHAR
STARTCHAR uni1EDC
ENCODING 7900
SWIDTH 761 0
DWIDTH 19 0
BBX 21 23 0 0
BITMAP
004000
00E000
00F000
003800
000C00
000000
03FC30
0F8F78
1F07F8
3E07B8
3E07F0
7C07F0
7C07E0
7C07C0
F807C0
F80F80
F80F80
F80F80
F81F00
781F00
783E00
3C7C00
0FF000
ENDCHAR
STARTCHAR uni1EDD
ENCODING 7901
SWIDTH 562 0
DWIDTH 14 0
BBX 18 19 0 0
BITMAP
010000
038000
03C000
00E000
003000
000000
07F180
1EFBC0
3C7FC0
7C7DC0
7C7D80
F87D80
F87F00
F87E00
F8FC00
F8F800
F8F000
7DE000
3F8000
ENDCHAR
STARTCHAR uni1EE0
ENCODING 7904
SWIDTH 761 0
DWIDTH 19 0
BBX 21 21 0 0
BITMAP
007180
00FF00
018E00
000000
03FC30
0F8F78
1F07F8
3E07B8
3E07F0
7C07F0
7C07E0
7C07C0
F807C0
F80F80
F80F80
F80F80
F81F00
781F00
783E00
3C7C00
0FF000
ENDCHAR
STARTCHAR uni1EE1
ENCODING 7905
SWIDTH 562 0
DWIDTH 14 0
BBX 18 17 0 0
BITMAP
01C600
03FC00
063800
000000
07F180
1EFBC0
3C7FC0
7C7DC0
7C7D80
F87D80
F87F00
F87E00
F8FC00
F8F800
F8F000
7DE000
3F8000
ENDCHAR
STARTCHAR uni1EE2
ENCODING 7906
SWIDTH 761 0
DWIDTH 19 0
BBX 21 22 0 -5
BITMAP
03FC30
0F8F78
1F07F8
3E07B8
3E07F0
7C07F0
7C07E0
7C07C0
F807C0
F80F80
F80F80
F80F80
F81F00
781F00
783E00
3C7C00
0FF000
000000
00C000
01E000
01E000
00C000
ENDCHAR
STARTCHAR uni1EE3
ENCODING 7907
SWIDTH 562 0
DWIDTH 14 0
BBX 18 18 0 -5
BITMAP
07F180
1EFBC0
3C7FC0
7C7DC0
7C7D80
F87D80
F87F00
F87E00
F8FC00
F8F800
F8F000
7DE000
3F8000
000000
030000
078000
078000
030000
ENDCHAR
STARTCHAR uni1EE4
ENCODING 7908
SWIDTH 776 0
DWIDTH 19 0
BBX 19 22 1 -5
BITMAP
7F9FE0
3F0FC0
3E0F80
3E0F80
3E0F80
7C1F00
7C1F00
7C1F00
7C1F00
7C1F00
F83E00
F83E00
F83E00
F83E00
F83C00
7C7800
1FE000
000000
018000
03C000
03C000
018000
ENDCHAR
STARTCHAR uni1EE5
ENCODING 7909
SWIDTH 634 0
DWIDTH 16 0
BBX 16 18 0 -5
BITMAP
1E3E
FE3E
3E3E
3E3E
7C7C
7C7C
7C7C
7CFC
7CFC
F979
FAFA
FCFC
7878
0000
0300
0780
0780
0300
ENDCHAR
STARTCHAR uni1EE8
ENCODING 7912
SWIDTH 776 0
DWIDTH 19 0
BBX 22 23 1 0
BITMAP
000400
000E00
001E00
003800
006000
000000
7F9FF8
3F0FFC
3E0FBC
3E0F9C
3E0F98
7C1F18
7C1F30
7C1F60
7C1F40
7C1F00
F83E00
F83E00
F83E00
F83E00
F83C00
7C7800
1FE000
ENDCHAR
STARTCHAR uni1EE9
ENCODING 7913
SWIDTH 634 0
DWIDTH 16 0
BBX 20 19 0 0
BITMAP
000800
001C00
003C00
007000
00C000
000000
1E3E60
FE3EF0
3E3EF0
3E3E70
7C7C60
7C7C60
7C7CC0
7CFD80
7CFD00
F97900
FAFA00
FCFC00
787800
ENDCHAR
STARTCHAR uni1EEA
ENCODING 7914
SWIDTH 776 0
DWIDTH 19 0
BBX 22 23 1 0
BITMAP
004000
00E000
00F000
003800
000C00
000000
7F9FF8
3F0FFC
3E0FBC
3E0F9C
3E0F98
7C1F18
7C1F30
7C1F60
7C1F40
7C1F00
F83E00
F83E00
F83E00
F83E00
F83C00
7C7800
1FE000
ENDCHAR
STARTCHAR uni1EEB
ENCODING 7915
SWIDTH 634 0
DWIDTH 16 0
BBX 20 19 0 0
BITMAP
008000
01C000
01E000
007000
001800
000000
1E3E60
FE3EF0
3E3EF0
3E3E70
7C7C60
7C7C60
7C7CC0
7CFD80
7CFD00
F97900
FAFA00
FCFC00
787800
ENDCHAR
STARTCHAR uni1EEE
ENCODING 7918
SWIDTH 776 0
DWIDTH 19 0
BBX 22 21 1 0
BITMAP
007180
00FF00
018E00
000000
7F9FF8
3F0FFC
3E0FBC
3E0F9C
3E0F98
7C1F18
7C1F30
7C1F60
7C1F40
7C1F00
F83E00
F83E00
F83E00
F83E00
F83C00
7C7800
1FE000
ENDCHAR
STARTCHAR uni1EEF
ENCODING 7919
SWIDTH 634 0
DWIDTH 16 0
BBX 20 17 0 0
BITMAP
00E300
01FE00
031C00
000000
1E3E60
FE3EF0
3E3EF0
3E3E70
7C7C60
7C7C60
7C7CC0
7CFD80
7CFD00
F97900
FAFA00
FCFC00
787800
ENDCHAR
STARTCHAR uni1EF0
ENCODING 7920
SWIDTH 776 0
DWIDTH 19 0
BBX 22 22 1 -5
BITMAP
7F9FF8
3F0FFC
3E0FBC
3E0F9C
3E0F98
7C1F18
7C1F30
7C1F60
7C1F40
7C1F00
F83E00
F83E00
F83E00
F83E00
F83C00
7C7800
1FE000
000000
018000
03C000
03C000
018000
ENDCHAR
STARTCHAR uni1EF1
ENCODING 7921
SWIDTH 634 0
DWIDTH 16 0
BBX 20 18 0 -5
BITMAP
1E3E60
FE3EF0
3E3EF0
3E3E70
7C7C60
7C7C60
7C7CC0
7CFD80
7CFD00
F97900
FAFA00
FCFC00
787800
000000
018000
03C000
03C000
018000
ENDCHAR
STARTCHAR Ygrave
ENCODING 7922
SWIDTH 622 0
DWIDTH 16 0
BBX 16 23 1 0
BITMAP
0800
1C00
1E00
0700
0180
0000
FE1F
7C0E
7C0C
7C18
3E30
3E20
3E40
3EC0
1F80
1F00
1F00
1F00
3E00
3E00
3E00
7E00
FF00
ENDCHAR
STARTCHAR ygrave
ENCODING 7923
SWIDTH 489 0
DWIDTH 12 0
BBX 15 24 -3 -5
BITMAP
0200
0700
0780
01C0
0060
0000
078E
3F9E
0F8E
0F8E
0F8E
0F8C
07CC
07C8
07D0
07D0
07E0
07C0
0780
0780
6700
F600
F400
7800
ENDCHAR
STARTCHAR uni1EF4
ENCODING 7924
SWIDTH 622 0
DWIDTH 16 0
BBX 16 22 1 -5
BITMAP
FE1F
7C0E
7C0C
7C18
3E30
3E20
3E40
3EC0
1F80
1F00
1F00
1F00
3E00
3E00
3E00
7E00
FF00
0000
0600
0F00
0F00
0600
ENDCHAR
STARTCHAR uni1EF5
ENCODING 7925
SWIDTH 489 0
DWIDTH 12 0
BBX 15 23 -3 -10
BITMAP
078E
3F9E
0F8E
0F8E
0F8E
0F8C
07CC
07C8
07D0
07D0
07E0
07C0
0780
0780
6700
F600
F400
7800
0000
0C00
1E00
1E00
0C00
ENDCHAR
STARTCHAR uni1EF8
ENCODING 7928
SWIDTH 622 0
DWIDTH 16 0
BBX 16 21 1 0
BITMAP
0718
0FF0
18E0
0000
FE1F
7C0E
7C0C
7C18
3E30
3E20
3E40
3EC0
1F80
1F00
1F00
1F00
3E00
3E00
3E00
7E00
FF00
ENDCHAR
STARTCHAR uni1EF9
ENCODING 7929
SWIDTH 489 0
DWIDTH 12 0
BBX 15 22 -3 -5
BITMAP
038C
07F8
0C70
0000
078E
3F9E
0F8E
0F8E
0F8E
0F8C
07CC
07C8
07D0
07D0
07E0
07C0
0780
0780
6700
F600
F400
7800
ENDCHAR
STARTCHAR uni2000
ENCODING 8192
SWIDTH 500 0
DWIDTH 13 0
BBX 1 1 0 0
BITMAP
00
ENDCHAR
STARTCHAR uni2001
ENCODING 8193
SWIDTH 1000 0
DWIDTH 25 0
BBX 1 1 0 0
BITMAP
00
ENDCHAR
STARTCHAR uni2002
ENCODING 8194
SWIDTH 500 0
DWIDTH 13 0
BBX 1 1 0 0
BITMAP
00
ENDCHAR
STARTCHAR uni2003
ENCODING 8195
SWIDTH 1000 0
DWIDTH 25 0
BBX 1 1 0 0
BITMAP
00
ENDCHAR
STARTCHAR uni2004
ENCODING 8196
SWIDTH 333 0
DWIDTH 8 0
BBX 1 1 0 0
BITMAP
00
ENDCHAR
STARTCHAR uni2005
ENCODING 8197
SWIDTH 250 0
DWIDTH 6 0
BBX 1 1 0 0
BITMAP
00
ENDCHAR
STARTCHAR uni2006
ENCODING 8198
SWIDTH 167 0
DWIDTH 4 0
BBX 1 1 0 0
BITMAP
00
ENDCHAR
STARTCHAR uni2007
ENCODING 8199
SWIDTH 560 0
DWIDTH 14 0
BBX 1 1 0 0
BITMAP
00
ENDCHAR
STARTCHAR uni2008
ENCODING 8200
SWIDTH 280 0
DWIDTH 7 0
BBX 1 1 0 0
BITMAP
00
ENDCHAR
STARTCHAR uni2009
ENCODING 8201
SWIDTH 200 0
DWIDTH 5 0
BBX 1 1 0 0
BITMAP
00
ENDCHAR
STARTCHAR uni200A
ENCODING 8202
SWIDTH 100 0
DWIDTH 3 0
BBX 1 1 0 0
BITMAP
00
ENDCHAR
STARTCHAR uni200B
ENCODING 8203
SWIDTH 0 0
DWIDTH 0 0
BBX 1 1 0 0
BITMAP
00
ENDCHAR
STARTCHAR uni2010
ENCODING 8208
SWIDTH 392 0
DWIDTH 10 0
BBX 8 2 1 5
BITMAP
7F
FE
ENDCHAR
STARTCHAR uni2011
ENCODING 8209
SWIDTH 392 0
DWIDTH 10 0
BBX 8 2 1 5
BITMAP
7F
FE
ENDCHAR
STARTCHAR figuredash
ENCODING 8210
SWIDTH 500 0
DWIDTH 12 0
BBX 13 2 -1 5
BITMAP
7FF8
FFF0
ENDCHAR
STARTCHAR endash
ENCODING 8211
SWIDTH 500 0
DWIDTH 12 0
BBX 13 2 -1 5
BITMAP
7FF8
FFF0
ENDCHAR
STARTCHAR emdash
ENCODING 8212
SWIDTH 1000 0
DWIDTH 25 0
BBX 26 2 -1 5
BITMAP
7FFFFFC0
FFFFFF80
ENDCHAR
STARTCHAR afii00208
ENCODING 8213
SWIDTH 1000 0
DWIDTH 25 0
BBX 26 2 -1 5
BITMAP
7FFFFFC0
FFFFFF80
ENDCHAR
STARTCHAR quoteleft
ENCODING 8216
SWIDTH 246 0
DWIDTH 6 0
BBX 5 9 1 8
BITMAP
08
18
30
60
60
E0
F0
F0
60
ENDCHAR
STARTCHAR quoteright
ENCODING 8217
SWIDTH 246 0
DWIDTH 6 0
BBX 5 9 0 8
BITMAP
30
78
78
38
30
30
60
C0
80
ENDCHAR
STARTCHAR quotesinglbase
ENCODING 8218
SWIDTH 246 0
DWIDTH 6 0
BBX 5 9 -1 -5
BITMAP
30
78
78
38
30
30
60
C0
80
ENDCHAR
STARTCHAR quotereversed
ENCODING 8219
SWIDTH 246 0
DWIDTH 6 0
BBX 5 9 0 8
BITMAP
60
F0
F0
E0
60
60
30
18
08
ENDCHAR
STARTCHAR quotedblleft
ENCODING 8220
SWIDTH 455 0
DWIDTH 11 0
BBX 10 9 1 8
BITMAP
0840
18C0
3180
6300
6300
E700
F780
F780
6300
ENDCHAR
STARTCHAR quotedblright
ENCODING 8221
SWIDTH 455 0
DWIDTH 11 0
BBX 10 9 1 8
BITMAP
3180
7BC0
7BC0
39C0
3180
3180
6300
C600
8400
ENDCHAR
STARTCHAR quotedblbase
ENCODING 8222
SWIDTH 455 0
DWIDTH 11 0
BBX 10 9 -1 -5
BITMAP
3180
7BC0
7BC0
39C0
3180
3180
6300
C600
8400
ENDCHAR
STARTCHAR uni201F
ENCODING 8223
SWIDTH 455 0
DWIDTH 11 0
BBX 10 9 1 8
BITMAP
6300
F780
F780
E700
6300
6300
3180
18C0
0840
ENDCHAR
STARTCHAR dagger
ENCODING 8224
SWIDTH 514 0
DWIDTH 13 0
BBX 10 21 2 -4
BITMAP
0600
0F00
0F00
0E00
0E00
FFC0
FFC0
1C00
1C00
3C00
3800
3800
3800
3000
3000
7000
6000
6000
6000
4000
4000
ENDCHAR
STARTCHAR daggerdbl
ENCODING 8225
SWIDTH 490 0
DWIDTH 12 0
BBX 11 21 0 -4
BITMAP
0300
0780
0780
0700
0600
7FE0
7FE0
0C00
0E00
1E00
1E00
1C00
0C00
FFC0
FFC0
1800
3800
7800
7800
7800
3000
ENDCHAR
STARTCHAR bullet
ENCODING 8226
SWIDTH 465 0
DWIDTH 12 0
BBX 10 9 1 3
BITMAP
1E00
7F80
7F80
FFC0
FFC0
FFC0
7F80
7F80
1E00
ENDCHAR
STARTCHAR ellipsis
ENCODING 8230
SWIDTH 1000 0
DWIDTH 24 0
BBX 20 4 0 0
BITMAP
606060
F0F0F0
F0F0F0
606060
ENDCHAR
STARTCHAR perthousand
ENCODING 8240
SWIDTH 1297 0
DWIDTH 32 0
BBX 31 17 1 0
BITMAP
1F008000
39FF8000
71C30000
71C20000
E1C40000
E38C0000
E3980000
67100000
3E27C0F8
006E61CC
00DC738E
019C738E
0138770E
0238E71C
0638E71C
0C19C338
080F81F0
ENDCHAR
STARTCHAR guilsinglleft
ENCODING 8249
SWIDTH 360 0
DWIDTH 9 0
BBX 6 9 2 2
BITMAP
04
08
18
30
70
E0
60
30
10
ENDCHAR
STARTCHAR guilsinglright
ENCODING 8250
SWIDTH 360 0
DWIDTH 9 0
BBX 6 9 1 2
BITMAP
20
30
18
1C
38
30
60
40
80
ENDCHAR
STARTCHAR fraction
ENCODING 8260
SWIDTH 100 0
DWIDTH 3 0
BBX 13 17 -5 0
BITMAP
0008
0018
0030
0020
0040
00C0
0180
0100
0200
0600
0C00
1800
1000
2000
6000
C000
8000
ENDCHAR
STARTCHAR oneinferior
ENCODING 8321
SWIDTH 402 0
DWIDTH 10 0
BBX 7 10 1 -5
BITMAP
0E
3E
0E
1C
1C
1C
38
38
38
FE
ENDCHAR
STARTCHAR twoinferior
ENCODING 8322
SWIDTH 402 0
DWIDTH 10 0
BBX 9 10 0 -5
BITMAP
1F00
3B80
3380
0380
0700
0C00
3000
6100
FF00
FE00
ENDCHAR
STARTCHAR threeinferior
ENCODING 8323
SWIDTH 402 0
DWIDTH 10 0
BBX 9 10 0 -5
BITMAP
1F00
3B80
3380
0300
1E00
0600
0700
C700
EE00
7C00
ENDCHAR
STARTCHAR uni20A5
ENCODING 8357
SWIDTH 914 0
DWIDTH 23 0
BBX 24 17 0 -2
BITMAP
000300
000300
1E3E3C
FE7E7E
3EBEBE
3D3F3E
3E3E3E
7E7E7C
7C7C7C
7C7C7C
7C7C7C
F8F8F9
F8F8FA
F8F8FC
F8F878
006000
006000
ENDCHAR
STARTCHAR uni20A6
ENCODING 8358
SWIDTH 741 0
DWIDTH 19 0
BBX 20 17 -1 0
BITMAP
1F81F0
0F80E0
0FC0C0
0FC0C0
0FFFC0
1FFF80
1BF180
19F180
19F980
18F980
1FFF80
3FFF80
307F00
303F00
303F00
701F00
F81F00
ENDCHAR
STARTCHAR uni20A9
ENCODING 8361
SWIDTH 920 0
DWIDTH 23 0
BBX 25 17 0 0
BITMAP
FF1F0F80
7E1F0700
3E1F0600
3E1F0400
3FFFEC00
3FFFE800
3E3F1800
3E3F1000
1F6FB000
1F4FA000
1FFFE000
1FFFE000
1F8FC000
1F0F8000
1F0F8000
1E0F0000
1E0F0000
ENDCHAR
STARTCHAR Euro
ENCODING 8364
SWIDTH 672 0
DWIDTH 17 0
BBX 19 17 -3 0
BITMAP
007FE0
01F0E0
03E040
07C040
FFF800
FFF800
0F8000
0F8000
1F0000
1F0000
FFF800
FFF800
1F0080
0F0180
0F0380
078700
01FC00
ENDCHAR
STARTCHAR uni20AD
ENCODING 8365
SWIDTH 688 0
DWIDTH 17 0
BBX 19 17 -1 0
BITMAP
1FE3E0
0FC380
0F8300
0F8600
0F8C00
0F9800
1F3000
1F7800
FFFFE0
1FFC00
1F7C00
3E7E00
3E3E00
3E3F00
3E1F00
7E1F80
FF0FC0
ENDCHAR
STARTCHAR uni2103
ENCODING 8451
SWIDTH 1028 0
DWIDTH 27 0
BBX 25 17 1 0
BITMAP
1801FF80
7E07C380
660F8100
C31F0100
C31F0000
663E0000
7E3E0000
183E0000
007C0000
007C0000
007C0000
007C0000
007C0200
003C0600
003C0E00
001E1C00
0007F000
ENDCHAR
STARTCHAR uni2109
ENCODING 8457
SWIDTH 941 0
DWIDTH 25 0
BBX 24 17 1 0
BITMAP
181FFF
7E0FC7
660F82
C30F82
C30F80
661F00
7E1F04
181F0C
001FFC
001F08
001F08
003E00
003E00
003E00
003E00
007E00
00FF00
ENDCHAR
STARTCHAR trademark
ENCODING 8482
SWIDTH 1100 0
DWIDTH 27 0
BBX 27 10 0 7
BITMAP
FFEF03E0
CE6787C0
8E2585C0
0E05C9C0
0E04F9C0
0E04F1C0
0E0471C0
0E0461C0
0E0421C0
1F0E03E0
ENDCHAR
STARTCHAR uni212A
ENCODING 8490
SWIDTH 688 0
DWIDTH 17 0
BBX 19 17 -1 0
BITMAP
1FE3E0
0FC380
0F8300
0F8600
0F8C00
0F9800
1F3000
1F7800
1FF800
1FFC00
1F7C00
3E7E00
3E3E00
3E3F00
3E1F00
7E1F80
FF0FC0
ENDCHAR
STARTCHAR uni212B
ENCODING 8491
SWIDTH 634 0
DWIDTH 16 0
BBX 18 21 -2 0
BITMAP
003C00
006600
006600
006600
003C00
000000
003C00
007C00
007C00
00BC00
01BE00
013E00
023E00
063E00
07FE00
081F00
181F00
101F00
201F00
601F80
F83FC0
ENDCHAR
STARTCHAR uni2132
ENCODING 8498
SWIDTH 585 0
DWIDTH 15 0
BBX 16 17 -1 0
BITMAP
00FF
007E
007C
007C
007C
007C
10F8
10F8
3FF8
30F8
20F8
00F8
01F0
41F0
41F0
E3F0
FFF8
ENDCHAR
STARTCHAR minus
ENCODING 8722
SWIDTH 600 0
DWIDTH 15 0
BBX 12 2 2 5
BITMAP
FFF0
FFF0
ENDCHAR
STARTCHAR fraction
ENCODING 8725
SWIDTH 100 0
DWIDTH 3 0
BBX 13 17 -5 0
BITMAP
0008
0018
0030
0020
0040
00C0
0180
0100
0200
0600
0C00
1800
1000
2000
6000
C000
8000
ENDCHAR
STARTCHAR periodcentered
ENCODING 8729
SWIDTH 280 0
DWIDTH 7 0
BBX 4 4 1 4
BITMAP
60
F0
F0
60
ENDCHAR
STARTCHAR uni2236
ENCODING 8758
SWIDTH 280 0
DWIDTH 7 0
BBX 6 12 0 0
BITMAP
18
3C
3C
18
00
00
00
00
60
F0
F0
60
ENDCHAR
STARTCHAR uni2259
ENCODING 8793
SWIDTH 600 0
DWIDTH 15 0
BBX 13 13 1 2
BITMAP
0300
0780
0CC0
1860
0000
FFF8
FFF8
0000
0000
0000
0000
FFF8
FFF8
ENDCHAR
STARTCHAR uni225A
ENCODING 8794
SWIDTH 600 0
DWIDTH 15 0
BBX 13 13 1 2
BITMAP
1860
0CC0
0780
0300
0000
FFF8
FFF8
0000
0000
0000
0000
FFF8
FFF8
ENDCHAR
STARTCHAR notequal
ENCODING 8800
SWIDTH 600 0
DWIDTH 15 0
BBX 13 17 1 -2
BITMAP
00C0
00C0
0180
0180
0180
FFF8
FFF8
0300
0600
0600
0600
FFF8
FFF8
0C00
1800
1800
1800
ENDCHAR
STARTCHAR equivalence
ENCODING 8801
SWIDTH 600 0
DWIDTH 15 0
BBX 13 5 0 3
BITMAP
FFF8
0000
FFF8
0000
FFF8
ENDCHAR
STARTCHAR uni2262
ENCODING 8802
SWIDTH 600 0
DWIDTH 15 0
BBX 13 17 0 -3
BITMAP
00C0
00C0
0180
0180
0180
0300
FFF8
0300
FFF8
0600
FFF8
0C00
0C00
0C00
1800
1800
1800
ENDCHAR
STARTCHAR lessequal
ENCODING 8804
SWIDTH 600 0
DWIDTH 15 0
BBX 12 14 1 -2
BITMAP
0030
00F0
03C0
0F00
3C00
F000
F000
3C00
0F00
03C0
00F0
0030
0000
FFF0
ENDCHAR
STARTCHAR greaterequal
ENCODING 8805
SWIDTH 600 0
DWIDTH 15 0
BBX 12 14 1 -2
BITMAP
C000
F000
3C00
0F00
03C0
00F0
00F0
03C0
0F00
3C00
F000
C000
0000
FFF0
ENDCHAR
STARTCHAR uni226E
ENCODING 8814
SWIDTH 600 0
DWIDTH 15 0
BBX 12 17 1 -2
BITMAP
00C0
00C0
0180
01B0
01F0
03C0
0F00
3F00
F600
F600
3E00
0F00
0FC0
0CF0
1830
1800
1800
ENDCHAR
STARTCHAR uni226F
ENCODING 8815
SWIDTH 600 0
DWIDTH 15 0
BBX 12 17 1 -2
BITMAP
00C0
00C0
0180
C180
F180
3F00
0F00
03C0
06F0
06F0
07C0
0F00
3C00
FC00
D800
1800
1800
ENDCHAR
STARTCHAR uni2270
ENCODING 8816
SWIDTH 600 0
DWIDTH 15 0
BBX 12 17 1 -3
BITMAP
00C0
00C0
01B0
01F0
03C0
0F00
3F00
F300
F600
3E00
0F00
0FC0
0CF0
0C30
1800
FFF0
1800
ENDCHAR
STARTCHAR uni2271
ENCODING 8817
SWIDTH 600 0
DWIDTH 15 0
BBX 12 17 1 -3
BITMAP
00C0
00C0
C180
F180
3D80
0F00
03C0
03F0
06F0
07C0
0F00
3C00
FC00
CC00
1800
FFF0
1800
ENDCHAR
STARTCHAR fi
ENCODING -1
SWIDTH 651 0
DWIDTH 16 0
BBX 21 24 -4 -5
BITMAP
003FC0
0071F0
00F0F0
01F0F0
01F060
01F000
0FFFF0
03E1F0
03E1F0
03E1F0
03E3E0
07C3E0
07C3E0
07C3E0
07C7C0
07C7C8
0F87D0
0F87E0
0F83C0
0F8000
0F8000
CF0000
EE0000
7C0000
ENDCHAR
STARTCHAR fl
ENCODING -1
SWIDTH 652 0
DWIDTH 16 0
BBX 22 24 -4 -5
BITMAP
003E7C
0077F8
00F3F8
01F0F8
01F0F8
01F1F0
0FFDF0
03E1F0
03E1F0
03E3E0
03E3E0
07C3E0
07C3E0
07C3E0
07C7C0
07C7C8
0F87D0
0F87E0
0F83C0
0F8000
0F8000
CF0000
EE0000
7C0000
ENDCHAR
ENDFONT
